# Tiled2Unity generated file. Do not modify by hand.
# Wavefront file for 'PurpleLevel_mesh_0001.obj'

# Vertices (Count = 948)
v 0 -69 0
v -70 -69 0
v -70 1 0
v 0 1 0
v -69 -69 0
v -139 -69 0
v -139 1 0
v -69 1 0
v -138 -69 0
v -208 -69 0
v -208 1 0
v -138 1 0
v -207 -69 0
v -277 -69 0
v -277 1 0
v -207 1 0
v -276 -69 0
v -346 -69 0
v -346 1 0
v -276 1 0
v -345 -69 0
v -415 -69 0
v -415 1 0
v -345 1 0
v -414 -69 0
v -484 -69 0
v -484 1 0
v -414 1 0
v -483 -69 0
v -553 -69 0
v -553 1 0
v -483 1 0
v -552 -69 0
v -622 -69 0
v -622 1 0
v -552 1 0
v -621 -69 0
v -691 -69 0
v -691 1 0
v -621 1 0
v -690 -69 0
v -760 -69 0
v -760 1 0
v -690 1 0
v -759 -69 0
v -829 -69 0
v -829 1 0
v -759 1 0
v -828 -69 0
v -898 -69 0
v -898 1 0
v -828 1 0
v -897 -69 0
v -967 -69 0
v -967 1 0
v -897 1 0
v -966 -69 0
v -1036 -69 0
v -1036 1 0
v -966 1 0
v -1035 -69 0
v -1105 -69 0
v -1105 1 0
v -1035 1 0
v -1104 -69 0
v -1174 -69 0
v -1174 1 0
v -1104 1 0
v -1173 -69 0
v -1243 -69 0
v -1243 1 0
v -1173 1 0
v -1242 -69 0
v -1312 -69 0
v -1312 1 0
v -1242 1 0
v -1311 -69 0
v -1381 -69 0
v -1381 1 0
v -1311 1 0
v -1380 -69 0
v -1450 -69 0
v -1450 1 0
v -1380 1 0
v -1449 -69 0
v -1519 -69 0
v -1519 1 0
v -1449 1 0
v -1518 -69 0
v -1588 -69 0
v -1588 1 0
v -1518 1 0
v -1587 -69 0
v -1657 -69 0
v -1657 1 0
v -1587 1 0
v -1656 -69 0
v -1726 -69 0
v -1726 1 0
v -1656 1 0
v -1725 -69 0
v -1795 -69 0
v -1795 1 0
v -1725 1 0
v -1794 -69 0
v -1864 -69 0
v -1864 1 0
v -1794 1 0
v -1863 -69 0
v -1933 -69 0
v -1933 1 0
v -1863 1 0
v -1932 -69 0
v -2002 -69 0
v -2002 1 0
v -1932 1 0
v -2001 -69 0
v -2071 -69 0
v -2071 1 0
v -2001 1 0
v 0 -138 0
v -70 -138 0
v -70 -68 0
v 0 -68 0
v -69 -138 0
v -139 -138 0
v -139 -68 0
v -69 -68 0
v -138 -138 0
v -208 -138 0
v -208 -68 0
v -138 -68 0
v -207 -138 0
v -277 -138 0
v -277 -68 0
v -207 -68 0
v -276 -138 0
v -346 -138 0
v -346 -68 0
v -276 -68 0
v -345 -138 0
v -415 -138 0
v -415 -68 0
v -345 -68 0
v -414 -138 0
v -484 -138 0
v -484 -68 0
v -414 -68 0
v -483 -138 0
v -553 -138 0
v -553 -68 0
v -483 -68 0
v -552 -138 0
v -622 -138 0
v -622 -68 0
v -552 -68 0
v -621 -138 0
v -691 -138 0
v -691 -68 0
v -621 -68 0
v -690 -138 0
v -760 -138 0
v -760 -68 0
v -690 -68 0
v -759 -138 0
v -829 -138 0
v -829 -68 0
v -759 -68 0
v -828 -138 0
v -898 -138 0
v -898 -68 0
v -828 -68 0
v -897 -138 0
v -967 -138 0
v -967 -68 0
v -897 -68 0
v -966 -138 0
v -1036 -138 0
v -1036 -68 0
v -966 -68 0
v -1035 -138 0
v -1105 -138 0
v -1105 -68 0
v -1035 -68 0
v -1104 -138 0
v -1174 -138 0
v -1174 -68 0
v -1104 -68 0
v -1173 -138 0
v -1243 -138 0
v -1243 -68 0
v -1173 -68 0
v -1242 -138 0
v -1312 -138 0
v -1312 -68 0
v -1242 -68 0
v -1311 -138 0
v -1381 -138 0
v -1381 -68 0
v -1311 -68 0
v -1380 -138 0
v -1450 -138 0
v -1450 -68 0
v -1380 -68 0
v -1449 -138 0
v -1519 -138 0
v -1519 -68 0
v -1449 -68 0
v -1518 -138 0
v -1588 -138 0
v -1588 -68 0
v -1518 -68 0
v -1587 -138 0
v -1657 -138 0
v -1657 -68 0
v -1587 -68 0
v -1656 -138 0
v -1726 -138 0
v -1726 -68 0
v -1656 -68 0
v -1725 -138 0
v -1795 -138 0
v -1795 -68 0
v -1725 -68 0
v -1794 -138 0
v -1864 -138 0
v -1864 -68 0
v -1794 -68 0
v -1863 -138 0
v -1933 -138 0
v -1933 -68 0
v -1863 -68 0
v -1932 -138 0
v -2002 -138 0
v -2002 -68 0
v -1932 -68 0
v -2001 -138 0
v -2071 -138 0
v -2071 -68 0
v -2001 -68 0
v 0 -207 0
v -70 -207 0
v -70 -137 0
v 0 -137 0
v -1932 -207 0
v -2002 -207 0
v -2002 -137 0
v -1932 -137 0
v -2001 -207 0
v -2071 -207 0
v -2071 -137 0
v -2001 -137 0
v 0 -276 0
v -70 -276 0
v -70 -206 0
v 0 -206 0
v -1932 -276 0
v -2002 -276 0
v -2002 -206 0
v -1932 -206 0
v -2001 -276 0
v -2071 -276 0
v -2071 -206 0
v -2001 -206 0
v 0 -345 0
v -70 -345 0
v -70 -275 0
v 0 -275 0
v -1932 -345 0
v -2002 -345 0
v -2002 -275 0
v -1932 -275 0
v -2001 -345 0
v -2071 -345 0
v -2071 -275 0
v -2001 -275 0
v 0 -414 0
v -70 -414 0
v -70 -344 0
v 0 -344 0
v -1932 -414 0
v -2002 -414 0
v -2002 -344 0
v -1932 -344 0
v -2001 -414 0
v -2071 -414 0
v -2071 -344 0
v -2001 -344 0
v 0 -483 0
v -70 -483 0
v -70 -413 0
v 0 -413 0
v -1932 -483 0
v -2002 -483 0
v -2002 -413 0
v -1932 -413 0
v -2001 -483 0
v -2071 -483 0
v -2071 -413 0
v -2001 -413 0
v 0 -552 0
v -70 -552 0
v -70 -482 0
v 0 -482 0
v -1932 -552 0
v -2002 -552 0
v -2002 -482 0
v -1932 -482 0
v -2001 -552 0
v -2071 -552 0
v -2071 -482 0
v -2001 -482 0
v 0 -621 0
v -70 -621 0
v -70 -551 0
v 0 -551 0
v -1932 -621 0
v -2002 -621 0
v -2002 -551 0
v -1932 -551 0
v -2001 -621 0
v -2071 -621 0
v -2071 -551 0
v -2001 -551 0
v 0 -690 0
v -70 -690 0
v -70 -620 0
v 0 -620 0
v -1932 -690 0
v -2002 -690 0
v -2002 -620 0
v -1932 -620 0
v -2001 -690 0
v -2071 -690 0
v -2071 -620 0
v -2001 -620 0
v 0 -759 0
v -70 -759 0
v -70 -689 0
v 0 -689 0
v -1932 -759 0
v -2002 -759 0
v -2002 -689 0
v -1932 -689 0
v -2001 -759 0
v -2071 -759 0
v -2071 -689 0
v -2001 -689 0
v 0 -828 0
v -70 -828 0
v -70 -758 0
v 0 -758 0
v -1932 -828 0
v -2002 -828 0
v -2002 -758 0
v -1932 -758 0
v -2001 -828 0
v -2071 -828 0
v -2071 -758 0
v -2001 -758 0
v 0 -897 0
v -70 -897 0
v -70 -827 0
v 0 -827 0
v -1932 -897 0
v -2002 -897 0
v -2002 -827 0
v -1932 -827 0
v -2001 -897 0
v -2071 -897 0
v -2071 -827 0
v -2001 -827 0
v 0 -966 0
v -70 -966 0
v -70 -896 0
v 0 -896 0
v -1932 -966 0
v -2002 -966 0
v -2002 -896 0
v -1932 -896 0
v -2001 -966 0
v -2071 -966 0
v -2071 -896 0
v -2001 -896 0
v 0 -1035 0
v -70 -1035 0
v -70 -965 0
v 0 -965 0
v -1932 -1035 0
v -2002 -1035 0
v -2002 -965 0
v -1932 -965 0
v -2001 -1035 0
v -2071 -1035 0
v -2071 -965 0
v -2001 -965 0
v 0 -1104 0
v -70 -1104 0
v -70 -1034 0
v 0 -1034 0
v -621 -1104 0
v -691 -1104 0
v -691 -1034 0
v -621 -1034 0
v -690 -1104 0
v -760 -1104 0
v -760 -1034 0
v -690 -1034 0
v -759 -1104 0
v -829 -1104 0
v -829 -1034 0
v -759 -1034 0
v -828 -1104 0
v -898 -1104 0
v -898 -1034 0
v -828 -1034 0
v -897 -1104 0
v -967 -1104 0
v -967 -1034 0
v -897 -1034 0
v -966 -1104 0
v -1036 -1104 0
v -1036 -1034 0
v -966 -1034 0
v -1932 -1104 0
v -2002 -1104 0
v -2002 -1034 0
v -1932 -1034 0
v -2001 -1104 0
v -2071 -1104 0
v -2071 -1034 0
v -2001 -1034 0
v 0 -1173 0
v -70 -1173 0
v -70 -1103 0
v 0 -1103 0
v -621 -1173 0
v -691 -1173 0
v -691 -1103 0
v -621 -1103 0
v -690 -1173 0
v -760 -1173 0
v -760 -1103 0
v -690 -1103 0
v -759 -1173 0
v -829 -1173 0
v -829 -1103 0
v -759 -1103 0
v -828 -1173 0
v -898 -1173 0
v -898 -1103 0
v -828 -1103 0
v -897 -1173 0
v -967 -1173 0
v -967 -1103 0
v -897 -1103 0
v -966 -1173 0
v -1036 -1173 0
v -1036 -1103 0
v -966 -1103 0
v -1932 -1173 0
v -2002 -1173 0
v -2002 -1103 0
v -1932 -1103 0
v -2001 -1173 0
v -2071 -1173 0
v -2071 -1103 0
v -2001 -1103 0
v 0 -1242 0
v -70 -1242 0
v -70 -1172 0
v 0 -1172 0
v -69 -1242 0
v -139 -1242 0
v -139 -1172 0
v -69 -1172 0
v -138 -1242 0
v -208 -1242 0
v -208 -1172 0
v -138 -1172 0
v -207 -1242 0
v -277 -1242 0
v -277 -1172 0
v -207 -1172 0
v -276 -1242 0
v -346 -1242 0
v -346 -1172 0
v -276 -1172 0
v -345 -1242 0
v -415 -1242 0
v -415 -1172 0
v -345 -1172 0
v -414 -1242 0
v -484 -1242 0
v -484 -1172 0
v -414 -1172 0
v -483 -1242 0
v -553 -1242 0
v -553 -1172 0
v -483 -1172 0
v -552 -1242 0
v -622 -1242 0
v -622 -1172 0
v -552 -1172 0
v -621 -1242 0
v -691 -1242 0
v -691 -1172 0
v -621 -1172 0
v -690 -1242 0
v -760 -1242 0
v -760 -1172 0
v -690 -1172 0
v -759 -1242 0
v -829 -1242 0
v -829 -1172 0
v -759 -1172 0
v -828 -1242 0
v -898 -1242 0
v -898 -1172 0
v -828 -1172 0
v -897 -1242 0
v -967 -1242 0
v -967 -1172 0
v -897 -1172 0
v -966 -1242 0
v -1036 -1242 0
v -1036 -1172 0
v -966 -1172 0
v -1035 -1242 0
v -1105 -1242 0
v -1105 -1172 0
v -1035 -1172 0
v -1104 -1242 0
v -1174 -1242 0
v -1174 -1172 0
v -1104 -1172 0
v -1173 -1242 0
v -1243 -1242 0
v -1243 -1172 0
v -1173 -1172 0
v -1242 -1242 0
v -1312 -1242 0
v -1312 -1172 0
v -1242 -1172 0
v -1311 -1242 0
v -1381 -1242 0
v -1381 -1172 0
v -1311 -1172 0
v -1380 -1242 0
v -1450 -1242 0
v -1450 -1172 0
v -1380 -1172 0
v -1449 -1242 0
v -1519 -1242 0
v -1519 -1172 0
v -1449 -1172 0
v -1518 -1242 0
v -1588 -1242 0
v -1588 -1172 0
v -1518 -1172 0
v -1587 -1242 0
v -1657 -1242 0
v -1657 -1172 0
v -1587 -1172 0
v -1656 -1242 0
v -1726 -1242 0
v -1726 -1172 0
v -1656 -1172 0
v -1725 -1242 0
v -1795 -1242 0
v -1795 -1172 0
v -1725 -1172 0
v -1794 -1242 0
v -1864 -1242 0
v -1864 -1172 0
v -1794 -1172 0
v -1863 -1242 0
v -1933 -1242 0
v -1933 -1172 0
v -1863 -1172 0
v -1932 -1242 0
v -2002 -1242 0
v -2002 -1172 0
v -1932 -1172 0
v -2001 -1242 0
v -2071 -1242 0
v -2071 -1172 0
v -2001 -1172 0
v 0 -1311 0
v -70 -1311 0
v -70 -1241 0
v 0 -1241 0
v -69 -1311 0
v -139 -1311 0
v -139 -1241 0
v -69 -1241 0
v -138 -1311 0
v -208 -1311 0
v -208 -1241 0
v -138 -1241 0
v -207 -1311 0
v -277 -1311 0
v -277 -1241 0
v -207 -1241 0
v -276 -1311 0
v -346 -1311 0
v -346 -1241 0
v -276 -1241 0
v -345 -1311 0
v -415 -1311 0
v -415 -1241 0
v -345 -1241 0
v -414 -1311 0
v -484 -1311 0
v -484 -1241 0
v -414 -1241 0
v -483 -1311 0
v -553 -1311 0
v -553 -1241 0
v -483 -1241 0
v -552 -1311 0
v -622 -1311 0
v -622 -1241 0
v -552 -1241 0
v -621 -1311 0
v -691 -1311 0
v -691 -1241 0
v -621 -1241 0
v -690 -1311 0
v -760 -1311 0
v -760 -1241 0
v -690 -1241 0
v -759 -1311 0
v -829 -1311 0
v -829 -1241 0
v -759 -1241 0
v -828 -1311 0
v -898 -1311 0
v -898 -1241 0
v -828 -1241 0
v -897 -1311 0
v -967 -1311 0
v -967 -1241 0
v -897 -1241 0
v -966 -1311 0
v -1036 -1311 0
v -1036 -1241 0
v -966 -1241 0
v -1035 -1311 0
v -1105 -1311 0
v -1105 -1241 0
v -1035 -1241 0
v -1104 -1311 0
v -1174 -1311 0
v -1174 -1241 0
v -1104 -1241 0
v -1173 -1311 0
v -1243 -1311 0
v -1243 -1241 0
v -1173 -1241 0
v -1242 -1311 0
v -1312 -1311 0
v -1312 -1241 0
v -1242 -1241 0
v -1311 -1311 0
v -1381 -1311 0
v -1381 -1241 0
v -1311 -1241 0
v -1380 -1311 0
v -1450 -1311 0
v -1450 -1241 0
v -1380 -1241 0
v -1449 -1311 0
v -1519 -1311 0
v -1519 -1241 0
v -1449 -1241 0
v -1518 -1311 0
v -1588 -1311 0
v -1588 -1241 0
v -1518 -1241 0
v -1587 -1311 0
v -1657 -1311 0
v -1657 -1241 0
v -1587 -1241 0
v -1656 -1311 0
v -1726 -1311 0
v -1726 -1241 0
v -1656 -1241 0
v -1725 -1311 0
v -1795 -1311 0
v -1795 -1241 0
v -1725 -1241 0
v -1794 -1311 0
v -1864 -1311 0
v -1864 -1241 0
v -1794 -1241 0
v -1863 -1311 0
v -1933 -1311 0
v -1933 -1241 0
v -1863 -1241 0
v -1932 -1311 0
v -2002 -1311 0
v -2002 -1241 0
v -1932 -1241 0
v -2001 -1311 0
v -2071 -1311 0
v -2071 -1241 0
v -2001 -1241 0
v 0 -1380 0
v -70 -1380 0
v -70 -1310 0
v 0 -1310 0
v -69 -1380 0
v -139 -1380 0
v -139 -1310 0
v -69 -1310 0
v -138 -1380 0
v -208 -1380 0
v -208 -1310 0
v -138 -1310 0
v -207 -1380 0
v -277 -1380 0
v -277 -1310 0
v -207 -1310 0
v -276 -1380 0
v -346 -1380 0
v -346 -1310 0
v -276 -1310 0
v -345 -1380 0
v -415 -1380 0
v -415 -1310 0
v -345 -1310 0
v -414 -1380 0
v -484 -1380 0
v -484 -1310 0
v -414 -1310 0
v -483 -1380 0
v -553 -1380 0
v -553 -1310 0
v -483 -1310 0
v -552 -1380 0
v -622 -1380 0
v -622 -1310 0
v -552 -1310 0
v -621 -1380 0
v -691 -1380 0
v -691 -1310 0
v -621 -1310 0
v -690 -1380 0
v -760 -1380 0
v -760 -1310 0
v -690 -1310 0
v -759 -1380 0
v -829 -1380 0
v -829 -1310 0
v -759 -1310 0
v -828 -1380 0
v -898 -1380 0
v -898 -1310 0
v -828 -1310 0
v -897 -1380 0
v -967 -1380 0
v -967 -1310 0
v -897 -1310 0
v -966 -1380 0
v -1036 -1380 0
v -1036 -1310 0
v -966 -1310 0
v -1035 -1380 0
v -1105 -1380 0
v -1105 -1310 0
v -1035 -1310 0
v -1104 -1380 0
v -1174 -1380 0
v -1174 -1310 0
v -1104 -1310 0
v -1173 -1380 0
v -1243 -1380 0
v -1243 -1310 0
v -1173 -1310 0
v -1242 -1380 0
v -1312 -1380 0
v -1312 -1310 0
v -1242 -1310 0
v -1311 -1380 0
v -1381 -1380 0
v -1381 -1310 0
v -1311 -1310 0
v -1380 -1380 0
v -1450 -1380 0
v -1450 -1310 0
v -1380 -1310 0
v -1449 -1380 0
v -1519 -1380 0
v -1519 -1310 0
v -1449 -1310 0
v -1518 -1380 0
v -1588 -1380 0
v -1588 -1310 0
v -1518 -1310 0
v -1587 -1380 0
v -1657 -1380 0
v -1657 -1310 0
v -1587 -1310 0
v -1656 -1380 0
v -1726 -1380 0
v -1726 -1310 0
v -1656 -1310 0
v -1725 -1380 0
v -1795 -1380 0
v -1795 -1310 0
v -1725 -1310 0
v -1794 -1380 0
v -1864 -1380 0
v -1864 -1310 0
v -1794 -1310 0
v -1863 -1380 0
v -1933 -1380 0
v -1933 -1310 0
v -1863 -1310 0
v -1932 -1380 0
v -2002 -1380 0
v -2002 -1310 0
v -1932 -1310 0
v -2001 -1380 0
v -2071 -1380 0
v -2071 -1310 0
v -2001 -1310 0
v 0 -1449 0
v -70 -1449 0
v -70 -1379 0
v 0 -1379 0
v -69 -1449 0
v -139 -1449 0
v -139 -1379 0
v -69 -1379 0
v -138 -1449 0
v -208 -1449 0
v -208 -1379 0
v -138 -1379 0
v -207 -1449 0
v -277 -1449 0
v -277 -1379 0
v -207 -1379 0
v -276 -1449 0
v -346 -1449 0
v -346 -1379 0
v -276 -1379 0
v -345 -1449 0
v -415 -1449 0
v -415 -1379 0
v -345 -1379 0
v -414 -1449 0
v -484 -1449 0
v -484 -1379 0
v -414 -1379 0
v -483 -1449 0
v -553 -1449 0
v -553 -1379 0
v -483 -1379 0
v -552 -1449 0
v -622 -1449 0
v -622 -1379 0
v -552 -1379 0
v -621 -1449 0
v -691 -1449 0
v -691 -1379 0
v -621 -1379 0
v -690 -1449 0
v -760 -1449 0
v -760 -1379 0
v -690 -1379 0
v -759 -1449 0
v -829 -1449 0
v -829 -1379 0
v -759 -1379 0
v -828 -1449 0
v -898 -1449 0
v -898 -1379 0
v -828 -1379 0
v -897 -1449 0
v -967 -1449 0
v -967 -1379 0
v -897 -1379 0
v -966 -1449 0
v -1036 -1449 0
v -1036 -1379 0
v -966 -1379 0
v -1035 -1449 0
v -1105 -1449 0
v -1105 -1379 0
v -1035 -1379 0
v -1104 -1449 0
v -1174 -1449 0
v -1174 -1379 0
v -1104 -1379 0
v -1173 -1449 0
v -1243 -1449 0
v -1243 -1379 0
v -1173 -1379 0
v -1242 -1449 0
v -1312 -1449 0
v -1312 -1379 0
v -1242 -1379 0
v -1311 -1449 0
v -1381 -1449 0
v -1381 -1379 0
v -1311 -1379 0
v -1380 -1449 0
v -1450 -1449 0
v -1450 -1379 0
v -1380 -1379 0
v -1449 -1449 0
v -1519 -1449 0
v -1519 -1379 0
v -1449 -1379 0
v -1518 -1449 0
v -1588 -1449 0
v -1588 -1379 0
v -1518 -1379 0
v -1587 -1449 0
v -1657 -1449 0
v -1657 -1379 0
v -1587 -1379 0
v -1656 -1449 0
v -1726 -1449 0
v -1726 -1379 0
v -1656 -1379 0
v -1725 -1449 0
v -1795 -1449 0
v -1795 -1379 0
v -1725 -1379 0
v -1794 -1449 0
v -1864 -1449 0
v -1864 -1379 0
v -1794 -1379 0
v -1863 -1449 0
v -1933 -1449 0
v -1933 -1379 0
v -1863 -1379 0
v -1932 -1449 0
v -2002 -1449 0
v -2002 -1379 0
v -1932 -1379 0
v -2001 -1449 0
v -2071 -1449 0
v -2071 -1379 0
v -2001 -1379 0

# Texture cooridinates (Count = 33)
vt 0.1367188 0.7265625
vt 0.2734375 0.7265625
vt 0.2734375 0.8632813
vt 0.1367188 0.8632813
vt 0.1367188 0.453125
vt 0.2734375 0.453125
vt 0.2734375 0.5898438
vt 0.1367188 0.5898438
vt 0.1367188 0.3164063
vt 0.2734375 0.3164063
vt 0.6835938 0.8632813
vt 0.8203125 0.8632813
vt 0.8203125 1
vt 0.6835938 1
vt 0.4101563 0.3164063
vt 0.4101563 0.453125
vt 0.4101563 0.7265625
vt 0.546875 0.7265625
vt 0.546875 0.8632813
vt 0.4101563 0.8632813
vt 0.546875 0.04296875
vt 0.6835938 0.04296875
vt 0.6835938 0.1796875
vt 0.546875 0.1796875
vt 0.546875 1
vt 0.4101563 1
vt 0.546875 0.453125
vt 0.546875 0.5898438
vt 0.4101563 0.5898438
vt 0.2734375 0.04296875
vt 0.4101563 0.04296875
vt 0.4101563 0.1796875
vt 0.2734375 0.1796875

# Normal
vn 0 0 -1

# Mesh description
g PurpleLevel_mesh_0001

# Faces
f 1/1/1 2/2/1 3/3/1 4/4/1
f 5/1/1 6/2/1 7/3/1 8/4/1
f 9/1/1 10/2/1 11/3/1 12/4/1
f 13/1/1 14/2/1 15/3/1 16/4/1
f 17/1/1 18/2/1 19/3/1 20/4/1
f 21/1/1 22/2/1 23/3/1 24/4/1
f 25/1/1 26/2/1 27/3/1 28/4/1
f 29/1/1 30/2/1 31/3/1 32/4/1
f 33/1/1 34/2/1 35/3/1 36/4/1
f 37/1/1 38/2/1 39/3/1 40/4/1
f 41/1/1 42/2/1 43/3/1 44/4/1
f 45/1/1 46/2/1 47/3/1 48/4/1
f 49/1/1 50/2/1 51/3/1 52/4/1
f 53/1/1 54/2/1 55/3/1 56/4/1
f 57/1/1 58/2/1 59/3/1 60/4/1
f 61/1/1 62/2/1 63/3/1 64/4/1
f 65/1/1 66/2/1 67/3/1 68/4/1
f 69/1/1 70/2/1 71/3/1 72/4/1
f 73/1/1 74/2/1 75/3/1 76/4/1
f 77/1/1 78/2/1 79/3/1 80/4/1
f 81/1/1 82/2/1 83/3/1 84/4/1
f 85/1/1 86/2/1 87/3/1 88/4/1
f 89/1/1 90/2/1 91/3/1 92/4/1
f 93/1/1 94/2/1 95/3/1 96/4/1
f 97/1/1 98/2/1 99/3/1 100/4/1
f 101/1/1 102/2/1 103/3/1 104/4/1
f 105/1/1 106/2/1 107/3/1 108/4/1
f 109/1/1 110/2/1 111/3/1 112/4/1
f 113/1/1 114/2/1 115/3/1 116/4/1
f 117/1/1 118/2/1 119/3/1 120/4/1
f 121/5/1 122/6/1 123/7/1 124/8/1
f 125/8/1 126/7/1 127/2/1 128/1/1
f 129/8/1 130/7/1 131/2/1 132/1/1
f 133/8/1 134/7/1 135/2/1 136/1/1
f 137/8/1 138/7/1 139/2/1 140/1/1
f 141/8/1 142/7/1 143/2/1 144/1/1
f 145/8/1 146/7/1 147/2/1 148/1/1
f 149/8/1 150/7/1 151/2/1 152/1/1
f 153/8/1 154/7/1 155/2/1 156/1/1
f 157/8/1 158/7/1 159/2/1 160/1/1
f 161/8/1 162/7/1 163/2/1 164/1/1
f 165/8/1 166/7/1 167/2/1 168/1/1
f 169/8/1 170/7/1 171/2/1 172/1/1
f 173/8/1 174/7/1 175/2/1 176/1/1
f 177/8/1 178/7/1 179/2/1 180/1/1
f 181/8/1 182/7/1 183/2/1 184/1/1
f 185/8/1 186/7/1 187/2/1 188/1/1
f 189/8/1 190/7/1 191/2/1 192/1/1
f 193/8/1 194/7/1 195/2/1 196/1/1
f 197/8/1 198/7/1 199/2/1 200/1/1
f 201/8/1 202/7/1 203/2/1 204/1/1
f 205/8/1 206/7/1 207/2/1 208/1/1
f 209/8/1 210/7/1 211/2/1 212/1/1
f 213/8/1 214/7/1 215/2/1 216/1/1
f 217/8/1 218/7/1 219/2/1 220/1/1
f 221/8/1 222/7/1 223/2/1 224/1/1
f 225/8/1 226/7/1 227/2/1 228/1/1
f 229/8/1 230/7/1 231/2/1 232/1/1
f 233/9/1 234/10/1 235/6/1 236/5/1
f 237/1/1 238/2/1 239/3/1 240/4/1
f 241/11/1 242/12/1 243/13/1 244/14/1
f 245/10/1 246/15/1 247/16/1 248/6/1
f 249/1/1 250/2/1 251/3/1 252/4/1
f 253/11/1 254/12/1 255/13/1 256/14/1
f 257/10/1 258/15/1 259/16/1 260/6/1
f 261/1/1 262/2/1 263/3/1 264/4/1
f 265/11/1 266/12/1 267/13/1 268/14/1
f 269/10/1 270/15/1 271/16/1 272/6/1
f 273/1/1 274/2/1 275/3/1 276/4/1
f 277/11/1 278/12/1 279/13/1 280/14/1
f 281/10/1 282/15/1 283/16/1 284/6/1
f 285/1/1 286/2/1 287/3/1 288/4/1
f 289/11/1 290/12/1 291/13/1 292/14/1
f 293/10/1 294/15/1 295/16/1 296/6/1
f 297/1/1 298/2/1 299/3/1 300/4/1
f 301/11/1 302/12/1 303/13/1 304/14/1
f 305/10/1 306/15/1 307/16/1 308/6/1
f 309/1/1 310/2/1 311/3/1 312/4/1
f 313/11/1 314/12/1 315/13/1 316/14/1
f 317/10/1 318/15/1 319/16/1 320/6/1
f 321/1/1 322/2/1 323/3/1 324/4/1
f 325/11/1 326/12/1 327/13/1 328/14/1
f 329/10/1 330/15/1 331/16/1 332/6/1
f 333/1/1 334/2/1 335/3/1 336/4/1
f 337/11/1 338/12/1 339/13/1 340/14/1
f 341/10/1 342/15/1 343/16/1 344/6/1
f 345/1/1 346/2/1 347/3/1 348/4/1
f 349/11/1 350/12/1 351/13/1 352/14/1
f 353/10/1 354/15/1 355/16/1 356/6/1
f 357/1/1 358/2/1 359/3/1 360/4/1
f 361/11/1 362/12/1 363/13/1 364/14/1
f 365/10/1 366/15/1 367/16/1 368/6/1
f 369/1/1 370/2/1 371/3/1 372/4/1
f 373/11/1 374/12/1 375/13/1 376/14/1
f 377/10/1 378/15/1 379/16/1 380/6/1
f 381/1/1 382/2/1 383/3/1 384/4/1
f 385/11/1 386/12/1 387/13/1 388/14/1
f 389/10/1 390/15/1 391/16/1 392/6/1
f 393/1/1 394/2/1 395/3/1 396/4/1
f 397/11/1 398/12/1 399/13/1 400/14/1
f 401/17/1 402/18/1 403/19/1 404/20/1
f 405/21/1 406/22/1 407/23/1 408/24/1
f 409/21/1 410/22/1 411/23/1 412/24/1
f 413/21/1 414/22/1 415/23/1 416/24/1
f 417/21/1 418/22/1 419/23/1 420/24/1
f 421/20/1 422/19/1 423/25/1 424/26/1
f 425/10/1 426/15/1 427/16/1 428/6/1
f 429/1/1 430/2/1 431/3/1 432/4/1
f 433/11/1 434/12/1 435/13/1 436/14/1
f 437/10/1 438/15/1 439/16/1 440/6/1
f 441/1/1 442/2/1 443/3/1 444/4/1
f 445/1/1 446/2/1 447/3/1 448/4/1
f 449/1/1 450/2/1 451/3/1 452/4/1
f 453/1/1 454/2/1 455/3/1 456/4/1
f 457/11/1 458/12/1 459/13/1 460/14/1
f 461/10/1 462/15/1 463/16/1 464/6/1
f 465/1/1 466/2/1 467/3/1 468/4/1
f 469/16/1 470/27/1 471/28/1 472/29/1
f 473/21/1 474/22/1 475/23/1 476/24/1
f 477/21/1 478/22/1 479/23/1 480/24/1
f 481/21/1 482/22/1 483/23/1 484/24/1
f 485/21/1 486/22/1 487/23/1 488/24/1
f 489/21/1 490/22/1 491/23/1 492/24/1
f 493/21/1 494/22/1 495/23/1 496/24/1
f 497/21/1 498/22/1 499/23/1 500/24/1
f 501/21/1 502/22/1 503/23/1 504/24/1
f 505/30/1 506/31/1 507/32/1 508/33/1
f 509/1/1 510/2/1 511/3/1 512/4/1
f 513/1/1 514/2/1 515/3/1 516/4/1
f 517/1/1 518/2/1 519/3/1 520/4/1
f 521/1/1 522/2/1 523/3/1 524/4/1
f 525/16/1 526/27/1 527/28/1 528/29/1
f 529/21/1 530/22/1 531/23/1 532/24/1
f 533/21/1 534/22/1 535/23/1 536/24/1
f 537/21/1 538/22/1 539/23/1 540/24/1
f 541/21/1 542/22/1 543/23/1 544/24/1
f 545/21/1 546/22/1 547/23/1 548/24/1
f 549/21/1 550/22/1 551/23/1 552/24/1
f 553/21/1 554/22/1 555/23/1 556/24/1
f 557/21/1 558/22/1 559/23/1 560/24/1
f 561/21/1 562/22/1 563/23/1 564/24/1
f 565/21/1 566/22/1 567/23/1 568/24/1
f 569/21/1 570/22/1 571/23/1 572/24/1
f 573/21/1 574/22/1 575/23/1 576/24/1
f 577/21/1 578/22/1 579/23/1 580/24/1
f 581/30/1 582/31/1 583/32/1 584/33/1
f 585/1/1 586/2/1 587/3/1 588/4/1
f 589/1/1 590/2/1 591/3/1 592/4/1
f 593/1/1 594/2/1 595/3/1 596/4/1
f 597/1/1 598/2/1 599/3/1 600/4/1
f 601/1/1 602/2/1 603/3/1 604/4/1
f 605/1/1 606/2/1 607/3/1 608/4/1
f 609/1/1 610/2/1 611/3/1 612/4/1
f 613/1/1 614/2/1 615/3/1 616/4/1
f 617/1/1 618/2/1 619/3/1 620/4/1
f 621/1/1 622/2/1 623/3/1 624/4/1
f 625/1/1 626/2/1 627/3/1 628/4/1
f 629/1/1 630/2/1 631/3/1 632/4/1
f 633/1/1 634/2/1 635/3/1 636/4/1
f 637/1/1 638/2/1 639/3/1 640/4/1
f 641/1/1 642/2/1 643/3/1 644/4/1
f 645/1/1 646/2/1 647/3/1 648/4/1
f 649/1/1 650/2/1 651/3/1 652/4/1
f 653/1/1 654/2/1 655/3/1 656/4/1
f 657/1/1 658/2/1 659/3/1 660/4/1
f 661/1/1 662/2/1 663/3/1 664/4/1
f 665/1/1 666/2/1 667/3/1 668/4/1
f 669/1/1 670/2/1 671/3/1 672/4/1
f 673/1/1 674/2/1 675/3/1 676/4/1
f 677/1/1 678/2/1 679/3/1 680/4/1
f 681/1/1 682/2/1 683/3/1 684/4/1
f 685/1/1 686/2/1 687/3/1 688/4/1
f 689/1/1 690/2/1 691/3/1 692/4/1
f 693/1/1 694/2/1 695/3/1 696/4/1
f 697/1/1 698/2/1 699/3/1 700/4/1
f 701/1/1 702/2/1 703/3/1 704/4/1
f 705/1/1 706/2/1 707/3/1 708/4/1
f 709/1/1 710/2/1 711/3/1 712/4/1
f 713/1/1 714/2/1 715/3/1 716/4/1
f 717/1/1 718/2/1 719/3/1 720/4/1
f 721/1/1 722/2/1 723/3/1 724/4/1
f 725/1/1 726/2/1 727/3/1 728/4/1
f 729/1/1 730/2/1 731/3/1 732/4/1
f 733/1/1 734/2/1 735/3/1 736/4/1
f 737/1/1 738/2/1 739/3/1 740/4/1
f 741/1/1 742/2/1 743/3/1 744/4/1
f 745/1/1 746/2/1 747/3/1 748/4/1
f 749/1/1 750/2/1 751/3/1 752/4/1
f 753/1/1 754/2/1 755/3/1 756/4/1
f 757/1/1 758/2/1 759/3/1 760/4/1
f 761/1/1 762/2/1 763/3/1 764/4/1
f 765/1/1 766/2/1 767/3/1 768/4/1
f 769/1/1 770/2/1 771/3/1 772/4/1
f 773/1/1 774/2/1 775/3/1 776/4/1
f 777/1/1 778/2/1 779/3/1 780/4/1
f 781/1/1 782/2/1 783/3/1 784/4/1
f 785/1/1 786/2/1 787/3/1 788/4/1
f 789/1/1 790/2/1 791/3/1 792/4/1
f 793/1/1 794/2/1 795/3/1 796/4/1
f 797/1/1 798/2/1 799/3/1 800/4/1
f 801/1/1 802/2/1 803/3/1 804/4/1
f 805/1/1 806/2/1 807/3/1 808/4/1
f 809/1/1 810/2/1 811/3/1 812/4/1
f 813/1/1 814/2/1 815/3/1 816/4/1
f 817/1/1 818/2/1 819/3/1 820/4/1
f 821/1/1 822/2/1 823/3/1 824/4/1
f 825/1/1 826/2/1 827/3/1 828/4/1
f 829/1/1 830/2/1 831/3/1 832/4/1
f 833/1/1 834/2/1 835/3/1 836/4/1
f 837/1/1 838/2/1 839/3/1 840/4/1
f 841/1/1 842/2/1 843/3/1 844/4/1
f 845/1/1 846/2/1 847/3/1 848/4/1
f 849/1/1 850/2/1 851/3/1 852/4/1
f 853/1/1 854/2/1 855/3/1 856/4/1
f 857/1/1 858/2/1 859/3/1 860/4/1
f 861/1/1 862/2/1 863/3/1 864/4/1
f 865/1/1 866/2/1 867/3/1 868/4/1
f 869/1/1 870/2/1 871/3/1 872/4/1
f 873/1/1 874/2/1 875/3/1 876/4/1
f 877/1/1 878/2/1 879/3/1 880/4/1
f 881/1/1 882/2/1 883/3/1 884/4/1
f 885/1/1 886/2/1 887/3/1 888/4/1
f 889/1/1 890/2/1 891/3/1 892/4/1
f 893/1/1 894/2/1 895/3/1 896/4/1
f 897/1/1 898/2/1 899/3/1 900/4/1
f 901/1/1 902/2/1 903/3/1 904/4/1
f 905/1/1 906/2/1 907/3/1 908/4/1
f 909/1/1 910/2/1 911/3/1 912/4/1
f 913/1/1 914/2/1 915/3/1 916/4/1
f 917/1/1 918/2/1 919/3/1 920/4/1
f 921/1/1 922/2/1 923/3/1 924/4/1
f 925/1/1 926/2/1 927/3/1 928/4/1
f 929/1/1 930/2/1 931/3/1 932/4/1
f 933/1/1 934/2/1 935/3/1 936/4/1
f 937/1/1 938/2/1 939/3/1 940/4/1
f 941/1/1 942/2/1 943/3/1 944/4/1
f 945/1/1 946/2/1 947/3/1 948/4/1

