# Tiled2Unity generated file. Do not modify by hand.
# Wavefront file for 'Castle3_mesh_0001.obj'

# Vertices (Count = 720)
v 0 -69 0
v -70 -69 0
v -70 1 0
v 0 1 0
v -69 -69 0
v -139 -69 0
v -139 1 0
v -69 1 0
v -138 -69 0
v -208 -69 0
v -208 1 0
v -138 1 0
v -207 -69 0
v -277 -69 0
v -277 1 0
v -207 1 0
v -276 -69 0
v -346 -69 0
v -346 1 0
v -276 1 0
v -345 -69 0
v -415 -69 0
v -415 1 0
v -345 1 0
v -414 -69 0
v -484 -69 0
v -484 1 0
v -414 1 0
v -483 -69 0
v -553 -69 0
v -553 1 0
v -483 1 0
v -552 -69 0
v -622 -69 0
v -622 1 0
v -552 1 0
v -621 -69 0
v -691 -69 0
v -691 1 0
v -621 1 0
v -690 -69 0
v -760 -69 0
v -760 1 0
v -690 1 0
v -759 -69 0
v -829 -69 0
v -829 1 0
v -759 1 0
v -828 -69 0
v -898 -69 0
v -898 1 0
v -828 1 0
v -897 -69 0
v -967 -69 0
v -967 1 0
v -897 1 0
v -966 -69 0
v -1036 -69 0
v -1036 1 0
v -966 1 0
v -1035 -69 0
v -1105 -69 0
v -1105 1 0
v -1035 1 0
v -1104 -69 0
v -1174 -69 0
v -1174 1 0
v -1104 1 0
v -1173 -69 0
v -1243 -69 0
v -1243 1 0
v -1173 1 0
v -1242 -69 0
v -1312 -69 0
v -1312 1 0
v -1242 1 0
v -1311 -69 0
v -1381 -69 0
v -1381 1 0
v -1311 1 0
v -1380 -69 0
v -1450 -69 0
v -1450 1 0
v -1380 1 0
v -1449 -69 0
v -1519 -69 0
v -1519 1 0
v -1449 1 0
v -1518 -69 0
v -1588 -69 0
v -1588 1 0
v -1518 1 0
v -1587 -69 0
v -1657 -69 0
v -1657 1 0
v -1587 1 0
v -1656 -69 0
v -1726 -69 0
v -1726 1 0
v -1656 1 0
v -1725 -69 0
v -1795 -69 0
v -1795 1 0
v -1725 1 0
v -1794 -69 0
v -1864 -69 0
v -1864 1 0
v -1794 1 0
v -1863 -69 0
v -1933 -69 0
v -1933 1 0
v -1863 1 0
v -1932 -69 0
v -2002 -69 0
v -2002 1 0
v -1932 1 0
v -2001 -69 0
v -2071 -69 0
v -2071 1 0
v -2001 1 0
v 0 -138 0
v -70 -138 0
v -70 -68 0
v 0 -68 0
v -2001 -138 0
v -2071 -138 0
v -2071 -68 0
v -2001 -68 0
v 0 -207 0
v -70 -207 0
v -70 -137 0
v 0 -137 0
v -2001 -207 0
v -2071 -207 0
v -2071 -137 0
v -2001 -137 0
v 0 -276 0
v -70 -276 0
v -70 -206 0
v 0 -206 0
v -2001 -276 0
v -2071 -276 0
v -2071 -206 0
v -2001 -206 0
v 0 -345 0
v -70 -345 0
v -70 -275 0
v 0 -275 0
v -2001 -345 0
v -2071 -345 0
v -2071 -275 0
v -2001 -275 0
v 0 -414 0
v -70 -414 0
v -70 -344 0
v 0 -344 0
v -2001 -414 0
v -2071 -414 0
v -2071 -344 0
v -2001 -344 0
v 0 -483 0
v -70 -483 0
v -70 -413 0
v 0 -413 0
v -69 -483 0
v -139 -483 0
v -139 -413 0
v -69 -413 0
v -138 -483 0
v -208 -483 0
v -208 -413 0
v -138 -413 0
v -207 -483 0
v -277 -483 0
v -277 -413 0
v -207 -413 0
v -276 -483 0
v -346 -483 0
v -346 -413 0
v -276 -413 0
v -345 -483 0
v -415 -483 0
v -415 -413 0
v -345 -413 0
v -414 -483 0
v -484 -483 0
v -484 -413 0
v -414 -413 0
v -483 -483 0
v -553 -483 0
v -553 -413 0
v -483 -413 0
v -552 -483 0
v -622 -483 0
v -622 -413 0
v -552 -413 0
v -621 -483 0
v -691 -483 0
v -691 -413 0
v -621 -413 0
v -690 -483 0
v -760 -483 0
v -760 -413 0
v -690 -413 0
v -759 -483 0
v -829 -483 0
v -829 -413 0
v -759 -413 0
v -828 -483 0
v -898 -483 0
v -898 -413 0
v -828 -413 0
v -897 -483 0
v -967 -483 0
v -967 -413 0
v -897 -413 0
v -966 -483 0
v -1036 -483 0
v -1036 -413 0
v -966 -413 0
v -1035 -483 0
v -1105 -483 0
v -1105 -413 0
v -1035 -413 0
v -1104 -483 0
v -1174 -483 0
v -1174 -413 0
v -1104 -413 0
v -1173 -483 0
v -1243 -483 0
v -1243 -413 0
v -1173 -413 0
v -1242 -483 0
v -1312 -483 0
v -1312 -413 0
v -1242 -413 0
v -1311 -483 0
v -1381 -483 0
v -1381 -413 0
v -1311 -413 0
v -1380 -483 0
v -1450 -483 0
v -1450 -413 0
v -1380 -413 0
v -1449 -483 0
v -1519 -483 0
v -1519 -413 0
v -1449 -413 0
v -1518 -483 0
v -1588 -483 0
v -1588 -413 0
v -1518 -413 0
v -1587 -483 0
v -1657 -483 0
v -1657 -413 0
v -1587 -413 0
v -1656 -483 0
v -1726 -483 0
v -1726 -413 0
v -1656 -413 0
v -1725 -483 0
v -1795 -483 0
v -1795 -413 0
v -1725 -413 0
v -1794 -483 0
v -1864 -483 0
v -1864 -413 0
v -1794 -413 0
v -1863 -483 0
v -1933 -483 0
v -1933 -413 0
v -1863 -413 0
v -1932 -483 0
v -2002 -483 0
v -2002 -413 0
v -1932 -413 0
v -2001 -483 0
v -2071 -483 0
v -2071 -413 0
v -2001 -413 0
v 0 -552 0
v -70 -552 0
v -70 -482 0
v 0 -482 0
v -2001 -552 0
v -2071 -552 0
v -2071 -482 0
v -2001 -482 0
v 0 -621 0
v -70 -621 0
v -70 -551 0
v 0 -551 0
v -2001 -621 0
v -2071 -621 0
v -2071 -551 0
v -2001 -551 0
v 0 -690 0
v -70 -690 0
v -70 -620 0
v 0 -620 0
v -2001 -690 0
v -2071 -690 0
v -2071 -620 0
v -2001 -620 0
v 0 -759 0
v -70 -759 0
v -70 -689 0
v 0 -689 0
v -2001 -759 0
v -2071 -759 0
v -2071 -689 0
v -2001 -689 0
v 0 -828 0
v -70 -828 0
v -70 -758 0
v 0 -758 0
v -69 -828 0
v -139 -828 0
v -139 -758 0
v -69 -758 0
v -138 -828 0
v -208 -828 0
v -208 -758 0
v -138 -758 0
v -207 -828 0
v -277 -828 0
v -277 -758 0
v -207 -758 0
v -276 -828 0
v -346 -828 0
v -346 -758 0
v -276 -758 0
v -345 -828 0
v -415 -828 0
v -415 -758 0
v -345 -758 0
v -2001 -828 0
v -2071 -828 0
v -2071 -758 0
v -2001 -758 0
v 0 -897 0
v -70 -897 0
v -70 -827 0
v 0 -827 0
v -1656 -897 0
v -1726 -897 0
v -1726 -827 0
v -1656 -827 0
v -1725 -897 0
v -1795 -897 0
v -1795 -827 0
v -1725 -827 0
v -1794 -897 0
v -1864 -897 0
v -1864 -827 0
v -1794 -827 0
v -1863 -897 0
v -1933 -897 0
v -1933 -827 0
v -1863 -827 0
v -1932 -897 0
v -2002 -897 0
v -2002 -827 0
v -1932 -827 0
v -2001 -897 0
v -2071 -897 0
v -2071 -827 0
v -2001 -827 0
v 0 -966 0
v -70 -966 0
v -70 -896 0
v 0 -896 0
v -2001 -966 0
v -2071 -966 0
v -2071 -896 0
v -2001 -896 0
v 0 -1035 0
v -70 -1035 0
v -70 -965 0
v 0 -965 0
v -2001 -1035 0
v -2071 -1035 0
v -2071 -965 0
v -2001 -965 0
v 0 -1104 0
v -70 -1104 0
v -70 -1034 0
v 0 -1034 0
v -2001 -1104 0
v -2071 -1104 0
v -2071 -1034 0
v -2001 -1034 0
v 0 -1173 0
v -70 -1173 0
v -70 -1103 0
v 0 -1103 0
v -2001 -1173 0
v -2071 -1173 0
v -2071 -1103 0
v -2001 -1103 0
v 0 -1242 0
v -70 -1242 0
v -70 -1172 0
v 0 -1172 0
v -2001 -1242 0
v -2071 -1242 0
v -2071 -1172 0
v -2001 -1172 0
v 0 -1311 0
v -70 -1311 0
v -70 -1241 0
v 0 -1241 0
v -69 -1311 0
v -139 -1311 0
v -139 -1241 0
v -69 -1241 0
v -138 -1311 0
v -208 -1311 0
v -208 -1241 0
v -138 -1241 0
v -207 -1311 0
v -277 -1311 0
v -277 -1241 0
v -207 -1241 0
v -276 -1311 0
v -346 -1311 0
v -346 -1241 0
v -276 -1241 0
v -345 -1311 0
v -415 -1311 0
v -415 -1241 0
v -345 -1241 0
v -414 -1311 0
v -484 -1311 0
v -484 -1241 0
v -414 -1241 0
v -1587 -1311 0
v -1657 -1311 0
v -1657 -1241 0
v -1587 -1241 0
v -1656 -1311 0
v -1726 -1311 0
v -1726 -1241 0
v -1656 -1241 0
v -1725 -1311 0
v -1795 -1311 0
v -1795 -1241 0
v -1725 -1241 0
v -1794 -1311 0
v -1864 -1311 0
v -1864 -1241 0
v -1794 -1241 0
v -1863 -1311 0
v -1933 -1311 0
v -1933 -1241 0
v -1863 -1241 0
v -1932 -1311 0
v -2002 -1311 0
v -2002 -1241 0
v -1932 -1241 0
v -2001 -1311 0
v -2071 -1311 0
v -2071 -1241 0
v -2001 -1241 0
v 0 -1380 0
v -70 -1380 0
v -70 -1310 0
v 0 -1310 0
v -2001 -1380 0
v -2071 -1380 0
v -2071 -1310 0
v -2001 -1310 0
v 0 -1449 0
v -70 -1449 0
v -70 -1379 0
v 0 -1379 0
v -2001 -1449 0
v -2071 -1449 0
v -2071 -1379 0
v -2001 -1379 0
v 0 -1518 0
v -70 -1518 0
v -70 -1448 0
v 0 -1448 0
v -2001 -1518 0
v -2071 -1518 0
v -2071 -1448 0
v -2001 -1448 0
v 0 -1587 0
v -70 -1587 0
v -70 -1517 0
v 0 -1517 0
v -2001 -1587 0
v -2071 -1587 0
v -2071 -1517 0
v -2001 -1517 0
v 0 -1656 0
v -70 -1656 0
v -70 -1586 0
v 0 -1586 0
v -2001 -1656 0
v -2071 -1656 0
v -2071 -1586 0
v -2001 -1586 0
v 0 -1725 0
v -70 -1725 0
v -70 -1655 0
v 0 -1655 0
v -69 -1725 0
v -139 -1725 0
v -139 -1655 0
v -69 -1655 0
v -138 -1725 0
v -208 -1725 0
v -208 -1655 0
v -138 -1655 0
v -207 -1725 0
v -277 -1725 0
v -277 -1655 0
v -207 -1655 0
v -276 -1725 0
v -346 -1725 0
v -346 -1655 0
v -276 -1655 0
v -345 -1725 0
v -415 -1725 0
v -415 -1655 0
v -345 -1655 0
v -414 -1725 0
v -484 -1725 0
v -484 -1655 0
v -414 -1655 0
v -483 -1725 0
v -553 -1725 0
v -553 -1655 0
v -483 -1655 0
v -1518 -1725 0
v -1588 -1725 0
v -1588 -1655 0
v -1518 -1655 0
v -1587 -1725 0
v -1657 -1725 0
v -1657 -1655 0
v -1587 -1655 0
v -1656 -1725 0
v -1726 -1725 0
v -1726 -1655 0
v -1656 -1655 0
v -1725 -1725 0
v -1795 -1725 0
v -1795 -1655 0
v -1725 -1655 0
v -1794 -1725 0
v -1864 -1725 0
v -1864 -1655 0
v -1794 -1655 0
v -1863 -1725 0
v -1933 -1725 0
v -1933 -1655 0
v -1863 -1655 0
v -1932 -1725 0
v -2002 -1725 0
v -2002 -1655 0
v -1932 -1655 0
v -2001 -1725 0
v -2071 -1725 0
v -2071 -1655 0
v -2001 -1655 0
v 0 -1794 0
v -70 -1794 0
v -70 -1724 0
v 0 -1724 0
v -2001 -1794 0
v -2071 -1794 0
v -2071 -1724 0
v -2001 -1724 0
v 0 -1863 0
v -70 -1863 0
v -70 -1793 0
v 0 -1793 0
v -2001 -1863 0
v -2071 -1863 0
v -2071 -1793 0
v -2001 -1793 0
v 0 -1932 0
v -70 -1932 0
v -70 -1862 0
v 0 -1862 0
v -2001 -1932 0
v -2071 -1932 0
v -2071 -1862 0
v -2001 -1862 0
v 0 -2001 0
v -70 -2001 0
v -70 -1931 0
v 0 -1931 0
v -2001 -2001 0
v -2071 -2001 0
v -2071 -1931 0
v -2001 -1931 0
v 0 -2070 0
v -70 -2070 0
v -70 -2000 0
v 0 -2000 0
v -69 -2070 0
v -139 -2070 0
v -139 -2000 0
v -69 -2000 0
v -138 -2070 0
v -208 -2070 0
v -208 -2000 0
v -138 -2000 0
v -207 -2070 0
v -277 -2070 0
v -277 -2000 0
v -207 -2000 0
v -276 -2070 0
v -346 -2070 0
v -346 -2000 0
v -276 -2000 0
v -345 -2070 0
v -415 -2070 0
v -415 -2000 0
v -345 -2000 0
v -414 -2070 0
v -484 -2070 0
v -484 -2000 0
v -414 -2000 0
v -483 -2070 0
v -553 -2070 0
v -553 -2000 0
v -483 -2000 0
v -552 -2070 0
v -622 -2070 0
v -622 -2000 0
v -552 -2000 0
v -621 -2070 0
v -691 -2070 0
v -691 -2000 0
v -621 -2000 0
v -690 -2070 0
v -760 -2070 0
v -760 -2000 0
v -690 -2000 0
v -759 -2070 0
v -829 -2070 0
v -829 -2000 0
v -759 -2000 0
v -828 -2070 0
v -898 -2070 0
v -898 -2000 0
v -828 -2000 0
v -897 -2070 0
v -967 -2070 0
v -967 -2000 0
v -897 -2000 0
v -966 -2070 0
v -1036 -2070 0
v -1036 -2000 0
v -966 -2000 0
v -1035 -2070 0
v -1105 -2070 0
v -1105 -2000 0
v -1035 -2000 0
v -1104 -2070 0
v -1174 -2070 0
v -1174 -2000 0
v -1104 -2000 0
v -1173 -2070 0
v -1243 -2070 0
v -1243 -2000 0
v -1173 -2000 0
v -1242 -2070 0
v -1312 -2070 0
v -1312 -2000 0
v -1242 -2000 0
v -1311 -2070 0
v -1381 -2070 0
v -1381 -2000 0
v -1311 -2000 0
v -1380 -2070 0
v -1450 -2070 0
v -1450 -2000 0
v -1380 -2000 0
v -1449 -2070 0
v -1519 -2070 0
v -1519 -2000 0
v -1449 -2000 0
v -1518 -2070 0
v -1588 -2070 0
v -1588 -2000 0
v -1518 -2000 0
v -1587 -2070 0
v -1657 -2070 0
v -1657 -2000 0
v -1587 -2000 0
v -1656 -2070 0
v -1726 -2070 0
v -1726 -2000 0
v -1656 -2000 0
v -1725 -2070 0
v -1795 -2070 0
v -1795 -2000 0
v -1725 -2000 0
v -1794 -2070 0
v -1864 -2070 0
v -1864 -2000 0
v -1794 -2000 0
v -1863 -2070 0
v -1933 -2070 0
v -1933 -2000 0
v -1863 -2000 0
v -1932 -2070 0
v -2002 -2070 0
v -2002 -2000 0
v -1932 -2000 0
v -2001 -2070 0
v -2071 -2070 0
v -2071 -2000 0
v -2001 -2000 0

# Texture cooridinates (Count = 31)
vt 0.1367188 0.8632813
vt 0.2734375 0.8632813
vt 0.2734375 1
vt 0.1367188 1
vt 0 0.04296875
vt 0.1367188 0.04296875
vt 0.1367188 0.1796875
vt 0 0.1796875
vt 0.1367188 0.7265625
vt 0.2734375 0.7265625
vt 0.4101563 0.8632813
vt 0.4101563 1
vt 0.4101563 0.7265625
vt 0.2734375 0.453125
vt 0.4101563 0.453125
vt 0.4101563 0.5898438
vt 0.2734375 0.5898438
vt 0.546875 0.04296875
vt 0.6835938 0.04296875
vt 0.6835938 0.1796875
vt 0.546875 0.1796875
vt 0 0.8632813
vt 0 1
vt 0.546875 0.453125
vt 0.6835938 0.453125
vt 0.6835938 0.5898438
vt 0.546875 0.5898438
vt 0.6835938 0.8632813
vt 0.8203125 0.8632813
vt 0.8203125 1
vt 0.6835938 1

# Normal
vn 0 0 -1

# Mesh description
g Castle3_mesh_0001

# Faces
f 1/1/1 2/2/1 3/3/1 4/4/1
f 5/5/1 6/6/1 7/7/1 8/8/1
f 9/5/1 10/6/1 11/7/1 12/8/1
f 13/5/1 14/6/1 15/7/1 16/8/1
f 17/5/1 18/6/1 19/7/1 20/8/1
f 21/5/1 22/6/1 23/7/1 24/8/1
f 25/5/1 26/6/1 27/7/1 28/8/1
f 29/5/1 30/6/1 31/7/1 32/8/1
f 33/5/1 34/6/1 35/7/1 36/8/1
f 37/5/1 38/6/1 39/7/1 40/8/1
f 41/5/1 42/6/1 43/7/1 44/8/1
f 45/5/1 46/6/1 47/7/1 48/8/1
f 49/5/1 50/6/1 51/7/1 52/8/1
f 53/5/1 54/6/1 55/7/1 56/8/1
f 57/5/1 58/6/1 59/7/1 60/8/1
f 61/5/1 62/6/1 63/7/1 64/8/1
f 65/5/1 66/6/1 67/7/1 68/8/1
f 69/5/1 70/6/1 71/7/1 72/8/1
f 73/5/1 74/6/1 75/7/1 76/8/1
f 77/5/1 78/6/1 79/7/1 80/8/1
f 81/5/1 82/6/1 83/7/1 84/8/1
f 85/5/1 86/6/1 87/7/1 88/8/1
f 89/5/1 90/6/1 91/7/1 92/8/1
f 93/5/1 94/6/1 95/7/1 96/8/1
f 97/5/1 98/6/1 99/7/1 100/8/1
f 101/5/1 102/6/1 103/7/1 104/8/1
f 105/5/1 106/6/1 107/7/1 108/8/1
f 109/5/1 110/6/1 111/7/1 112/8/1
f 113/5/1 114/6/1 115/7/1 116/8/1
f 117/9/1 118/10/1 119/2/1 120/1/1
f 121/2/1 122/11/1 123/12/1 124/3/1
f 125/10/1 126/13/1 127/11/1 128/2/1
f 129/2/1 130/11/1 131/12/1 132/3/1
f 133/10/1 134/13/1 135/11/1 136/2/1
f 137/2/1 138/11/1 139/12/1 140/3/1
f 141/10/1 142/13/1 143/11/1 144/2/1
f 145/2/1 146/11/1 147/12/1 148/3/1
f 149/10/1 150/13/1 151/11/1 152/2/1
f 153/2/1 154/11/1 155/12/1 156/3/1
f 157/10/1 158/13/1 159/11/1 160/2/1
f 161/2/1 162/11/1 163/12/1 164/3/1
f 165/14/1 166/15/1 167/16/1 168/17/1
f 169/14/1 170/15/1 171/16/1 172/17/1
f 173/14/1 174/15/1 175/16/1 176/17/1
f 177/14/1 178/15/1 179/16/1 180/17/1
f 181/14/1 182/15/1 183/16/1 184/17/1
f 185/14/1 186/15/1 187/16/1 188/17/1
f 189/14/1 190/15/1 191/16/1 192/17/1
f 193/14/1 194/15/1 195/16/1 196/17/1
f 197/14/1 198/15/1 199/16/1 200/17/1
f 201/14/1 202/15/1 203/16/1 204/17/1
f 205/14/1 206/15/1 207/16/1 208/17/1
f 209/14/1 210/15/1 211/16/1 212/17/1
f 213/14/1 214/15/1 215/16/1 216/17/1
f 217/14/1 218/15/1 219/16/1 220/17/1
f 221/14/1 222/15/1 223/16/1 224/17/1
f 225/14/1 226/15/1 227/16/1 228/17/1
f 229/14/1 230/15/1 231/16/1 232/17/1
f 233/14/1 234/15/1 235/16/1 236/17/1
f 237/14/1 238/15/1 239/16/1 240/17/1
f 241/14/1 242/15/1 243/16/1 244/17/1
f 245/14/1 246/15/1 247/16/1 248/17/1
f 249/14/1 250/15/1 251/16/1 252/17/1
f 253/14/1 254/15/1 255/16/1 256/17/1
f 257/14/1 258/15/1 259/16/1 260/17/1
f 261/14/1 262/15/1 263/16/1 264/17/1
f 265/14/1 266/15/1 267/16/1 268/17/1
f 269/14/1 270/15/1 271/16/1 272/17/1
f 273/14/1 274/15/1 275/16/1 276/17/1
f 277/10/1 278/13/1 279/11/1 280/2/1
f 281/2/1 282/11/1 283/12/1 284/3/1
f 285/10/1 286/13/1 287/11/1 288/2/1
f 289/2/1 290/11/1 291/12/1 292/3/1
f 293/10/1 294/13/1 295/11/1 296/2/1
f 297/2/1 298/11/1 299/12/1 300/3/1
f 301/10/1 302/13/1 303/11/1 304/2/1
f 305/2/1 306/11/1 307/12/1 308/3/1
f 309/10/1 310/13/1 311/11/1 312/2/1
f 313/2/1 314/11/1 315/12/1 316/3/1
f 317/14/1 318/15/1 319/16/1 320/17/1
f 321/14/1 322/15/1 323/16/1 324/17/1
f 325/14/1 326/15/1 327/16/1 328/17/1
f 329/14/1 330/15/1 331/16/1 332/17/1
f 333/18/1 334/19/1 335/20/1 336/21/1
f 337/10/1 338/13/1 339/11/1 340/2/1
f 341/2/1 342/11/1 343/12/1 344/3/1
f 345/22/1 346/1/1 347/4/1 348/23/1
f 349/14/1 350/15/1 351/16/1 352/17/1
f 353/14/1 354/15/1 355/16/1 356/17/1
f 357/14/1 358/15/1 359/16/1 360/17/1
f 361/14/1 362/15/1 363/16/1 364/17/1
f 365/10/1 366/13/1 367/11/1 368/2/1
f 369/2/1 370/11/1 371/12/1 372/3/1
f 373/10/1 374/13/1 375/11/1 376/2/1
f 377/2/1 378/11/1 379/12/1 380/3/1
f 381/10/1 382/13/1 383/11/1 384/2/1
f 385/2/1 386/11/1 387/12/1 388/3/1
f 389/10/1 390/13/1 391/11/1 392/2/1
f 393/2/1 394/11/1 395/12/1 396/3/1
f 397/10/1 398/13/1 399/11/1 400/2/1
f 401/2/1 402/11/1 403/12/1 404/3/1
f 405/10/1 406/13/1 407/11/1 408/2/1
f 409/2/1 410/11/1 411/12/1 412/3/1
f 413/14/1 414/15/1 415/16/1 416/17/1
f 417/14/1 418/15/1 419/16/1 420/17/1
f 421/14/1 422/15/1 423/16/1 424/17/1
f 425/14/1 426/15/1 427/16/1 428/17/1
f 429/14/1 430/15/1 431/16/1 432/17/1
f 433/18/1 434/19/1 435/20/1 436/21/1
f 437/22/1 438/1/1 439/4/1 440/23/1
f 441/14/1 442/15/1 443/16/1 444/17/1
f 445/14/1 446/15/1 447/16/1 448/17/1
f 449/14/1 450/15/1 451/16/1 452/17/1
f 453/14/1 454/15/1 455/16/1 456/17/1
f 457/14/1 458/15/1 459/16/1 460/17/1
f 461/10/1 462/13/1 463/11/1 464/2/1
f 465/2/1 466/11/1 467/12/1 468/3/1
f 469/10/1 470/13/1 471/11/1 472/2/1
f 473/2/1 474/11/1 475/12/1 476/3/1
f 477/10/1 478/13/1 479/11/1 480/2/1
f 481/2/1 482/11/1 483/12/1 484/3/1
f 485/10/1 486/13/1 487/11/1 488/2/1
f 489/2/1 490/11/1 491/12/1 492/3/1
f 493/10/1 494/13/1 495/11/1 496/2/1
f 497/2/1 498/11/1 499/12/1 500/3/1
f 501/10/1 502/13/1 503/11/1 504/2/1
f 505/2/1 506/11/1 507/12/1 508/3/1
f 509/14/1 510/15/1 511/16/1 512/17/1
f 513/14/1 514/15/1 515/16/1 516/17/1
f 517/14/1 518/15/1 519/16/1 520/17/1
f 521/14/1 522/15/1 523/16/1 524/17/1
f 525/14/1 526/15/1 527/16/1 528/17/1
f 529/14/1 530/15/1 531/16/1 532/17/1
f 533/18/1 534/19/1 535/20/1 536/21/1
f 537/22/1 538/1/1 539/4/1 540/23/1
f 541/14/1 542/15/1 543/16/1 544/17/1
f 545/14/1 546/15/1 547/16/1 548/17/1
f 549/14/1 550/15/1 551/16/1 552/17/1
f 553/14/1 554/15/1 555/16/1 556/17/1
f 557/14/1 558/15/1 559/16/1 560/17/1
f 561/14/1 562/15/1 563/16/1 564/17/1
f 565/10/1 566/13/1 567/11/1 568/2/1
f 569/2/1 570/11/1 571/12/1 572/3/1
f 573/10/1 574/13/1 575/11/1 576/2/1
f 577/2/1 578/11/1 579/12/1 580/3/1
f 581/10/1 582/13/1 583/11/1 584/2/1
f 585/2/1 586/11/1 587/12/1 588/3/1
f 589/10/1 590/13/1 591/11/1 592/2/1
f 593/2/1 594/11/1 595/12/1 596/3/1
f 597/10/1 598/13/1 599/11/1 600/2/1
f 601/17/1 602/16/1 603/13/1 604/10/1
f 605/24/1 606/25/1 607/26/1 608/27/1
f 609/24/1 610/25/1 611/26/1 612/27/1
f 613/24/1 614/25/1 615/26/1 616/27/1
f 617/24/1 618/25/1 619/26/1 620/27/1
f 621/24/1 622/25/1 623/26/1 624/27/1
f 625/24/1 626/25/1 627/26/1 628/27/1
f 629/24/1 630/25/1 631/26/1 632/27/1
f 633/24/1 634/25/1 635/26/1 636/27/1
f 637/24/1 638/25/1 639/26/1 640/27/1
f 641/24/1 642/25/1 643/26/1 644/27/1
f 645/24/1 646/25/1 647/26/1 648/27/1
f 649/24/1 650/25/1 651/26/1 652/27/1
f 653/24/1 654/25/1 655/26/1 656/27/1
f 657/24/1 658/25/1 659/26/1 660/27/1
f 661/24/1 662/25/1 663/26/1 664/27/1
f 665/24/1 666/25/1 667/26/1 668/27/1
f 669/24/1 670/25/1 671/26/1 672/27/1
f 673/24/1 674/25/1 675/26/1 676/27/1
f 677/24/1 678/25/1 679/26/1 680/27/1
f 681/24/1 682/25/1 683/26/1 684/27/1
f 685/24/1 686/25/1 687/26/1 688/27/1
f 689/24/1 690/25/1 691/26/1 692/27/1
f 693/24/1 694/25/1 695/26/1 696/27/1
f 697/24/1 698/25/1 699/26/1 700/27/1
f 701/24/1 702/25/1 703/26/1 704/27/1
f 705/24/1 706/25/1 707/26/1 708/27/1
f 709/24/1 710/25/1 711/26/1 712/27/1
f 713/24/1 714/25/1 715/26/1 716/27/1
f 717/28/1 718/29/1 719/30/1 720/31/1

