# Tiled2Unity generated file. Do not modify by hand.
# Wavefront file for 'CreamLevel5_mesh_0001.obj'

# Vertices (Count = 852)
v 0 -1035 0
v -70 -1035 0
v -70 -965 0
v 0 -965 0
v -69 -1035 0
v -139 -1035 0
v -139 -965 0
v -69 -965 0
v -138 -1035 0
v -208 -1035 0
v -208 -965 0
v -138 -965 0
v -2622 -1035 0
v -2692 -1035 0
v -2692 -965 0
v -2622 -965 0
v -2691 -1035 0
v -2761 -1035 0
v -2761 -965 0
v -2691 -965 0
v 0 -1104 0
v -70 -1104 0
v -70 -1034 0
v 0 -1034 0
v -69 -1104 0
v -139 -1104 0
v -139 -1034 0
v -69 -1034 0
v -138 -1104 0
v -208 -1104 0
v -208 -1034 0
v -138 -1034 0
v -828 -1104 0
v -898 -1104 0
v -898 -1034 0
v -828 -1034 0
v -897 -1104 0
v -967 -1104 0
v -967 -1034 0
v -897 -1034 0
v -966 -1104 0
v -1036 -1104 0
v -1036 -1034 0
v -966 -1034 0
v -1035 -1104 0
v -1105 -1104 0
v -1105 -1034 0
v -1035 -1034 0
v -1794 -1104 0
v -1864 -1104 0
v -1864 -1034 0
v -1794 -1034 0
v -1863 -1104 0
v -1933 -1104 0
v -1933 -1034 0
v -1863 -1034 0
v -1932 -1104 0
v -2002 -1104 0
v -2002 -1034 0
v -1932 -1034 0
v -2622 -1104 0
v -2692 -1104 0
v -2692 -1034 0
v -2622 -1034 0
v -2691 -1104 0
v -2761 -1104 0
v -2761 -1034 0
v -2691 -1034 0
v 0 -1173 0
v -70 -1173 0
v -70 -1103 0
v 0 -1103 0
v -69 -1173 0
v -139 -1173 0
v -139 -1103 0
v -69 -1103 0
v -138 -1173 0
v -208 -1173 0
v -208 -1103 0
v -138 -1103 0
v -828 -1173 0
v -898 -1173 0
v -898 -1103 0
v -828 -1103 0
v -897 -1173 0
v -967 -1173 0
v -967 -1103 0
v -897 -1103 0
v -966 -1173 0
v -1036 -1173 0
v -1036 -1103 0
v -966 -1103 0
v -1035 -1173 0
v -1105 -1173 0
v -1105 -1103 0
v -1035 -1103 0
v -1794 -1173 0
v -1864 -1173 0
v -1864 -1103 0
v -1794 -1103 0
v -1863 -1173 0
v -1933 -1173 0
v -1933 -1103 0
v -1863 -1103 0
v -1932 -1173 0
v -2002 -1173 0
v -2002 -1103 0
v -1932 -1103 0
v -2622 -1173 0
v -2692 -1173 0
v -2692 -1103 0
v -2622 -1103 0
v -2691 -1173 0
v -2761 -1173 0
v -2761 -1103 0
v -2691 -1103 0
v 0 -1242 0
v -70 -1242 0
v -70 -1172 0
v 0 -1172 0
v -69 -1242 0
v -139 -1242 0
v -139 -1172 0
v -69 -1172 0
v -138 -1242 0
v -208 -1242 0
v -208 -1172 0
v -138 -1172 0
v -828 -1242 0
v -898 -1242 0
v -898 -1172 0
v -828 -1172 0
v -897 -1242 0
v -967 -1242 0
v -967 -1172 0
v -897 -1172 0
v -966 -1242 0
v -1036 -1242 0
v -1036 -1172 0
v -966 -1172 0
v -1035 -1242 0
v -1105 -1242 0
v -1105 -1172 0
v -1035 -1172 0
v -1794 -1242 0
v -1864 -1242 0
v -1864 -1172 0
v -1794 -1172 0
v -1863 -1242 0
v -1933 -1242 0
v -1933 -1172 0
v -1863 -1172 0
v -1932 -1242 0
v -2002 -1242 0
v -2002 -1172 0
v -1932 -1172 0
v -2622 -1242 0
v -2692 -1242 0
v -2692 -1172 0
v -2622 -1172 0
v -2691 -1242 0
v -2761 -1242 0
v -2761 -1172 0
v -2691 -1172 0
v 0 -1311 0
v -70 -1311 0
v -70 -1241 0
v 0 -1241 0
v -69 -1311 0
v -139 -1311 0
v -139 -1241 0
v -69 -1241 0
v -138 -1311 0
v -208 -1311 0
v -208 -1241 0
v -138 -1241 0
v -207 -1311 0
v -277 -1311 0
v -277 -1241 0
v -207 -1241 0
v -276 -1311 0
v -346 -1311 0
v -346 -1241 0
v -276 -1241 0
v -345 -1311 0
v -415 -1311 0
v -415 -1241 0
v -345 -1241 0
v -414 -1311 0
v -484 -1311 0
v -484 -1241 0
v -414 -1241 0
v -483 -1311 0
v -553 -1311 0
v -553 -1241 0
v -483 -1241 0
v -552 -1311 0
v -622 -1311 0
v -622 -1241 0
v -552 -1241 0
v -621 -1311 0
v -691 -1311 0
v -691 -1241 0
v -621 -1241 0
v -690 -1311 0
v -760 -1311 0
v -760 -1241 0
v -690 -1241 0
v -759 -1311 0
v -829 -1311 0
v -829 -1241 0
v -759 -1241 0
v -828 -1311 0
v -898 -1311 0
v -898 -1241 0
v -828 -1241 0
v -897 -1311 0
v -967 -1311 0
v -967 -1241 0
v -897 -1241 0
v -966 -1311 0
v -1036 -1311 0
v -1036 -1241 0
v -966 -1241 0
v -1035 -1311 0
v -1105 -1311 0
v -1105 -1241 0
v -1035 -1241 0
v -1104 -1311 0
v -1174 -1311 0
v -1174 -1241 0
v -1104 -1241 0
v -1173 -1311 0
v -1243 -1311 0
v -1243 -1241 0
v -1173 -1241 0
v -1242 -1311 0
v -1312 -1311 0
v -1312 -1241 0
v -1242 -1241 0
v -1311 -1311 0
v -1381 -1311 0
v -1381 -1241 0
v -1311 -1241 0
v -1380 -1311 0
v -1450 -1311 0
v -1450 -1241 0
v -1380 -1241 0
v -1449 -1311 0
v -1519 -1311 0
v -1519 -1241 0
v -1449 -1241 0
v -1518 -1311 0
v -1588 -1311 0
v -1588 -1241 0
v -1518 -1241 0
v -1587 -1311 0
v -1657 -1311 0
v -1657 -1241 0
v -1587 -1241 0
v -1656 -1311 0
v -1726 -1311 0
v -1726 -1241 0
v -1656 -1241 0
v -1725 -1311 0
v -1795 -1311 0
v -1795 -1241 0
v -1725 -1241 0
v -1794 -1311 0
v -1864 -1311 0
v -1864 -1241 0
v -1794 -1241 0
v -1863 -1311 0
v -1933 -1311 0
v -1933 -1241 0
v -1863 -1241 0
v -1932 -1311 0
v -2002 -1311 0
v -2002 -1241 0
v -1932 -1241 0
v -2001 -1311 0
v -2071 -1311 0
v -2071 -1241 0
v -2001 -1241 0
v -2070 -1311 0
v -2140 -1311 0
v -2140 -1241 0
v -2070 -1241 0
v -2139 -1311 0
v -2209 -1311 0
v -2209 -1241 0
v -2139 -1241 0
v -2208 -1311 0
v -2278 -1311 0
v -2278 -1241 0
v -2208 -1241 0
v -2277 -1311 0
v -2347 -1311 0
v -2347 -1241 0
v -2277 -1241 0
v -2346 -1311 0
v -2416 -1311 0
v -2416 -1241 0
v -2346 -1241 0
v -2415 -1311 0
v -2485 -1311 0
v -2485 -1241 0
v -2415 -1241 0
v -2484 -1311 0
v -2554 -1311 0
v -2554 -1241 0
v -2484 -1241 0
v -2553 -1311 0
v -2623 -1311 0
v -2623 -1241 0
v -2553 -1241 0
v -2622 -1311 0
v -2692 -1311 0
v -2692 -1241 0
v -2622 -1241 0
v -2691 -1311 0
v -2761 -1311 0
v -2761 -1241 0
v -2691 -1241 0
v 0 -1380 0
v -70 -1380 0
v -70 -1310 0
v 0 -1310 0
v -69 -1380 0
v -139 -1380 0
v -139 -1310 0
v -69 -1310 0
v -138 -1380 0
v -208 -1380 0
v -208 -1310 0
v -138 -1310 0
v -828 -1380 0
v -898 -1380 0
v -898 -1310 0
v -828 -1310 0
v -897 -1380 0
v -967 -1380 0
v -967 -1310 0
v -897 -1310 0
v -966 -1380 0
v -1036 -1380 0
v -1036 -1310 0
v -966 -1310 0
v -1035 -1380 0
v -1105 -1380 0
v -1105 -1310 0
v -1035 -1310 0
v -1794 -1380 0
v -1864 -1380 0
v -1864 -1310 0
v -1794 -1310 0
v -1863 -1380 0
v -1933 -1380 0
v -1933 -1310 0
v -1863 -1310 0
v -1932 -1380 0
v -2002 -1380 0
v -2002 -1310 0
v -1932 -1310 0
v -2622 -1380 0
v -2692 -1380 0
v -2692 -1310 0
v -2622 -1310 0
v -2691 -1380 0
v -2761 -1380 0
v -2761 -1310 0
v -2691 -1310 0
v 0 -1449 0
v -70 -1449 0
v -70 -1379 0
v 0 -1379 0
v -69 -1449 0
v -139 -1449 0
v -139 -1379 0
v -69 -1379 0
v -138 -1449 0
v -208 -1449 0
v -208 -1379 0
v -138 -1379 0
v -828 -1449 0
v -898 -1449 0
v -898 -1379 0
v -828 -1379 0
v -897 -1449 0
v -967 -1449 0
v -967 -1379 0
v -897 -1379 0
v -966 -1449 0
v -1036 -1449 0
v -1036 -1379 0
v -966 -1379 0
v -1035 -1449 0
v -1105 -1449 0
v -1105 -1379 0
v -1035 -1379 0
v -1794 -1449 0
v -1864 -1449 0
v -1864 -1379 0
v -1794 -1379 0
v -1863 -1449 0
v -1933 -1449 0
v -1933 -1379 0
v -1863 -1379 0
v -1932 -1449 0
v -2002 -1449 0
v -2002 -1379 0
v -1932 -1379 0
v -2622 -1449 0
v -2692 -1449 0
v -2692 -1379 0
v -2622 -1379 0
v -2691 -1449 0
v -2761 -1449 0
v -2761 -1379 0
v -2691 -1379 0
v 0 -1518 0
v -70 -1518 0
v -70 -1448 0
v 0 -1448 0
v -69 -1518 0
v -139 -1518 0
v -139 -1448 0
v -69 -1448 0
v -138 -1518 0
v -208 -1518 0
v -208 -1448 0
v -138 -1448 0
v -828 -1518 0
v -898 -1518 0
v -898 -1448 0
v -828 -1448 0
v -897 -1518 0
v -967 -1518 0
v -967 -1448 0
v -897 -1448 0
v -966 -1518 0
v -1036 -1518 0
v -1036 -1448 0
v -966 -1448 0
v -1035 -1518 0
v -1105 -1518 0
v -1105 -1448 0
v -1035 -1448 0
v -1794 -1518 0
v -1864 -1518 0
v -1864 -1448 0
v -1794 -1448 0
v -1863 -1518 0
v -1933 -1518 0
v -1933 -1448 0
v -1863 -1448 0
v -1932 -1518 0
v -2002 -1518 0
v -2002 -1448 0
v -1932 -1448 0
v -2622 -1518 0
v -2692 -1518 0
v -2692 -1448 0
v -2622 -1448 0
v -2691 -1518 0
v -2761 -1518 0
v -2761 -1448 0
v -2691 -1448 0
v 0 -1587 0
v -70 -1587 0
v -70 -1517 0
v 0 -1517 0
v -69 -1587 0
v -139 -1587 0
v -139 -1517 0
v -69 -1517 0
v -138 -1587 0
v -208 -1587 0
v -208 -1517 0
v -138 -1517 0
v -828 -1587 0
v -898 -1587 0
v -898 -1517 0
v -828 -1517 0
v -897 -1587 0
v -967 -1587 0
v -967 -1517 0
v -897 -1517 0
v -966 -1587 0
v -1036 -1587 0
v -1036 -1517 0
v -966 -1517 0
v -1035 -1587 0
v -1105 -1587 0
v -1105 -1517 0
v -1035 -1517 0
v -1794 -1587 0
v -1864 -1587 0
v -1864 -1517 0
v -1794 -1517 0
v -1863 -1587 0
v -1933 -1587 0
v -1933 -1517 0
v -1863 -1517 0
v -1932 -1587 0
v -2002 -1587 0
v -2002 -1517 0
v -1932 -1517 0
v -2622 -1587 0
v -2692 -1587 0
v -2692 -1517 0
v -2622 -1517 0
v -2691 -1587 0
v -2761 -1587 0
v -2761 -1517 0
v -2691 -1517 0
v 0 -1656 0
v -70 -1656 0
v -70 -1586 0
v 0 -1586 0
v -69 -1656 0
v -139 -1656 0
v -139 -1586 0
v -69 -1586 0
v -138 -1656 0
v -208 -1656 0
v -208 -1586 0
v -138 -1586 0
v -828 -1656 0
v -898 -1656 0
v -898 -1586 0
v -828 -1586 0
v -897 -1656 0
v -967 -1656 0
v -967 -1586 0
v -897 -1586 0
v -966 -1656 0
v -1036 -1656 0
v -1036 -1586 0
v -966 -1586 0
v -1035 -1656 0
v -1105 -1656 0
v -1105 -1586 0
v -1035 -1586 0
v -1794 -1656 0
v -1864 -1656 0
v -1864 -1586 0
v -1794 -1586 0
v -1863 -1656 0
v -1933 -1656 0
v -1933 -1586 0
v -1863 -1586 0
v -1932 -1656 0
v -2002 -1656 0
v -2002 -1586 0
v -1932 -1586 0
v -2622 -1656 0
v -2692 -1656 0
v -2692 -1586 0
v -2622 -1586 0
v -2691 -1656 0
v -2761 -1656 0
v -2761 -1586 0
v -2691 -1586 0
v 0 -1725 0
v -70 -1725 0
v -70 -1655 0
v 0 -1655 0
v -69 -1725 0
v -139 -1725 0
v -139 -1655 0
v -69 -1655 0
v -138 -1725 0
v -208 -1725 0
v -208 -1655 0
v -138 -1655 0
v -828 -1725 0
v -898 -1725 0
v -898 -1655 0
v -828 -1655 0
v -897 -1725 0
v -967 -1725 0
v -967 -1655 0
v -897 -1655 0
v -966 -1725 0
v -1036 -1725 0
v -1036 -1655 0
v -966 -1655 0
v -1035 -1725 0
v -1105 -1725 0
v -1105 -1655 0
v -1035 -1655 0
v -1794 -1725 0
v -1864 -1725 0
v -1864 -1655 0
v -1794 -1655 0
v -1863 -1725 0
v -1933 -1725 0
v -1933 -1655 0
v -1863 -1655 0
v -1932 -1725 0
v -2002 -1725 0
v -2002 -1655 0
v -1932 -1655 0
v -2622 -1725 0
v -2692 -1725 0
v -2692 -1655 0
v -2622 -1655 0
v -2691 -1725 0
v -2761 -1725 0
v -2761 -1655 0
v -2691 -1655 0
v 0 -1794 0
v -70 -1794 0
v -70 -1724 0
v 0 -1724 0
v -69 -1794 0
v -139 -1794 0
v -139 -1724 0
v -69 -1724 0
v -138 -1794 0
v -208 -1794 0
v -208 -1724 0
v -138 -1724 0
v -828 -1794 0
v -898 -1794 0
v -898 -1724 0
v -828 -1724 0
v -897 -1794 0
v -967 -1794 0
v -967 -1724 0
v -897 -1724 0
v -966 -1794 0
v -1036 -1794 0
v -1036 -1724 0
v -966 -1724 0
v -1035 -1794 0
v -1105 -1794 0
v -1105 -1724 0
v -1035 -1724 0
v -1794 -1794 0
v -1864 -1794 0
v -1864 -1724 0
v -1794 -1724 0
v -1863 -1794 0
v -1933 -1794 0
v -1933 -1724 0
v -1863 -1724 0
v -1932 -1794 0
v -2002 -1794 0
v -2002 -1724 0
v -1932 -1724 0
v -2622 -1794 0
v -2692 -1794 0
v -2692 -1724 0
v -2622 -1724 0
v -2691 -1794 0
v -2761 -1794 0
v -2761 -1724 0
v -2691 -1724 0
v 0 -1863 0
v -70 -1863 0
v -70 -1793 0
v 0 -1793 0
v -69 -1863 0
v -139 -1863 0
v -139 -1793 0
v -69 -1793 0
v -138 -1863 0
v -208 -1863 0
v -208 -1793 0
v -138 -1793 0
v -828 -1863 0
v -898 -1863 0
v -898 -1793 0
v -828 -1793 0
v -897 -1863 0
v -967 -1863 0
v -967 -1793 0
v -897 -1793 0
v -966 -1863 0
v -1036 -1863 0
v -1036 -1793 0
v -966 -1793 0
v -1035 -1863 0
v -1105 -1863 0
v -1105 -1793 0
v -1035 -1793 0
v -1794 -1863 0
v -1864 -1863 0
v -1864 -1793 0
v -1794 -1793 0
v -1863 -1863 0
v -1933 -1863 0
v -1933 -1793 0
v -1863 -1793 0
v -1932 -1863 0
v -2002 -1863 0
v -2002 -1793 0
v -1932 -1793 0
v -2622 -1863 0
v -2692 -1863 0
v -2692 -1793 0
v -2622 -1793 0
v -2691 -1863 0
v -2761 -1863 0
v -2761 -1793 0
v -2691 -1793 0
v 0 -1932 0
v -70 -1932 0
v -70 -1862 0
v 0 -1862 0
v -69 -1932 0
v -139 -1932 0
v -139 -1862 0
v -69 -1862 0
v -138 -1932 0
v -208 -1932 0
v -208 -1862 0
v -138 -1862 0
v -828 -1932 0
v -898 -1932 0
v -898 -1862 0
v -828 -1862 0
v -897 -1932 0
v -967 -1932 0
v -967 -1862 0
v -897 -1862 0
v -966 -1932 0
v -1036 -1932 0
v -1036 -1862 0
v -966 -1862 0
v -1035 -1932 0
v -1105 -1932 0
v -1105 -1862 0
v -1035 -1862 0
v -1794 -1932 0
v -1864 -1932 0
v -1864 -1862 0
v -1794 -1862 0
v -1863 -1932 0
v -1933 -1932 0
v -1933 -1862 0
v -1863 -1862 0
v -1932 -1932 0
v -2002 -1932 0
v -2002 -1862 0
v -1932 -1862 0
v -2622 -1932 0
v -2692 -1932 0
v -2692 -1862 0
v -2622 -1862 0
v -2691 -1932 0
v -2761 -1932 0
v -2761 -1862 0
v -2691 -1862 0
v 0 -2001 0
v -70 -2001 0
v -70 -1931 0
v 0 -1931 0
v -69 -2001 0
v -139 -2001 0
v -139 -1931 0
v -69 -1931 0
v -138 -2001 0
v -208 -2001 0
v -208 -1931 0
v -138 -1931 0
v -828 -2001 0
v -898 -2001 0
v -898 -1931 0
v -828 -1931 0
v -897 -2001 0
v -967 -2001 0
v -967 -1931 0
v -897 -1931 0
v -966 -2001 0
v -1036 -2001 0
v -1036 -1931 0
v -966 -1931 0
v -1035 -2001 0
v -1105 -2001 0
v -1105 -1931 0
v -1035 -1931 0
v -1794 -2001 0
v -1864 -2001 0
v -1864 -1931 0
v -1794 -1931 0
v -1863 -2001 0
v -1933 -2001 0
v -1933 -1931 0
v -1863 -1931 0
v -1932 -2001 0
v -2002 -2001 0
v -2002 -1931 0
v -1932 -1931 0
v -2622 -2001 0
v -2692 -2001 0
v -2692 -1931 0
v -2622 -1931 0
v -2691 -2001 0
v -2761 -2001 0
v -2761 -1931 0
v -2691 -1931 0
v 0 -2070 0
v -70 -2070 0
v -70 -2000 0
v 0 -2000 0
v -69 -2070 0
v -139 -2070 0
v -139 -2000 0
v -69 -2000 0
v -138 -2070 0
v -208 -2070 0
v -208 -2000 0
v -138 -2000 0
v -828 -2070 0
v -898 -2070 0
v -898 -2000 0
v -828 -2000 0
v -897 -2070 0
v -967 -2070 0
v -967 -2000 0
v -897 -2000 0
v -966 -2070 0
v -1036 -2070 0
v -1036 -2000 0
v -966 -2000 0
v -1035 -2070 0
v -1105 -2070 0
v -1105 -2000 0
v -1035 -2000 0
v -1794 -2070 0
v -1864 -2070 0
v -1864 -2000 0
v -1794 -2000 0
v -1863 -2070 0
v -1933 -2070 0
v -1933 -2000 0
v -1863 -2000 0
v -1932 -2070 0
v -2002 -2070 0
v -2002 -2000 0
v -1932 -2000 0
v -2622 -2070 0
v -2692 -2070 0
v -2692 -2000 0
v -2622 -2000 0
v -2691 -2070 0
v -2761 -2070 0
v -2761 -2000 0
v -2691 -2000 0

# Texture cooridinates (Count = 28)
vt 0.546875 0.453125
vt 0.6835938 0.453125
vt 0.6835938 0.5898438
vt 0.546875 0.5898438
vt 0.6835938 0.7265625
vt 0.546875 0.7265625
vt 0.2734375 0.453125
vt 0.4101563 0.453125
vt 0.4101563 0.5898438
vt 0.2734375 0.5898438
vt 0.2734375 0.3164063
vt 0.4101563 0.3164063
vt 0.1367188 0.453125
vt 0.1367188 0.5898438
vt 0.1367188 0.04296875
vt 0.2734375 0.04296875
vt 0.2734375 0.1796875
vt 0.1367188 0.1796875
vt 0.2734375 0.8632813
vt 0.4101563 0.8632813
vt 0.4101563 1
vt 0.2734375 1
vt 0.546875 0.04296875
vt 0.6835938 0.04296875
vt 0.6835938 0.1796875
vt 0.546875 0.1796875
vt 0.4101563 0.7265625
vt 0.2734375 0.7265625

# Normal
vn 0 0 -1

# Mesh description
g CreamLevel5_mesh_0001

# Faces
f 1/1/1 2/2/1 3/3/1 4/4/1
f 5/4/1 6/3/1 7/5/1 8/6/1
f 9/7/1 10/8/1 11/9/1 12/10/1
f 13/11/1 14/12/1 15/8/1 16/7/1
f 17/4/1 18/3/1 19/5/1 20/6/1
f 21/13/1 22/7/1 23/10/1 24/14/1
f 25/13/1 26/7/1 27/10/1 28/14/1
f 29/15/1 30/16/1 31/17/1 32/18/1
f 33/11/1 34/12/1 35/8/1 36/7/1
f 37/4/1 38/3/1 39/5/1 40/6/1
f 41/4/1 42/3/1 43/5/1 44/6/1
f 45/7/1 46/8/1 47/9/1 48/10/1
f 49/11/1 50/12/1 51/8/1 52/7/1
f 53/4/1 54/3/1 55/5/1 56/6/1
f 57/7/1 58/8/1 59/9/1 60/10/1
f 61/19/1 62/20/1 63/21/1 64/22/1
f 65/13/1 66/7/1 67/10/1 68/14/1
f 69/13/1 70/7/1 71/10/1 72/14/1
f 73/13/1 74/7/1 75/10/1 76/14/1
f 77/15/1 78/16/1 79/17/1 80/18/1
f 81/19/1 82/20/1 83/21/1 84/22/1
f 85/13/1 86/7/1 87/10/1 88/14/1
f 89/13/1 90/7/1 91/10/1 92/14/1
f 93/15/1 94/16/1 95/17/1 96/18/1
f 97/19/1 98/20/1 99/21/1 100/22/1
f 101/13/1 102/7/1 103/10/1 104/14/1
f 105/15/1 106/16/1 107/17/1 108/18/1
f 109/19/1 110/20/1 111/21/1 112/22/1
f 113/13/1 114/7/1 115/10/1 116/14/1
f 117/13/1 118/7/1 119/10/1 120/14/1
f 121/13/1 122/7/1 123/10/1 124/14/1
f 125/15/1 126/16/1 127/17/1 128/18/1
f 129/19/1 130/20/1 131/21/1 132/22/1
f 133/13/1 134/7/1 135/10/1 136/14/1
f 137/13/1 138/7/1 139/10/1 140/14/1
f 141/15/1 142/16/1 143/17/1 144/18/1
f 145/19/1 146/20/1 147/21/1 148/22/1
f 149/13/1 150/7/1 151/10/1 152/14/1
f 153/15/1 154/16/1 155/17/1 156/18/1
f 157/19/1 158/20/1 159/21/1 160/22/1
f 161/13/1 162/7/1 163/10/1 164/14/1
f 165/13/1 166/7/1 167/10/1 168/14/1
f 169/13/1 170/7/1 171/10/1 172/14/1
f 173/15/1 174/16/1 175/17/1 176/18/1
f 177/23/1 178/24/1 179/25/1 180/26/1
f 181/23/1 182/24/1 183/25/1 184/26/1
f 185/23/1 186/24/1 187/25/1 188/26/1
f 189/23/1 190/24/1 191/25/1 192/26/1
f 193/23/1 194/24/1 195/25/1 196/26/1
f 197/23/1 198/24/1 199/25/1 200/26/1
f 201/23/1 202/24/1 203/25/1 204/26/1
f 205/23/1 206/24/1 207/25/1 208/26/1
f 209/23/1 210/24/1 211/25/1 212/26/1
f 213/10/1 214/9/1 215/27/1 216/28/1
f 217/13/1 218/7/1 219/10/1 220/14/1
f 221/13/1 222/7/1 223/10/1 224/14/1
f 225/15/1 226/16/1 227/17/1 228/18/1
f 229/23/1 230/24/1 231/25/1 232/26/1
f 233/23/1 234/24/1 235/25/1 236/26/1
f 237/23/1 238/24/1 239/25/1 240/26/1
f 241/23/1 242/24/1 243/25/1 244/26/1
f 245/23/1 246/24/1 247/25/1 248/26/1
f 249/23/1 250/24/1 251/25/1 252/26/1
f 253/23/1 254/24/1 255/25/1 256/26/1
f 257/23/1 258/24/1 259/25/1 260/26/1
f 261/23/1 262/24/1 263/25/1 264/26/1
f 265/23/1 266/24/1 267/25/1 268/26/1
f 269/10/1 270/9/1 271/27/1 272/28/1
f 273/13/1 274/7/1 275/10/1 276/14/1
f 277/15/1 278/16/1 279/17/1 280/18/1
f 281/23/1 282/24/1 283/25/1 284/26/1
f 285/23/1 286/24/1 287/25/1 288/26/1
f 289/23/1 290/24/1 291/25/1 292/26/1
f 293/23/1 294/24/1 295/25/1 296/26/1
f 297/23/1 298/24/1 299/25/1 300/26/1
f 301/23/1 302/24/1 303/25/1 304/26/1
f 305/23/1 306/24/1 307/25/1 308/26/1
f 309/23/1 310/24/1 311/25/1 312/26/1
f 313/23/1 314/24/1 315/25/1 316/26/1
f 317/19/1 318/20/1 319/21/1 320/22/1
f 321/13/1 322/7/1 323/10/1 324/14/1
f 325/13/1 326/7/1 327/10/1 328/14/1
f 329/13/1 330/7/1 331/10/1 332/14/1
f 333/15/1 334/16/1 335/17/1 336/18/1
f 337/19/1 338/20/1 339/21/1 340/22/1
f 341/13/1 342/7/1 343/10/1 344/14/1
f 345/13/1 346/7/1 347/10/1 348/14/1
f 349/15/1 350/16/1 351/17/1 352/18/1
f 353/19/1 354/20/1 355/21/1 356/22/1
f 357/13/1 358/7/1 359/10/1 360/14/1
f 361/15/1 362/16/1 363/17/1 364/18/1
f 365/19/1 366/20/1 367/21/1 368/22/1
f 369/13/1 370/7/1 371/10/1 372/14/1
f 373/13/1 374/7/1 375/10/1 376/14/1
f 377/13/1 378/7/1 379/10/1 380/14/1
f 381/15/1 382/16/1 383/17/1 384/18/1
f 385/19/1 386/20/1 387/21/1 388/22/1
f 389/13/1 390/7/1 391/10/1 392/14/1
f 393/13/1 394/7/1 395/10/1 396/14/1
f 397/15/1 398/16/1 399/17/1 400/18/1
f 401/19/1 402/20/1 403/21/1 404/22/1
f 405/13/1 406/7/1 407/10/1 408/14/1
f 409/15/1 410/16/1 411/17/1 412/18/1
f 413/19/1 414/20/1 415/21/1 416/22/1
f 417/13/1 418/7/1 419/10/1 420/14/1
f 421/13/1 422/7/1 423/10/1 424/14/1
f 425/13/1 426/7/1 427/10/1 428/14/1
f 429/15/1 430/16/1 431/17/1 432/18/1
f 433/19/1 434/20/1 435/21/1 436/22/1
f 437/13/1 438/7/1 439/10/1 440/14/1
f 441/13/1 442/7/1 443/10/1 444/14/1
f 445/15/1 446/16/1 447/17/1 448/18/1
f 449/19/1 450/20/1 451/21/1 452/22/1
f 453/13/1 454/7/1 455/10/1 456/14/1
f 457/15/1 458/16/1 459/17/1 460/18/1
f 461/19/1 462/20/1 463/21/1 464/22/1
f 465/13/1 466/7/1 467/10/1 468/14/1
f 469/13/1 470/7/1 471/10/1 472/14/1
f 473/13/1 474/7/1 475/10/1 476/14/1
f 477/15/1 478/16/1 479/17/1 480/18/1
f 481/19/1 482/20/1 483/21/1 484/22/1
f 485/13/1 486/7/1 487/10/1 488/14/1
f 489/13/1 490/7/1 491/10/1 492/14/1
f 493/15/1 494/16/1 495/17/1 496/18/1
f 497/19/1 498/20/1 499/21/1 500/22/1
f 501/13/1 502/7/1 503/10/1 504/14/1
f 505/15/1 506/16/1 507/17/1 508/18/1
f 509/19/1 510/20/1 511/21/1 512/22/1
f 513/13/1 514/7/1 515/10/1 516/14/1
f 517/13/1 518/7/1 519/10/1 520/14/1
f 521/13/1 522/7/1 523/10/1 524/14/1
f 525/15/1 526/16/1 527/17/1 528/18/1
f 529/19/1 530/20/1 531/21/1 532/22/1
f 533/13/1 534/7/1 535/10/1 536/14/1
f 537/13/1 538/7/1 539/10/1 540/14/1
f 541/15/1 542/16/1 543/17/1 544/18/1
f 545/19/1 546/20/1 547/21/1 548/22/1
f 549/13/1 550/7/1 551/10/1 552/14/1
f 553/15/1 554/16/1 555/17/1 556/18/1
f 557/19/1 558/20/1 559/21/1 560/22/1
f 561/13/1 562/7/1 563/10/1 564/14/1
f 565/13/1 566/7/1 567/10/1 568/14/1
f 569/13/1 570/7/1 571/10/1 572/14/1
f 573/15/1 574/16/1 575/17/1 576/18/1
f 577/19/1 578/20/1 579/21/1 580/22/1
f 581/13/1 582/7/1 583/10/1 584/14/1
f 585/13/1 586/7/1 587/10/1 588/14/1
f 589/15/1 590/16/1 591/17/1 592/18/1
f 593/19/1 594/20/1 595/21/1 596/22/1
f 597/13/1 598/7/1 599/10/1 600/14/1
f 601/15/1 602/16/1 603/17/1 604/18/1
f 605/19/1 606/20/1 607/21/1 608/22/1
f 609/13/1 610/7/1 611/10/1 612/14/1
f 613/13/1 614/7/1 615/10/1 616/14/1
f 617/13/1 618/7/1 619/10/1 620/14/1
f 621/15/1 622/16/1 623/17/1 624/18/1
f 625/19/1 626/20/1 627/21/1 628/22/1
f 629/13/1 630/7/1 631/10/1 632/14/1
f 633/13/1 634/7/1 635/10/1 636/14/1
f 637/15/1 638/16/1 639/17/1 640/18/1
f 641/19/1 642/20/1 643/21/1 644/22/1
f 645/13/1 646/7/1 647/10/1 648/14/1
f 649/15/1 650/16/1 651/17/1 652/18/1
f 653/19/1 654/20/1 655/21/1 656/22/1
f 657/13/1 658/7/1 659/10/1 660/14/1
f 661/13/1 662/7/1 663/10/1 664/14/1
f 665/13/1 666/7/1 667/10/1 668/14/1
f 669/15/1 670/16/1 671/17/1 672/18/1
f 673/19/1 674/20/1 675/21/1 676/22/1
f 677/13/1 678/7/1 679/10/1 680/14/1
f 681/13/1 682/7/1 683/10/1 684/14/1
f 685/15/1 686/16/1 687/17/1 688/18/1
f 689/19/1 690/20/1 691/21/1 692/22/1
f 693/13/1 694/7/1 695/10/1 696/14/1
f 697/15/1 698/16/1 699/17/1 700/18/1
f 701/19/1 702/20/1 703/21/1 704/22/1
f 705/13/1 706/7/1 707/10/1 708/14/1
f 709/13/1 710/7/1 711/10/1 712/14/1
f 713/13/1 714/7/1 715/10/1 716/14/1
f 717/15/1 718/16/1 719/17/1 720/18/1
f 721/19/1 722/20/1 723/21/1 724/22/1
f 725/13/1 726/7/1 727/10/1 728/14/1
f 729/13/1 730/7/1 731/10/1 732/14/1
f 733/15/1 734/16/1 735/17/1 736/18/1
f 737/19/1 738/20/1 739/21/1 740/22/1
f 741/13/1 742/7/1 743/10/1 744/14/1
f 745/15/1 746/16/1 747/17/1 748/18/1
f 749/19/1 750/20/1 751/21/1 752/22/1
f 753/13/1 754/7/1 755/10/1 756/14/1
f 757/13/1 758/7/1 759/10/1 760/14/1
f 761/13/1 762/7/1 763/10/1 764/14/1
f 765/15/1 766/16/1 767/17/1 768/18/1
f 769/19/1 770/20/1 771/21/1 772/22/1
f 773/13/1 774/7/1 775/10/1 776/14/1
f 777/13/1 778/7/1 779/10/1 780/14/1
f 781/15/1 782/16/1 783/17/1 784/18/1
f 785/19/1 786/20/1 787/21/1 788/22/1
f 789/13/1 790/7/1 791/10/1 792/14/1
f 793/15/1 794/16/1 795/17/1 796/18/1
f 797/19/1 798/20/1 799/21/1 800/22/1
f 801/13/1 802/7/1 803/10/1 804/14/1
f 805/13/1 806/7/1 807/10/1 808/14/1
f 809/13/1 810/7/1 811/10/1 812/14/1
f 813/15/1 814/16/1 815/17/1 816/18/1
f 817/19/1 818/20/1 819/21/1 820/22/1
f 821/13/1 822/7/1 823/10/1 824/14/1
f 825/13/1 826/7/1 827/10/1 828/14/1
f 829/15/1 830/16/1 831/17/1 832/18/1
f 833/19/1 834/20/1 835/21/1 836/22/1
f 837/13/1 838/7/1 839/10/1 840/14/1
f 841/15/1 842/16/1 843/17/1 844/18/1
f 845/19/1 846/20/1 847/21/1 848/22/1
f 849/13/1 850/7/1 851/10/1 852/14/1

