# Tiled2Unity generated file. Do not modify by hand.
# Wavefront file for 'level01_mesh_0002.obj'

# Vertices (Count = 656)
v -1680 -2450 0
v -1750 -2450 0
v -1750 -2380 0
v -1680 -2380 0
v -1750 -2450 0
v -1820 -2450 0
v -1820 -2380 0
v -1750 -2380 0
v -1820 -2450 0
v -1890 -2450 0
v -1890 -2380 0
v -1820 -2380 0
v -1890 -2450 0
v -1960 -2450 0
v -1960 -2380 0
v -1890 -2380 0
v -1960 -2450 0
v -2030 -2450 0
v -2030 -2380 0
v -1960 -2380 0
v -2030 -2450 0
v -2100 -2450 0
v -2100 -2380 0
v -2030 -2380 0
v -2100 -2450 0
v -2170 -2450 0
v -2170 -2380 0
v -2100 -2380 0
v -140 -2520 0
v -210 -2520 0
v -210 -2450 0
v -140 -2450 0
v -210 -2520 0
v -280 -2520 0
v -280 -2450 0
v -210 -2450 0
v -280 -2520 0
v -350 -2520 0
v -350 -2450 0
v -280 -2450 0
v -350 -2520 0
v -420 -2520 0
v -420 -2450 0
v -350 -2450 0
v -420 -2520 0
v -490 -2520 0
v -490 -2450 0
v -420 -2450 0
v -490 -2520 0
v -560 -2520 0
v -560 -2450 0
v -490 -2450 0
v -560 -2520 0
v -630 -2520 0
v -630 -2450 0
v -560 -2450 0
v -1680 -2520 0
v -1750 -2520 0
v -1750 -2450 0
v -1680 -2450 0
v -1750 -2520 0
v -1820 -2520 0
v -1820 -2450 0
v -1750 -2450 0
v -1820 -2520 0
v -1890 -2520 0
v -1890 -2450 0
v -1820 -2450 0
v -1890 -2520 0
v -1960 -2520 0
v -1960 -2450 0
v -1890 -2450 0
v -1960 -2520 0
v -2030 -2520 0
v -2030 -2450 0
v -1960 -2450 0
v -2030 -2520 0
v -2100 -2520 0
v -2100 -2450 0
v -2030 -2450 0
v -2100 -2520 0
v -2170 -2520 0
v -2170 -2450 0
v -2100 -2450 0
v -140 -2590 0
v -210 -2590 0
v -210 -2520 0
v -140 -2520 0
v -210 -2590 0
v -280 -2590 0
v -280 -2520 0
v -210 -2520 0
v -280 -2590 0
v -350 -2590 0
v -350 -2520 0
v -280 -2520 0
v -350 -2590 0
v -420 -2590 0
v -420 -2520 0
v -350 -2520 0
v -420 -2590 0
v -490 -2590 0
v -490 -2520 0
v -420 -2520 0
v -490 -2590 0
v -560 -2590 0
v -560 -2520 0
v -490 -2520 0
v -560 -2590 0
v -630 -2590 0
v -630 -2520 0
v -560 -2520 0
v -1680 -2590 0
v -1750 -2590 0
v -1750 -2520 0
v -1680 -2520 0
v -1750 -2590 0
v -1820 -2590 0
v -1820 -2520 0
v -1750 -2520 0
v -1820 -2590 0
v -1890 -2590 0
v -1890 -2520 0
v -1820 -2520 0
v -1890 -2590 0
v -1960 -2590 0
v -1960 -2520 0
v -1890 -2520 0
v -1960 -2590 0
v -2030 -2590 0
v -2030 -2520 0
v -1960 -2520 0
v -2030 -2590 0
v -2100 -2590 0
v -2100 -2520 0
v -2030 -2520 0
v -2100 -2590 0
v -2170 -2590 0
v -2170 -2520 0
v -2100 -2520 0
v -140 -2660 0
v -210 -2660 0
v -210 -2590 0
v -140 -2590 0
v -210 -2660 0
v -280 -2660 0
v -280 -2590 0
v -210 -2590 0
v -280 -2660 0
v -350 -2660 0
v -350 -2590 0
v -280 -2590 0
v -350 -2660 0
v -420 -2660 0
v -420 -2590 0
v -350 -2590 0
v -420 -2660 0
v -490 -2660 0
v -490 -2590 0
v -420 -2590 0
v -490 -2660 0
v -560 -2660 0
v -560 -2590 0
v -490 -2590 0
v -560 -2660 0
v -630 -2660 0
v -630 -2590 0
v -560 -2590 0
v -1680 -2660 0
v -1750 -2660 0
v -1750 -2590 0
v -1680 -2590 0
v -1750 -2660 0
v -1820 -2660 0
v -1820 -2590 0
v -1750 -2590 0
v -1820 -2660 0
v -1890 -2660 0
v -1890 -2590 0
v -1820 -2590 0
v -1890 -2660 0
v -1960 -2660 0
v -1960 -2590 0
v -1890 -2590 0
v -1960 -2660 0
v -2030 -2660 0
v -2030 -2590 0
v -1960 -2590 0
v -2030 -2660 0
v -2100 -2660 0
v -2100 -2590 0
v -2030 -2590 0
v -2100 -2660 0
v -2170 -2660 0
v -2170 -2590 0
v -2100 -2590 0
v -140 -2730 0
v -210 -2730 0
v -210 -2660 0
v -140 -2660 0
v -210 -2730 0
v -280 -2730 0
v -280 -2660 0
v -210 -2660 0
v -280 -2730 0
v -350 -2730 0
v -350 -2660 0
v -280 -2660 0
v -350 -2730 0
v -420 -2730 0
v -420 -2660 0
v -350 -2660 0
v -420 -2730 0
v -490 -2730 0
v -490 -2660 0
v -420 -2660 0
v -490 -2730 0
v -560 -2730 0
v -560 -2660 0
v -490 -2660 0
v -560 -2730 0
v -630 -2730 0
v -630 -2660 0
v -560 -2660 0
v -630 -2730 0
v -700 -2730 0
v -700 -2660 0
v -630 -2660 0
v -700 -2730 0
v -770 -2730 0
v -770 -2660 0
v -700 -2660 0
v -770 -2730 0
v -840 -2730 0
v -840 -2660 0
v -770 -2660 0
v -840 -2730 0
v -910 -2730 0
v -910 -2660 0
v -840 -2660 0
v -910 -2730 0
v -980 -2730 0
v -980 -2660 0
v -910 -2660 0
v -1680 -2730 0
v -1750 -2730 0
v -1750 -2660 0
v -1680 -2660 0
v -1750 -2730 0
v -1820 -2730 0
v -1820 -2660 0
v -1750 -2660 0
v -1820 -2730 0
v -1890 -2730 0
v -1890 -2660 0
v -1820 -2660 0
v -1890 -2730 0
v -1960 -2730 0
v -1960 -2660 0
v -1890 -2660 0
v -1960 -2730 0
v -2030 -2730 0
v -2030 -2660 0
v -1960 -2660 0
v -2030 -2730 0
v -2100 -2730 0
v -2100 -2660 0
v -2030 -2660 0
v -2100 -2730 0
v -2170 -2730 0
v -2170 -2660 0
v -2100 -2660 0
v -140 -2800 0
v -210 -2800 0
v -210 -2730 0
v -140 -2730 0
v -210 -2800 0
v -280 -2800 0
v -280 -2730 0
v -210 -2730 0
v -280 -2800 0
v -350 -2800 0
v -350 -2730 0
v -280 -2730 0
v -350 -2800 0
v -420 -2800 0
v -420 -2730 0
v -350 -2730 0
v -420 -2800 0
v -490 -2800 0
v -490 -2730 0
v -420 -2730 0
v -490 -2800 0
v -560 -2800 0
v -560 -2730 0
v -490 -2730 0
v -560 -2800 0
v -630 -2800 0
v -630 -2730 0
v -560 -2730 0
v -630 -2800 0
v -700 -2800 0
v -700 -2730 0
v -630 -2730 0
v -700 -2800 0
v -770 -2800 0
v -770 -2730 0
v -700 -2730 0
v -770 -2800 0
v -840 -2800 0
v -840 -2730 0
v -770 -2730 0
v -840 -2800 0
v -910 -2800 0
v -910 -2730 0
v -840 -2730 0
v -910 -2800 0
v -980 -2800 0
v -980 -2730 0
v -910 -2730 0
v -1680 -2800 0
v -1750 -2800 0
v -1750 -2730 0
v -1680 -2730 0
v -1750 -2800 0
v -1820 -2800 0
v -1820 -2730 0
v -1750 -2730 0
v -1820 -2800 0
v -1890 -2800 0
v -1890 -2730 0
v -1820 -2730 0
v -1890 -2800 0
v -1960 -2800 0
v -1960 -2730 0
v -1890 -2730 0
v -1960 -2800 0
v -2030 -2800 0
v -2030 -2730 0
v -1960 -2730 0
v -2030 -2800 0
v -2100 -2800 0
v -2100 -2730 0
v -2030 -2730 0
v -2100 -2800 0
v -2170 -2800 0
v -2170 -2730 0
v -2100 -2730 0
v -140 -2870 0
v -210 -2870 0
v -210 -2800 0
v -140 -2800 0
v -210 -2870 0
v -280 -2870 0
v -280 -2800 0
v -210 -2800 0
v -280 -2870 0
v -350 -2870 0
v -350 -2800 0
v -280 -2800 0
v -350 -2870 0
v -420 -2870 0
v -420 -2800 0
v -350 -2800 0
v -420 -2870 0
v -490 -2870 0
v -490 -2800 0
v -420 -2800 0
v -490 -2870 0
v -560 -2870 0
v -560 -2800 0
v -490 -2800 0
v -560 -2870 0
v -630 -2870 0
v -630 -2800 0
v -560 -2800 0
v -630 -2870 0
v -700 -2870 0
v -700 -2800 0
v -630 -2800 0
v -700 -2870 0
v -770 -2870 0
v -770 -2800 0
v -700 -2800 0
v -770 -2870 0
v -840 -2870 0
v -840 -2800 0
v -770 -2800 0
v -840 -2870 0
v -910 -2870 0
v -910 -2800 0
v -840 -2800 0
v -910 -2870 0
v -980 -2870 0
v -980 -2800 0
v -910 -2800 0
v -1680 -2870 0
v -1750 -2870 0
v -1750 -2800 0
v -1680 -2800 0
v -1750 -2870 0
v -1820 -2870 0
v -1820 -2800 0
v -1750 -2800 0
v -1820 -2870 0
v -1890 -2870 0
v -1890 -2800 0
v -1820 -2800 0
v -1890 -2870 0
v -1960 -2870 0
v -1960 -2800 0
v -1890 -2800 0
v -1960 -2870 0
v -2030 -2870 0
v -2030 -2800 0
v -1960 -2800 0
v -2030 -2870 0
v -2100 -2870 0
v -2100 -2800 0
v -2030 -2800 0
v -2100 -2870 0
v -2170 -2870 0
v -2170 -2800 0
v -2100 -2800 0
v -140 -2940 0
v -210 -2940 0
v -210 -2870 0
v -140 -2870 0
v -210 -2940 0
v -280 -2940 0
v -280 -2870 0
v -210 -2870 0
v -280 -2940 0
v -350 -2940 0
v -350 -2870 0
v -280 -2870 0
v -350 -2940 0
v -420 -2940 0
v -420 -2870 0
v -350 -2870 0
v -420 -2940 0
v -490 -2940 0
v -490 -2870 0
v -420 -2870 0
v -490 -2940 0
v -560 -2940 0
v -560 -2870 0
v -490 -2870 0
v -560 -2940 0
v -630 -2940 0
v -630 -2870 0
v -560 -2870 0
v -630 -2940 0
v -700 -2940 0
v -700 -2870 0
v -630 -2870 0
v -700 -2940 0
v -770 -2940 0
v -770 -2870 0
v -700 -2870 0
v -770 -2940 0
v -840 -2940 0
v -840 -2870 0
v -770 -2870 0
v -840 -2940 0
v -910 -2940 0
v -910 -2870 0
v -840 -2870 0
v -910 -2940 0
v -980 -2940 0
v -980 -2870 0
v -910 -2870 0
v -980 -2940 0
v -1050 -2940 0
v -1050 -2870 0
v -980 -2870 0
v -1050 -2940 0
v -1120 -2940 0
v -1120 -2870 0
v -1050 -2870 0
v -1120 -2940 0
v -1190 -2940 0
v -1190 -2870 0
v -1120 -2870 0
v -1190 -2940 0
v -1260 -2940 0
v -1260 -2870 0
v -1190 -2870 0
v -1260 -2940 0
v -1330 -2940 0
v -1330 -2870 0
v -1260 -2870 0
v -1330 -2940 0
v -1400 -2940 0
v -1400 -2870 0
v -1330 -2870 0
v -1400 -2940 0
v -1470 -2940 0
v -1470 -2870 0
v -1400 -2870 0
v -1470 -2940 0
v -1540 -2940 0
v -1540 -2870 0
v -1470 -2870 0
v -1540 -2940 0
v -1610 -2940 0
v -1610 -2870 0
v -1540 -2870 0
v -1610 -2940 0
v -1680 -2940 0
v -1680 -2870 0
v -1610 -2870 0
v -1680 -2940 0
v -1750 -2940 0
v -1750 -2870 0
v -1680 -2870 0
v -1750 -2940 0
v -1820 -2940 0
v -1820 -2870 0
v -1750 -2870 0
v -1820 -2940 0
v -1890 -2940 0
v -1890 -2870 0
v -1820 -2870 0
v -1890 -2940 0
v -1960 -2940 0
v -1960 -2870 0
v -1890 -2870 0
v -1960 -2940 0
v -2030 -2940 0
v -2030 -2870 0
v -1960 -2870 0
v -2030 -2940 0
v -2100 -2940 0
v -2100 -2870 0
v -2030 -2870 0
v -2100 -2940 0
v -2170 -2940 0
v -2170 -2870 0
v -2100 -2870 0
v -140 -3010 0
v -210 -3010 0
v -210 -2940 0
v -140 -2940 0
v -210 -3010 0
v -280 -3010 0
v -280 -2940 0
v -210 -2940 0
v -280 -3010 0
v -350 -3010 0
v -350 -2940 0
v -280 -2940 0
v -350 -3010 0
v -420 -3010 0
v -420 -2940 0
v -350 -2940 0
v -420 -3010 0
v -490 -3010 0
v -490 -2940 0
v -420 -2940 0
v -490 -3010 0
v -560 -3010 0
v -560 -2940 0
v -490 -2940 0
v -560 -3010 0
v -630 -3010 0
v -630 -2940 0
v -560 -2940 0
v -630 -3010 0
v -700 -3010 0
v -700 -2940 0
v -630 -2940 0
v -700 -3010 0
v -770 -3010 0
v -770 -2940 0
v -700 -2940 0
v -770 -3010 0
v -840 -3010 0
v -840 -2940 0
v -770 -2940 0
v -840 -3010 0
v -910 -3010 0
v -910 -2940 0
v -840 -2940 0
v -910 -3010 0
v -980 -3010 0
v -980 -2940 0
v -910 -2940 0
v -980 -3010 0
v -1050 -3010 0
v -1050 -2940 0
v -980 -2940 0
v -1050 -3010 0
v -1120 -3010 0
v -1120 -2940 0
v -1050 -2940 0
v -1120 -3010 0
v -1190 -3010 0
v -1190 -2940 0
v -1120 -2940 0
v -1190 -3010 0
v -1260 -3010 0
v -1260 -2940 0
v -1190 -2940 0
v -1260 -3010 0
v -1330 -3010 0
v -1330 -2940 0
v -1260 -2940 0
v -1330 -3010 0
v -1400 -3010 0
v -1400 -2940 0
v -1330 -2940 0
v -1400 -3010 0
v -1470 -3010 0
v -1470 -2940 0
v -1400 -2940 0
v -1470 -3010 0
v -1540 -3010 0
v -1540 -2940 0
v -1470 -2940 0
v -1540 -3010 0
v -1610 -3010 0
v -1610 -2940 0
v -1540 -2940 0
v -1610 -3010 0
v -1680 -3010 0
v -1680 -2940 0
v -1610 -2940 0
v -1680 -3010 0
v -1750 -3010 0
v -1750 -2940 0
v -1680 -2940 0
v -1750 -3010 0
v -1820 -3010 0
v -1820 -2940 0
v -1750 -2940 0
v -1820 -3010 0
v -1890 -3010 0
v -1890 -2940 0
v -1820 -2940 0
v -1890 -3010 0
v -1960 -3010 0
v -1960 -2940 0
v -1890 -2940 0
v -1960 -3010 0
v -2030 -3010 0
v -2030 -2940 0
v -1960 -2940 0
v -2030 -3010 0
v -2100 -3010 0
v -2100 -2940 0
v -2030 -2940 0
v -2100 -3010 0
v -2170 -3010 0
v -2170 -2940 0
v -2100 -2940 0

# Texture cooridinates (Count = 27)
vt 0.4101563 0.7265625
vt 0.546875 0.7265625
vt 0.546875 0.8632813
vt 0.4101563 0.8632813
vt 0.2734375 0.453125
vt 0.4101563 0.453125
vt 0.4101563 0.5898438
vt 0.2734375 0.5898438
vt 0.546875 1
vt 0.4101563 1
vt 0.2734375 0.3164063
vt 0.4101563 0.3164063
vt 0.2734375 0.8632813
vt 0.2734375 1
vt 0.6835938 0.8632813
vt 0.8203125 0.8632813
vt 0.8203125 1
vt 0.6835938 1
vt 0.1367188 0.7265625
vt 0.2734375 0.7265625
vt 0.1367188 0.8632813
vt 0.546875 0.3164063
vt 0.546875 0.453125
vt 0.546875 0.1796875
vt 0.6835938 0.1796875
vt 0.6835938 0.3164063
vt 0.6835938 0.453125

# Normal
vn 0 0 -1

# Mesh description
g level01_mesh_0002

# Faces
f 1/1/1 2/2/1 3/3/1 4/4/1
f 5/5/1 6/6/1 7/7/1 8/8/1
f 9/5/1 10/6/1 11/7/1 12/8/1
f 13/5/1 14/6/1 15/7/1 16/8/1
f 17/5/1 18/6/1 19/7/1 20/8/1
f 21/5/1 22/6/1 23/7/1 24/8/1
f 25/4/1 26/3/1 27/9/1 28/10/1
f 29/1/1 30/2/1 31/3/1 32/4/1
f 33/5/1 34/6/1 35/7/1 36/8/1
f 37/5/1 38/6/1 39/7/1 40/8/1
f 41/5/1 42/6/1 43/7/1 44/8/1
f 45/5/1 46/6/1 47/7/1 48/8/1
f 49/5/1 50/6/1 51/7/1 52/8/1
f 53/4/1 54/3/1 55/9/1 56/10/1
f 57/11/1 58/12/1 59/6/1 60/5/1
f 61/13/1 62/4/1 63/10/1 64/14/1
f 65/13/1 66/4/1 67/10/1 68/14/1
f 69/13/1 70/4/1 71/10/1 72/14/1
f 73/13/1 74/4/1 75/10/1 76/14/1
f 77/13/1 78/4/1 79/10/1 80/14/1
f 81/15/1 82/16/1 83/17/1 84/18/1
f 85/11/1 86/12/1 87/6/1 88/5/1
f 89/19/1 90/20/1 91/13/1 92/21/1
f 93/19/1 94/20/1 95/13/1 96/21/1
f 97/19/1 98/20/1 99/13/1 100/21/1
f 101/19/1 102/20/1 103/13/1 104/21/1
f 105/19/1 106/20/1 107/13/1 108/21/1
f 109/15/1 110/16/1 111/17/1 112/18/1
f 113/11/1 114/12/1 115/6/1 116/5/1
f 117/13/1 118/4/1 119/10/1 120/14/1
f 121/13/1 122/4/1 123/10/1 124/14/1
f 125/13/1 126/4/1 127/10/1 128/14/1
f 129/13/1 130/4/1 131/10/1 132/14/1
f 133/13/1 134/4/1 135/10/1 136/14/1
f 137/15/1 138/16/1 139/17/1 140/18/1
f 141/11/1 142/12/1 143/6/1 144/5/1
f 145/19/1 146/20/1 147/13/1 148/21/1
f 149/19/1 150/20/1 151/13/1 152/21/1
f 153/19/1 154/20/1 155/13/1 156/21/1
f 157/19/1 158/20/1 159/13/1 160/21/1
f 161/19/1 162/20/1 163/13/1 164/21/1
f 165/15/1 166/16/1 167/17/1 168/18/1
f 169/11/1 170/12/1 171/6/1 172/5/1
f 173/13/1 174/4/1 175/10/1 176/14/1
f 177/13/1 178/4/1 179/10/1 180/14/1
f 181/13/1 182/4/1 183/10/1 184/14/1
f 185/13/1 186/4/1 187/10/1 188/14/1
f 189/13/1 190/4/1 191/10/1 192/14/1
f 193/15/1 194/16/1 195/17/1 196/18/1
f 197/11/1 198/12/1 199/6/1 200/5/1
f 201/19/1 202/20/1 203/13/1 204/21/1
f 205/19/1 206/20/1 207/13/1 208/21/1
f 209/19/1 210/20/1 211/13/1 212/21/1
f 213/19/1 214/20/1 215/13/1 216/21/1
f 217/19/1 218/20/1 219/13/1 220/21/1
f 221/19/1 222/20/1 223/13/1 224/21/1
f 225/5/1 226/6/1 227/7/1 228/8/1
f 229/5/1 230/6/1 231/7/1 232/8/1
f 233/5/1 234/6/1 235/7/1 236/8/1
f 237/5/1 238/6/1 239/7/1 240/8/1
f 241/4/1 242/3/1 243/9/1 244/10/1
f 245/11/1 246/12/1 247/6/1 248/5/1
f 249/13/1 250/4/1 251/10/1 252/14/1
f 253/13/1 254/4/1 255/10/1 256/14/1
f 257/13/1 258/4/1 259/10/1 260/14/1
f 261/13/1 262/4/1 263/10/1 264/14/1
f 265/13/1 266/4/1 267/10/1 268/14/1
f 269/15/1 270/16/1 271/17/1 272/18/1
f 273/11/1 274/12/1 275/6/1 276/5/1
f 277/19/1 278/20/1 279/13/1 280/21/1
f 281/19/1 282/20/1 283/13/1 284/21/1
f 285/19/1 286/20/1 287/13/1 288/21/1
f 289/19/1 290/20/1 291/13/1 292/21/1
f 293/19/1 294/20/1 295/13/1 296/21/1
f 297/19/1 298/20/1 299/13/1 300/21/1
f 301/19/1 302/20/1 303/13/1 304/21/1
f 305/19/1 306/20/1 307/13/1 308/21/1
f 309/19/1 310/20/1 311/13/1 312/21/1
f 313/19/1 314/20/1 315/13/1 316/21/1
f 317/15/1 318/16/1 319/17/1 320/18/1
f 321/11/1 322/12/1 323/6/1 324/5/1
f 325/13/1 326/4/1 327/10/1 328/14/1
f 329/13/1 330/4/1 331/10/1 332/14/1
f 333/13/1 334/4/1 335/10/1 336/14/1
f 337/13/1 338/4/1 339/10/1 340/14/1
f 341/13/1 342/4/1 343/10/1 344/14/1
f 345/15/1 346/16/1 347/17/1 348/18/1
f 349/11/1 350/12/1 351/6/1 352/5/1
f 353/19/1 354/20/1 355/13/1 356/21/1
f 357/19/1 358/20/1 359/13/1 360/21/1
f 361/19/1 362/20/1 363/13/1 364/21/1
f 365/19/1 366/20/1 367/13/1 368/21/1
f 369/19/1 370/20/1 371/13/1 372/21/1
f 373/19/1 374/20/1 375/13/1 376/21/1
f 377/19/1 378/20/1 379/13/1 380/21/1
f 381/19/1 382/20/1 383/13/1 384/21/1
f 385/19/1 386/20/1 387/13/1 388/21/1
f 389/19/1 390/20/1 391/13/1 392/21/1
f 393/15/1 394/16/1 395/17/1 396/18/1
f 397/11/1 398/12/1 399/6/1 400/5/1
f 401/13/1 402/4/1 403/10/1 404/14/1
f 405/13/1 406/4/1 407/10/1 408/14/1
f 409/13/1 410/4/1 411/10/1 412/14/1
f 413/13/1 414/4/1 415/10/1 416/14/1
f 417/13/1 418/4/1 419/10/1 420/14/1
f 421/15/1 422/16/1 423/17/1 424/18/1
f 425/11/1 426/12/1 427/6/1 428/5/1
f 429/19/1 430/20/1 431/13/1 432/21/1
f 433/19/1 434/20/1 435/13/1 436/21/1
f 437/19/1 438/20/1 439/13/1 440/21/1
f 441/19/1 442/20/1 443/13/1 444/21/1
f 445/19/1 446/20/1 447/13/1 448/21/1
f 449/19/1 450/20/1 451/13/1 452/21/1
f 453/19/1 454/20/1 455/13/1 456/21/1
f 457/19/1 458/20/1 459/13/1 460/21/1
f 461/19/1 462/20/1 463/13/1 464/21/1
f 465/19/1 466/20/1 467/13/1 468/21/1
f 469/12/1 470/22/1 471/23/1 472/6/1
f 473/24/1 474/25/1 475/26/1 476/22/1
f 477/24/1 478/25/1 479/26/1 480/22/1
f 481/24/1 482/25/1 483/26/1 484/22/1
f 485/24/1 486/25/1 487/26/1 488/22/1
f 489/24/1 490/25/1 491/26/1 492/22/1
f 493/24/1 494/25/1 495/26/1 496/22/1
f 497/24/1 498/25/1 499/26/1 500/22/1
f 501/24/1 502/25/1 503/26/1 504/22/1
f 505/24/1 506/25/1 507/26/1 508/22/1
f 509/22/1 510/26/1 511/27/1 512/23/1
f 513/12/1 514/22/1 515/23/1 516/6/1
f 517/13/1 518/4/1 519/10/1 520/14/1
f 521/13/1 522/4/1 523/10/1 524/14/1
f 525/13/1 526/4/1 527/10/1 528/14/1
f 529/13/1 530/4/1 531/10/1 532/14/1
f 533/13/1 534/4/1 535/10/1 536/14/1
f 537/15/1 538/16/1 539/17/1 540/18/1
f 541/11/1 542/12/1 543/6/1 544/5/1
f 545/19/1 546/20/1 547/13/1 548/21/1
f 549/19/1 550/20/1 551/13/1 552/21/1
f 553/19/1 554/20/1 555/13/1 556/21/1
f 557/19/1 558/20/1 559/13/1 560/21/1
f 561/19/1 562/20/1 563/13/1 564/21/1
f 565/19/1 566/20/1 567/13/1 568/21/1
f 569/19/1 570/20/1 571/13/1 572/21/1
f 573/19/1 574/20/1 575/13/1 576/21/1
f 577/19/1 578/20/1 579/13/1 580/21/1
f 581/19/1 582/20/1 583/13/1 584/21/1
f 585/12/1 586/22/1 587/23/1 588/6/1
f 589/12/1 590/22/1 591/23/1 592/6/1
f 593/12/1 594/22/1 595/23/1 596/6/1
f 597/12/1 598/22/1 599/23/1 600/6/1
f 601/12/1 602/22/1 603/23/1 604/6/1
f 605/12/1 606/22/1 607/23/1 608/6/1
f 609/12/1 610/22/1 611/23/1 612/6/1
f 613/12/1 614/22/1 615/23/1 616/6/1
f 617/12/1 618/22/1 619/23/1 620/6/1
f 621/12/1 622/22/1 623/23/1 624/6/1
f 625/12/1 626/22/1 627/23/1 628/6/1
f 629/12/1 630/22/1 631/23/1 632/6/1
f 633/13/1 634/4/1 635/10/1 636/14/1
f 637/13/1 638/4/1 639/10/1 640/14/1
f 641/13/1 642/4/1 643/10/1 644/14/1
f 645/13/1 646/4/1 647/10/1 648/14/1
f 649/13/1 650/4/1 651/10/1 652/14/1
f 653/15/1 654/16/1 655/17/1 656/18/1

