# Tiled2Unity generated file. Do not modify by hand.
# Wavefront file for 'Level05_mesh_0001.obj'

# Vertices (Count = 512)
v 0 -70 0
v -70 -70 0
v -70 0 0
v 0 0 0
v -70 -70 0
v -140 -70 0
v -140 0 0
v -70 0 0
v -1260 -70 0
v -1330 -70 0
v -1330 0 0
v -1260 0 0
v -1330 -70 0
v -1400 -70 0
v -1400 0 0
v -1330 0 0
v 0 -140 0
v -70 -140 0
v -70 -70 0
v 0 -70 0
v -70 -140 0
v -140 -140 0
v -140 -70 0
v -70 -70 0
v -1260 -140 0
v -1330 -140 0
v -1330 -70 0
v -1260 -70 0
v -1330 -140 0
v -1400 -140 0
v -1400 -70 0
v -1330 -70 0
v 0 -210 0
v -70 -210 0
v -70 -140 0
v 0 -140 0
v -70 -210 0
v -140 -210 0
v -140 -140 0
v -70 -140 0
v -1260 -210 0
v -1330 -210 0
v -1330 -140 0
v -1260 -140 0
v -1330 -210 0
v -1400 -210 0
v -1400 -140 0
v -1330 -140 0
v 0 -280 0
v -70 -280 0
v -70 -210 0
v 0 -210 0
v -70 -280 0
v -140 -280 0
v -140 -210 0
v -70 -210 0
v -140 -280 0
v -210 -280 0
v -210 -210 0
v -140 -210 0
v -210 -280 0
v -280 -280 0
v -280 -210 0
v -210 -210 0
v -280 -280 0
v -350 -280 0
v -350 -210 0
v -280 -210 0
v -350 -280 0
v -420 -280 0
v -420 -210 0
v -350 -210 0
v -700 -280 0
v -770 -280 0
v -770 -210 0
v -700 -210 0
v -770 -280 0
v -840 -280 0
v -840 -210 0
v -770 -210 0
v -1260 -280 0
v -1330 -280 0
v -1330 -210 0
v -1260 -210 0
v -1330 -280 0
v -1400 -280 0
v -1400 -210 0
v -1330 -210 0
v 0 -350 0
v -70 -350 0
v -70 -280 0
v 0 -280 0
v -70 -350 0
v -140 -350 0
v -140 -280 0
v -70 -280 0
v -140 -350 0
v -210 -350 0
v -210 -280 0
v -140 -280 0
v -210 -350 0
v -280 -350 0
v -280 -280 0
v -210 -280 0
v -280 -350 0
v -350 -350 0
v -350 -280 0
v -280 -280 0
v -350 -350 0
v -420 -350 0
v -420 -280 0
v -350 -280 0
v -700 -350 0
v -770 -350 0
v -770 -280 0
v -700 -280 0
v -770 -350 0
v -840 -350 0
v -840 -280 0
v -770 -280 0
v -1260 -350 0
v -1330 -350 0
v -1330 -280 0
v -1260 -280 0
v -1330 -350 0
v -1400 -350 0
v -1400 -280 0
v -1330 -280 0
v 0 -420 0
v -70 -420 0
v -70 -350 0
v 0 -350 0
v -70 -420 0
v -140 -420 0
v -140 -350 0
v -70 -350 0
v -140 -420 0
v -210 -420 0
v -210 -350 0
v -140 -350 0
v -210 -420 0
v -280 -420 0
v -280 -350 0
v -210 -350 0
v -280 -420 0
v -350 -420 0
v -350 -350 0
v -280 -350 0
v -350 -420 0
v -420 -420 0
v -420 -350 0
v -350 -350 0
v -420 -420 0
v -490 -420 0
v -490 -350 0
v -420 -350 0
v -490 -420 0
v -560 -420 0
v -560 -350 0
v -490 -350 0
v -560 -420 0
v -630 -420 0
v -630 -350 0
v -560 -350 0
v -630 -420 0
v -700 -420 0
v -700 -350 0
v -630 -350 0
v -700 -420 0
v -770 -420 0
v -770 -350 0
v -700 -350 0
v -770 -420 0
v -840 -420 0
v -840 -350 0
v -770 -350 0
v -1120 -420 0
v -1190 -420 0
v -1190 -350 0
v -1120 -350 0
v -1190 -420 0
v -1260 -420 0
v -1260 -350 0
v -1190 -350 0
v -1260 -420 0
v -1330 -420 0
v -1330 -350 0
v -1260 -350 0
v -1330 -420 0
v -1400 -420 0
v -1400 -350 0
v -1330 -350 0
v 0 -490 0
v -70 -490 0
v -70 -420 0
v 0 -420 0
v -70 -490 0
v -140 -490 0
v -140 -420 0
v -70 -420 0
v -140 -490 0
v -210 -490 0
v -210 -420 0
v -140 -420 0
v -210 -490 0
v -280 -490 0
v -280 -420 0
v -210 -420 0
v -280 -490 0
v -350 -490 0
v -350 -420 0
v -280 -420 0
v -350 -490 0
v -420 -490 0
v -420 -420 0
v -350 -420 0
v -420 -490 0
v -490 -490 0
v -490 -420 0
v -420 -420 0
v -490 -490 0
v -560 -490 0
v -560 -420 0
v -490 -420 0
v -560 -490 0
v -630 -490 0
v -630 -420 0
v -560 -420 0
v -630 -490 0
v -700 -490 0
v -700 -420 0
v -630 -420 0
v -700 -490 0
v -770 -490 0
v -770 -420 0
v -700 -420 0
v -770 -490 0
v -840 -490 0
v -840 -420 0
v -770 -420 0
v -840 -490 0
v -910 -490 0
v -910 -420 0
v -840 -420 0
v -910 -490 0
v -980 -490 0
v -980 -420 0
v -910 -420 0
v -980 -490 0
v -1050 -490 0
v -1050 -420 0
v -980 -420 0
v -1050 -490 0
v -1120 -490 0
v -1120 -420 0
v -1050 -420 0
v -1120 -490 0
v -1190 -490 0
v -1190 -420 0
v -1120 -420 0
v -1190 -490 0
v -1260 -490 0
v -1260 -420 0
v -1190 -420 0
v -1260 -490 0
v -1330 -490 0
v -1330 -420 0
v -1260 -420 0
v -1330 -490 0
v -1400 -490 0
v -1400 -420 0
v -1330 -420 0
v 0 -560 0
v -70 -560 0
v -70 -490 0
v 0 -490 0
v -70 -560 0
v -140 -560 0
v -140 -490 0
v -70 -490 0
v -140 -560 0
v -210 -560 0
v -210 -490 0
v -140 -490 0
v -210 -560 0
v -280 -560 0
v -280 -490 0
v -210 -490 0
v -280 -560 0
v -350 -560 0
v -350 -490 0
v -280 -490 0
v -350 -560 0
v -420 -560 0
v -420 -490 0
v -350 -490 0
v -420 -560 0
v -490 -560 0
v -490 -490 0
v -420 -490 0
v -490 -560 0
v -560 -560 0
v -560 -490 0
v -490 -490 0
v -560 -560 0
v -630 -560 0
v -630 -490 0
v -560 -490 0
v -630 -560 0
v -700 -560 0
v -700 -490 0
v -630 -490 0
v -700 -560 0
v -770 -560 0
v -770 -490 0
v -700 -490 0
v -770 -560 0
v -840 -560 0
v -840 -490 0
v -770 -490 0
v -840 -560 0
v -910 -560 0
v -910 -490 0
v -840 -490 0
v -910 -560 0
v -980 -560 0
v -980 -490 0
v -910 -490 0
v -980 -560 0
v -1050 -560 0
v -1050 -490 0
v -980 -490 0
v -1050 -560 0
v -1120 -560 0
v -1120 -490 0
v -1050 -490 0
v -1120 -560 0
v -1190 -560 0
v -1190 -490 0
v -1120 -490 0
v -1190 -560 0
v -1260 -560 0
v -1260 -490 0
v -1190 -490 0
v -1260 -560 0
v -1330 -560 0
v -1330 -490 0
v -1260 -490 0
v -1330 -560 0
v -1400 -560 0
v -1400 -490 0
v -1330 -490 0
v 0 -630 0
v -70 -630 0
v -70 -560 0
v 0 -560 0
v -70 -630 0
v -140 -630 0
v -140 -560 0
v -70 -560 0
v -140 -630 0
v -210 -630 0
v -210 -560 0
v -140 -560 0
v -210 -630 0
v -280 -630 0
v -280 -560 0
v -210 -560 0
v -280 -630 0
v -350 -630 0
v -350 -560 0
v -280 -560 0
v -350 -630 0
v -420 -630 0
v -420 -560 0
v -350 -560 0
v -420 -630 0
v -490 -630 0
v -490 -560 0
v -420 -560 0
v -490 -630 0
v -560 -630 0
v -560 -560 0
v -490 -560 0
v -560 -630 0
v -630 -630 0
v -630 -560 0
v -560 -560 0
v -630 -630 0
v -700 -630 0
v -700 -560 0
v -630 -560 0
v -700 -630 0
v -770 -630 0
v -770 -560 0
v -700 -560 0
v -770 -630 0
v -840 -630 0
v -840 -560 0
v -770 -560 0
v -840 -630 0
v -910 -630 0
v -910 -560 0
v -840 -560 0
v -910 -630 0
v -980 -630 0
v -980 -560 0
v -910 -560 0
v -980 -630 0
v -1050 -630 0
v -1050 -560 0
v -980 -560 0
v -1050 -630 0
v -1120 -630 0
v -1120 -560 0
v -1050 -560 0
v -1120 -630 0
v -1190 -630 0
v -1190 -560 0
v -1120 -560 0
v -1190 -630 0
v -1260 -630 0
v -1260 -560 0
v -1190 -560 0
v -1260 -630 0
v -1330 -630 0
v -1330 -560 0
v -1260 -560 0
v -1330 -630 0
v -1400 -630 0
v -1400 -560 0
v -1330 -560 0
v 0 -700 0
v -70 -700 0
v -70 -630 0
v 0 -630 0
v -70 -700 0
v -140 -700 0
v -140 -630 0
v -70 -630 0
v -140 -700 0
v -210 -700 0
v -210 -630 0
v -140 -630 0
v -210 -700 0
v -280 -700 0
v -280 -630 0
v -210 -630 0
v -280 -700 0
v -350 -700 0
v -350 -630 0
v -280 -630 0
v -350 -700 0
v -420 -700 0
v -420 -630 0
v -350 -630 0
v -420 -700 0
v -490 -700 0
v -490 -630 0
v -420 -630 0
v -490 -700 0
v -560 -700 0
v -560 -630 0
v -490 -630 0
v -560 -700 0
v -630 -700 0
v -630 -630 0
v -560 -630 0
v -630 -700 0
v -700 -700 0
v -700 -630 0
v -630 -630 0
v -700 -700 0
v -770 -700 0
v -770 -630 0
v -700 -630 0
v -770 -700 0
v -840 -700 0
v -840 -630 0
v -770 -630 0
v -840 -700 0
v -910 -700 0
v -910 -630 0
v -840 -630 0
v -910 -700 0
v -980 -700 0
v -980 -630 0
v -910 -630 0
v -980 -700 0
v -1050 -700 0
v -1050 -630 0
v -980 -630 0
v -1050 -700 0
v -1120 -700 0
v -1120 -630 0
v -1050 -630 0
v -1120 -700 0
v -1190 -700 0
v -1190 -630 0
v -1120 -630 0
v -1190 -700 0
v -1260 -700 0
v -1260 -630 0
v -1190 -630 0
v -1260 -700 0
v -1330 -700 0
v -1330 -630 0
v -1260 -630 0
v -1330 -700 0
v -1400 -700 0
v -1400 -630 0
v -1330 -630 0

# Texture cooridinates (Count = 29)
vt 0.2734375 0.453125
vt 0.4101563 0.453125
vt 0.4101563 0.5898438
vt 0.2734375 0.5898438
vt 0.4101563 0.8632813
vt 0.546875 0.8632813
vt 0.546875 1
vt 0.4101563 1
vt 0.4101563 0.7265625
vt 0.546875 0.7265625
vt 0.546875 0.04296875
vt 0.6835938 0.04296875
vt 0.6835938 0.1796875
vt 0.546875 0.1796875
vt 0.2734375 0.8632813
vt 0.2734375 1
vt 0.6835938 0.8632813
vt 0.8203125 0.8632813
vt 0.8203125 1
vt 0.6835938 1
vt 0.2734375 0.3164063
vt 0.4101563 0.3164063
vt 0.2734375 0.1796875
vt 0.4101563 0.1796875
vt 0.2734375 0.04296875
vt 0.4101563 0.04296875
vt 0.1367188 0.7265625
vt 0.2734375 0.7265625
vt 0.1367188 0.8632813

# Normal
vn 0 0 -1

# Mesh description
g Level05_mesh_0001

# Faces
f 1/1/1 2/2/1 3/3/1 4/4/1
f 5/5/1 6/6/1 7/7/1 8/8/1
f 9/9/1 10/10/1 11/6/1 12/5/1
f 13/11/1 14/12/1 15/13/1 16/14/1
f 17/15/1 18/5/1 19/8/1 20/16/1
f 21/17/1 22/18/1 23/19/1 24/20/1
f 25/21/1 26/22/1 27/2/1 28/1/1
f 29/15/1 30/5/1 31/8/1 32/16/1
f 33/15/1 34/5/1 35/8/1 36/16/1
f 37/17/1 38/18/1 39/19/1 40/20/1
f 41/21/1 42/22/1 43/2/1 44/1/1
f 45/15/1 46/5/1 47/8/1 48/16/1
f 49/15/1 50/5/1 51/8/1 52/16/1
f 53/23/1 54/24/1 55/22/1 56/21/1
f 57/11/1 58/12/1 59/13/1 60/14/1
f 61/11/1 62/12/1 63/13/1 64/14/1
f 65/11/1 66/12/1 67/13/1 68/14/1
f 69/5/1 70/6/1 71/7/1 72/8/1
f 73/9/1 74/10/1 75/6/1 76/5/1
f 77/5/1 78/6/1 79/7/1 80/8/1
f 81/21/1 82/22/1 83/2/1 84/1/1
f 85/15/1 86/5/1 87/8/1 88/16/1
f 89/15/1 90/5/1 91/8/1 92/16/1
f 93/15/1 94/5/1 95/8/1 96/16/1
f 97/15/1 98/5/1 99/8/1 100/16/1
f 101/15/1 102/5/1 103/8/1 104/16/1
f 105/15/1 106/5/1 107/8/1 108/16/1
f 109/17/1 110/18/1 111/19/1 112/20/1
f 113/21/1 114/22/1 115/2/1 116/1/1
f 117/17/1 118/18/1 119/19/1 120/20/1
f 121/21/1 122/22/1 123/2/1 124/1/1
f 125/15/1 126/5/1 127/8/1 128/16/1
f 129/15/1 130/5/1 131/8/1 132/16/1
f 133/15/1 134/5/1 135/8/1 136/16/1
f 137/15/1 138/5/1 139/8/1 140/16/1
f 141/15/1 142/5/1 143/8/1 144/16/1
f 145/15/1 146/5/1 147/8/1 148/16/1
f 149/23/1 150/24/1 151/22/1 152/21/1
f 153/11/1 154/12/1 155/13/1 156/14/1
f 157/11/1 158/12/1 159/13/1 160/14/1
f 161/11/1 162/12/1 163/13/1 164/14/1
f 165/11/1 166/12/1 167/13/1 168/14/1
f 169/25/1 170/26/1 171/24/1 172/23/1
f 173/17/1 174/18/1 175/19/1 176/20/1
f 177/9/1 178/10/1 179/6/1 180/5/1
f 181/11/1 182/12/1 183/13/1 184/14/1
f 185/25/1 186/26/1 187/24/1 188/23/1
f 189/15/1 190/5/1 191/8/1 192/16/1
f 193/15/1 194/5/1 195/8/1 196/16/1
f 197/15/1 198/5/1 199/8/1 200/16/1
f 201/15/1 202/5/1 203/8/1 204/16/1
f 205/15/1 206/5/1 207/8/1 208/16/1
f 209/15/1 210/5/1 211/8/1 212/16/1
f 213/15/1 214/5/1 215/8/1 216/16/1
f 217/15/1 218/5/1 219/8/1 220/16/1
f 221/15/1 222/5/1 223/8/1 224/16/1
f 225/15/1 226/5/1 227/8/1 228/16/1
f 229/15/1 230/5/1 231/8/1 232/16/1
f 233/15/1 234/5/1 235/8/1 236/16/1
f 237/15/1 238/5/1 239/8/1 240/16/1
f 241/11/1 242/12/1 243/13/1 244/14/1
f 245/11/1 246/12/1 247/13/1 248/14/1
f 249/11/1 250/12/1 251/13/1 252/14/1
f 253/11/1 254/12/1 255/13/1 256/14/1
f 257/25/1 258/26/1 259/24/1 260/23/1
f 261/15/1 262/5/1 263/8/1 264/16/1
f 265/15/1 266/5/1 267/8/1 268/16/1
f 269/15/1 270/5/1 271/8/1 272/16/1
f 273/15/1 274/5/1 275/8/1 276/16/1
f 277/15/1 278/5/1 279/8/1 280/16/1
f 281/15/1 282/5/1 283/8/1 284/16/1
f 285/15/1 286/5/1 287/8/1 288/16/1
f 289/15/1 290/5/1 291/8/1 292/16/1
f 293/15/1 294/5/1 295/8/1 296/16/1
f 297/15/1 298/5/1 299/8/1 300/16/1
f 301/15/1 302/5/1 303/8/1 304/16/1
f 305/15/1 306/5/1 307/8/1 308/16/1
f 309/15/1 310/5/1 311/8/1 312/16/1
f 313/15/1 314/5/1 315/8/1 316/16/1
f 317/15/1 318/5/1 319/8/1 320/16/1
f 321/15/1 322/5/1 323/8/1 324/16/1
f 325/15/1 326/5/1 327/8/1 328/16/1
f 329/27/1 330/28/1 331/15/1 332/29/1
f 333/27/1 334/28/1 335/15/1 336/29/1
f 337/27/1 338/28/1 339/15/1 340/29/1
f 341/27/1 342/28/1 343/15/1 344/29/1
f 345/27/1 346/28/1 347/15/1 348/29/1
f 349/15/1 350/5/1 351/8/1 352/16/1
f 353/15/1 354/5/1 355/8/1 356/16/1
f 357/15/1 358/5/1 359/8/1 360/16/1
f 361/15/1 362/5/1 363/8/1 364/16/1
f 365/15/1 366/5/1 367/8/1 368/16/1
f 369/15/1 370/5/1 371/8/1 372/16/1
f 373/15/1 374/5/1 375/8/1 376/16/1
f 377/15/1 378/5/1 379/8/1 380/16/1
f 381/15/1 382/5/1 383/8/1 384/16/1
f 385/15/1 386/5/1 387/8/1 388/16/1
f 389/15/1 390/5/1 391/8/1 392/16/1
f 393/15/1 394/5/1 395/8/1 396/16/1
f 397/15/1 398/5/1 399/8/1 400/16/1
f 401/15/1 402/5/1 403/8/1 404/16/1
f 405/15/1 406/5/1 407/8/1 408/16/1
f 409/15/1 410/5/1 411/8/1 412/16/1
f 413/15/1 414/5/1 415/8/1 416/16/1
f 417/15/1 418/5/1 419/8/1 420/16/1
f 421/15/1 422/5/1 423/8/1 424/16/1
f 425/15/1 426/5/1 427/8/1 428/16/1
f 429/15/1 430/5/1 431/8/1 432/16/1
f 433/15/1 434/5/1 435/8/1 436/16/1
f 437/15/1 438/5/1 439/8/1 440/16/1
f 441/15/1 442/5/1 443/8/1 444/16/1
f 445/15/1 446/5/1 447/8/1 448/16/1
f 449/15/1 450/5/1 451/8/1 452/16/1
f 453/15/1 454/5/1 455/8/1 456/16/1
f 457/15/1 458/5/1 459/8/1 460/16/1
f 461/15/1 462/5/1 463/8/1 464/16/1
f 465/15/1 466/5/1 467/8/1 468/16/1
f 469/15/1 470/5/1 471/8/1 472/16/1
f 473/15/1 474/5/1 475/8/1 476/16/1
f 477/15/1 478/5/1 479/8/1 480/16/1
f 481/15/1 482/5/1 483/8/1 484/16/1
f 485/15/1 486/5/1 487/8/1 488/16/1
f 489/15/1 490/5/1 491/8/1 492/16/1
f 493/15/1 494/5/1 495/8/1 496/16/1
f 497/15/1 498/5/1 499/8/1 500/16/1
f 501/15/1 502/5/1 503/8/1 504/16/1
f 505/15/1 506/5/1 507/8/1 508/16/1
f 509/15/1 510/5/1 511/8/1 512/16/1

