# Tiled2Unity generated file. Do not modify by hand.
# Wavefront file for 'Level02_mesh_0001.obj'

# Vertices (Count = 780)
v -1750 -350 0
v -1820 -350 0
v -1820 -280 0
v -1750 -280 0
v -1820 -350 0
v -1890 -350 0
v -1890 -280 0
v -1820 -280 0
v -1890 -350 0
v -1960 -350 0
v -1960 -280 0
v -1890 -280 0
v -1960 -350 0
v -2030 -350 0
v -2030 -280 0
v -1960 -280 0
v -2030 -350 0
v -2100 -350 0
v -2100 -280 0
v -2030 -280 0
v -1820 -420 0
v -1890 -420 0
v -1890 -350 0
v -1820 -350 0
v -1890 -420 0
v -1960 -420 0
v -1960 -350 0
v -1890 -350 0
v -1960 -420 0
v -2030 -420 0
v -2030 -350 0
v -1960 -350 0
v -2030 -420 0
v -2100 -420 0
v -2100 -350 0
v -2030 -350 0
v -1890 -490 0
v -1960 -490 0
v -1960 -420 0
v -1890 -420 0
v -1960 -490 0
v -2030 -490 0
v -2030 -420 0
v -1960 -420 0
v -2030 -490 0
v -2100 -490 0
v -2100 -420 0
v -2030 -420 0
v 0 -630 0
v -70 -630 0
v -70 -560 0
v 0 -560 0
v -70 -630 0
v -140 -630 0
v -140 -560 0
v -70 -560 0
v -140 -630 0
v -210 -630 0
v -210 -560 0
v -140 -560 0
v -1960 -700 0
v -2030 -700 0
v -2030 -630 0
v -1960 -630 0
v -2030 -700 0
v -2100 -700 0
v -2100 -630 0
v -2030 -630 0
v -1960 -770 0
v -2030 -770 0
v -2030 -700 0
v -1960 -700 0
v -2030 -770 0
v -2100 -770 0
v -2100 -700 0
v -2030 -700 0
v -1960 -840 0
v -2030 -840 0
v -2030 -770 0
v -1960 -770 0
v -2030 -840 0
v -2100 -840 0
v -2100 -770 0
v -2030 -770 0
v 0 -910 0
v -70 -910 0
v -70 -840 0
v 0 -840 0
v -70 -910 0
v -140 -910 0
v -140 -840 0
v -70 -840 0
v -140 -910 0
v -210 -910 0
v -210 -840 0
v -140 -840 0
v -210 -910 0
v -280 -910 0
v -280 -840 0
v -210 -840 0
v -280 -910 0
v -350 -910 0
v -350 -840 0
v -280 -840 0
v -350 -910 0
v -420 -910 0
v -420 -840 0
v -350 -840 0
v -1960 -910 0
v -2030 -910 0
v -2030 -840 0
v -1960 -840 0
v -2030 -910 0
v -2100 -910 0
v -2100 -840 0
v -2030 -840 0
v 0 -980 0
v -70 -980 0
v -70 -910 0
v 0 -910 0
v -70 -980 0
v -140 -980 0
v -140 -910 0
v -70 -910 0
v -140 -980 0
v -210 -980 0
v -210 -910 0
v -140 -910 0
v -210 -980 0
v -280 -980 0
v -280 -910 0
v -210 -910 0
v -280 -980 0
v -350 -980 0
v -350 -910 0
v -280 -910 0
v -350 -980 0
v -420 -980 0
v -420 -910 0
v -350 -910 0
v -1960 -980 0
v -2030 -980 0
v -2030 -910 0
v -1960 -910 0
v -2030 -980 0
v -2100 -980 0
v -2100 -910 0
v -2030 -910 0
v 0 -1050 0
v -70 -1050 0
v -70 -980 0
v 0 -980 0
v -70 -1050 0
v -140 -1050 0
v -140 -980 0
v -70 -980 0
v -140 -1050 0
v -210 -1050 0
v -210 -980 0
v -140 -980 0
v -210 -1050 0
v -280 -1050 0
v -280 -980 0
v -210 -980 0
v -280 -1050 0
v -350 -1050 0
v -350 -980 0
v -280 -980 0
v -350 -1050 0
v -420 -1050 0
v -420 -980 0
v -350 -980 0
v -1960 -1050 0
v -2030 -1050 0
v -2030 -980 0
v -1960 -980 0
v -2030 -1050 0
v -2100 -1050 0
v -2100 -980 0
v -2030 -980 0
v 0 -1120 0
v -70 -1120 0
v -70 -1050 0
v 0 -1050 0
v -70 -1120 0
v -140 -1120 0
v -140 -1050 0
v -70 -1050 0
v -140 -1120 0
v -210 -1120 0
v -210 -1050 0
v -140 -1050 0
v -210 -1120 0
v -280 -1120 0
v -280 -1050 0
v -210 -1050 0
v -280 -1120 0
v -350 -1120 0
v -350 -1050 0
v -280 -1050 0
v -350 -1120 0
v -420 -1120 0
v -420 -1050 0
v -350 -1050 0
v -420 -1120 0
v -490 -1120 0
v -490 -1050 0
v -420 -1050 0
v -490 -1120 0
v -560 -1120 0
v -560 -1050 0
v -490 -1050 0
v -560 -1120 0
v -630 -1120 0
v -630 -1050 0
v -560 -1050 0
v -630 -1120 0
v -700 -1120 0
v -700 -1050 0
v -630 -1050 0
v -700 -1120 0
v -770 -1120 0
v -770 -1050 0
v -700 -1050 0
v -770 -1120 0
v -840 -1120 0
v -840 -1050 0
v -770 -1050 0
v -840 -1120 0
v -910 -1120 0
v -910 -1050 0
v -840 -1050 0
v -910 -1120 0
v -980 -1120 0
v -980 -1050 0
v -910 -1050 0
v -980 -1120 0
v -1050 -1120 0
v -1050 -1050 0
v -980 -1050 0
v -1050 -1120 0
v -1120 -1120 0
v -1120 -1050 0
v -1050 -1050 0
v -1120 -1120 0
v -1190 -1120 0
v -1190 -1050 0
v -1120 -1050 0
v -1190 -1120 0
v -1260 -1120 0
v -1260 -1050 0
v -1190 -1050 0
v -1260 -1120 0
v -1330 -1120 0
v -1330 -1050 0
v -1260 -1050 0
v -1330 -1120 0
v -1400 -1120 0
v -1400 -1050 0
v -1330 -1050 0
v -1400 -1120 0
v -1470 -1120 0
v -1470 -1050 0
v -1400 -1050 0
v -1470 -1120 0
v -1540 -1120 0
v -1540 -1050 0
v -1470 -1050 0
v -1540 -1120 0
v -1610 -1120 0
v -1610 -1050 0
v -1540 -1050 0
v -1610 -1120 0
v -1680 -1120 0
v -1680 -1050 0
v -1610 -1050 0
v -1680 -1120 0
v -1750 -1120 0
v -1750 -1050 0
v -1680 -1050 0
v -1750 -1120 0
v -1820 -1120 0
v -1820 -1050 0
v -1750 -1050 0
v -1820 -1120 0
v -1890 -1120 0
v -1890 -1050 0
v -1820 -1050 0
v -1890 -1120 0
v -1960 -1120 0
v -1960 -1050 0
v -1890 -1050 0
v -1960 -1120 0
v -2030 -1120 0
v -2030 -1050 0
v -1960 -1050 0
v -2030 -1120 0
v -2100 -1120 0
v -2100 -1050 0
v -2030 -1050 0
v 0 -1190 0
v -70 -1190 0
v -70 -1120 0
v 0 -1120 0
v -70 -1190 0
v -140 -1190 0
v -140 -1120 0
v -70 -1120 0
v -140 -1190 0
v -210 -1190 0
v -210 -1120 0
v -140 -1120 0
v -210 -1190 0
v -280 -1190 0
v -280 -1120 0
v -210 -1120 0
v -280 -1190 0
v -350 -1190 0
v -350 -1120 0
v -280 -1120 0
v -350 -1190 0
v -420 -1190 0
v -420 -1120 0
v -350 -1120 0
v -420 -1190 0
v -490 -1190 0
v -490 -1120 0
v -420 -1120 0
v -490 -1190 0
v -560 -1190 0
v -560 -1120 0
v -490 -1120 0
v -560 -1190 0
v -630 -1190 0
v -630 -1120 0
v -560 -1120 0
v -630 -1190 0
v -700 -1190 0
v -700 -1120 0
v -630 -1120 0
v -700 -1190 0
v -770 -1190 0
v -770 -1120 0
v -700 -1120 0
v -770 -1190 0
v -840 -1190 0
v -840 -1120 0
v -770 -1120 0
v -840 -1190 0
v -910 -1190 0
v -910 -1120 0
v -840 -1120 0
v -910 -1190 0
v -980 -1190 0
v -980 -1120 0
v -910 -1120 0
v -980 -1190 0
v -1050 -1190 0
v -1050 -1120 0
v -980 -1120 0
v -1050 -1190 0
v -1120 -1190 0
v -1120 -1120 0
v -1050 -1120 0
v -1120 -1190 0
v -1190 -1190 0
v -1190 -1120 0
v -1120 -1120 0
v -1190 -1190 0
v -1260 -1190 0
v -1260 -1120 0
v -1190 -1120 0
v -1260 -1190 0
v -1330 -1190 0
v -1330 -1120 0
v -1260 -1120 0
v -1330 -1190 0
v -1400 -1190 0
v -1400 -1120 0
v -1330 -1120 0
v -1400 -1190 0
v -1470 -1190 0
v -1470 -1120 0
v -1400 -1120 0
v -1470 -1190 0
v -1540 -1190 0
v -1540 -1120 0
v -1470 -1120 0
v -1540 -1190 0
v -1610 -1190 0
v -1610 -1120 0
v -1540 -1120 0
v -1610 -1190 0
v -1680 -1190 0
v -1680 -1120 0
v -1610 -1120 0
v -1680 -1190 0
v -1750 -1190 0
v -1750 -1120 0
v -1680 -1120 0
v -1750 -1190 0
v -1820 -1190 0
v -1820 -1120 0
v -1750 -1120 0
v -1820 -1190 0
v -1890 -1190 0
v -1890 -1120 0
v -1820 -1120 0
v -1890 -1190 0
v -1960 -1190 0
v -1960 -1120 0
v -1890 -1120 0
v -1960 -1190 0
v -2030 -1190 0
v -2030 -1120 0
v -1960 -1120 0
v -2030 -1190 0
v -2100 -1190 0
v -2100 -1120 0
v -2030 -1120 0
v 0 -1260 0
v -70 -1260 0
v -70 -1190 0
v 0 -1190 0
v -70 -1260 0
v -140 -1260 0
v -140 -1190 0
v -70 -1190 0
v -140 -1260 0
v -210 -1260 0
v -210 -1190 0
v -140 -1190 0
v -210 -1260 0
v -280 -1260 0
v -280 -1190 0
v -210 -1190 0
v -280 -1260 0
v -350 -1260 0
v -350 -1190 0
v -280 -1190 0
v -350 -1260 0
v -420 -1260 0
v -420 -1190 0
v -350 -1190 0
v -420 -1260 0
v -490 -1260 0
v -490 -1190 0
v -420 -1190 0
v -490 -1260 0
v -560 -1260 0
v -560 -1190 0
v -490 -1190 0
v -560 -1260 0
v -630 -1260 0
v -630 -1190 0
v -560 -1190 0
v -630 -1260 0
v -700 -1260 0
v -700 -1190 0
v -630 -1190 0
v -700 -1260 0
v -770 -1260 0
v -770 -1190 0
v -700 -1190 0
v -770 -1260 0
v -840 -1260 0
v -840 -1190 0
v -770 -1190 0
v -840 -1260 0
v -910 -1260 0
v -910 -1190 0
v -840 -1190 0
v -910 -1260 0
v -980 -1260 0
v -980 -1190 0
v -910 -1190 0
v -980 -1260 0
v -1050 -1260 0
v -1050 -1190 0
v -980 -1190 0
v -1050 -1260 0
v -1120 -1260 0
v -1120 -1190 0
v -1050 -1190 0
v -1120 -1260 0
v -1190 -1260 0
v -1190 -1190 0
v -1120 -1190 0
v -1190 -1260 0
v -1260 -1260 0
v -1260 -1190 0
v -1190 -1190 0
v -1260 -1260 0
v -1330 -1260 0
v -1330 -1190 0
v -1260 -1190 0
v -1330 -1260 0
v -1400 -1260 0
v -1400 -1190 0
v -1330 -1190 0
v -1400 -1260 0
v -1470 -1260 0
v -1470 -1190 0
v -1400 -1190 0
v -1470 -1260 0
v -1540 -1260 0
v -1540 -1190 0
v -1470 -1190 0
v -1540 -1260 0
v -1610 -1260 0
v -1610 -1190 0
v -1540 -1190 0
v -1610 -1260 0
v -1680 -1260 0
v -1680 -1190 0
v -1610 -1190 0
v -1680 -1260 0
v -1750 -1260 0
v -1750 -1190 0
v -1680 -1190 0
v -1750 -1260 0
v -1820 -1260 0
v -1820 -1190 0
v -1750 -1190 0
v -1820 -1260 0
v -1890 -1260 0
v -1890 -1190 0
v -1820 -1190 0
v -1890 -1260 0
v -1960 -1260 0
v -1960 -1190 0
v -1890 -1190 0
v -1960 -1260 0
v -2030 -1260 0
v -2030 -1190 0
v -1960 -1190 0
v -2030 -1260 0
v -2100 -1260 0
v -2100 -1190 0
v -2030 -1190 0
v 0 -1330 0
v -70 -1330 0
v -70 -1260 0
v 0 -1260 0
v -70 -1330 0
v -140 -1330 0
v -140 -1260 0
v -70 -1260 0
v -140 -1330 0
v -210 -1330 0
v -210 -1260 0
v -140 -1260 0
v -210 -1330 0
v -280 -1330 0
v -280 -1260 0
v -210 -1260 0
v -280 -1330 0
v -350 -1330 0
v -350 -1260 0
v -280 -1260 0
v -350 -1330 0
v -420 -1330 0
v -420 -1260 0
v -350 -1260 0
v -420 -1330 0
v -490 -1330 0
v -490 -1260 0
v -420 -1260 0
v -490 -1330 0
v -560 -1330 0
v -560 -1260 0
v -490 -1260 0
v -560 -1330 0
v -630 -1330 0
v -630 -1260 0
v -560 -1260 0
v -630 -1330 0
v -700 -1330 0
v -700 -1260 0
v -630 -1260 0
v -700 -1330 0
v -770 -1330 0
v -770 -1260 0
v -700 -1260 0
v -770 -1330 0
v -840 -1330 0
v -840 -1260 0
v -770 -1260 0
v -840 -1330 0
v -910 -1330 0
v -910 -1260 0
v -840 -1260 0
v -910 -1330 0
v -980 -1330 0
v -980 -1260 0
v -910 -1260 0
v -980 -1330 0
v -1050 -1330 0
v -1050 -1260 0
v -980 -1260 0
v -1050 -1330 0
v -1120 -1330 0
v -1120 -1260 0
v -1050 -1260 0
v -1120 -1330 0
v -1190 -1330 0
v -1190 -1260 0
v -1120 -1260 0
v -1190 -1330 0
v -1260 -1330 0
v -1260 -1260 0
v -1190 -1260 0
v -1260 -1330 0
v -1330 -1330 0
v -1330 -1260 0
v -1260 -1260 0
v -1330 -1330 0
v -1400 -1330 0
v -1400 -1260 0
v -1330 -1260 0
v -1400 -1330 0
v -1470 -1330 0
v -1470 -1260 0
v -1400 -1260 0
v -1470 -1330 0
v -1540 -1330 0
v -1540 -1260 0
v -1470 -1260 0
v -1540 -1330 0
v -1610 -1330 0
v -1610 -1260 0
v -1540 -1260 0
v -1610 -1330 0
v -1680 -1330 0
v -1680 -1260 0
v -1610 -1260 0
v -1680 -1330 0
v -1750 -1330 0
v -1750 -1260 0
v -1680 -1260 0
v -1750 -1330 0
v -1820 -1330 0
v -1820 -1260 0
v -1750 -1260 0
v -1820 -1330 0
v -1890 -1330 0
v -1890 -1260 0
v -1820 -1260 0
v -1890 -1330 0
v -1960 -1330 0
v -1960 -1260 0
v -1890 -1260 0
v -1960 -1330 0
v -2030 -1330 0
v -2030 -1260 0
v -1960 -1260 0
v -2030 -1330 0
v -2100 -1330 0
v -2100 -1260 0
v -2030 -1260 0
v 0 -1400 0
v -70 -1400 0
v -70 -1330 0
v 0 -1330 0
v -70 -1400 0
v -140 -1400 0
v -140 -1330 0
v -70 -1330 0
v -140 -1400 0
v -210 -1400 0
v -210 -1330 0
v -140 -1330 0
v -210 -1400 0
v -280 -1400 0
v -280 -1330 0
v -210 -1330 0
v -280 -1400 0
v -350 -1400 0
v -350 -1330 0
v -280 -1330 0
v -350 -1400 0
v -420 -1400 0
v -420 -1330 0
v -350 -1330 0
v -420 -1400 0
v -490 -1400 0
v -490 -1330 0
v -420 -1330 0
v -490 -1400 0
v -560 -1400 0
v -560 -1330 0
v -490 -1330 0
v -560 -1400 0
v -630 -1400 0
v -630 -1330 0
v -560 -1330 0
v -630 -1400 0
v -700 -1400 0
v -700 -1330 0
v -630 -1330 0
v -700 -1400 0
v -770 -1400 0
v -770 -1330 0
v -700 -1330 0
v -770 -1400 0
v -840 -1400 0
v -840 -1330 0
v -770 -1330 0
v -840 -1400 0
v -910 -1400 0
v -910 -1330 0
v -840 -1330 0
v -910 -1400 0
v -980 -1400 0
v -980 -1330 0
v -910 -1330 0
v -980 -1400 0
v -1050 -1400 0
v -1050 -1330 0
v -980 -1330 0
v -1050 -1400 0
v -1120 -1400 0
v -1120 -1330 0
v -1050 -1330 0
v -1120 -1400 0
v -1190 -1400 0
v -1190 -1330 0
v -1120 -1330 0
v -1190 -1400 0
v -1260 -1400 0
v -1260 -1330 0
v -1190 -1330 0
v -1260 -1400 0
v -1330 -1400 0
v -1330 -1330 0
v -1260 -1330 0
v -1330 -1400 0
v -1400 -1400 0
v -1400 -1330 0
v -1330 -1330 0
v -1400 -1400 0
v -1470 -1400 0
v -1470 -1330 0
v -1400 -1330 0
v -1470 -1400 0
v -1540 -1400 0
v -1540 -1330 0
v -1470 -1330 0
v -1540 -1400 0
v -1610 -1400 0
v -1610 -1330 0
v -1540 -1330 0
v -1610 -1400 0
v -1680 -1400 0
v -1680 -1330 0
v -1610 -1330 0
v -1680 -1400 0
v -1750 -1400 0
v -1750 -1330 0
v -1680 -1330 0
v -1750 -1400 0
v -1820 -1400 0
v -1820 -1330 0
v -1750 -1330 0
v -1820 -1400 0
v -1890 -1400 0
v -1890 -1330 0
v -1820 -1330 0
v -1890 -1400 0
v -1960 -1400 0
v -1960 -1330 0
v -1890 -1330 0
v -1960 -1400 0
v -2030 -1400 0
v -2030 -1330 0
v -1960 -1330 0
v -2030 -1400 0
v -2100 -1400 0
v -2100 -1330 0
v -2030 -1330 0

# Texture cooridinates (Count = 36)
vt 0.546875 0.7265625
vt 0.6835938 0.7265625
vt 0.6835938 0.8632813
vt 0.546875 0.8632813
vt 0.546875 0.04296875
vt 0.6835938 0.04296875
vt 0.6835938 0.1796875
vt 0.546875 0.1796875
vt 0.2734375 0.7265625
vt 0.4101563 0.7265625
vt 0.4101563 0.8632813
vt 0.2734375 0.8632813
vt 0.4101563 1
vt 0.2734375 1
vt 0 0.1796875
vt 0.1367188 0.1796875
vt 0.1367188 0.3164063
vt 0 0.3164063
vt 0.4101563 0.1796875
vt 0.546875 0.3164063
vt 0.4101563 0.3164063
vt 0.2734375 0.3164063
vt 0.4101563 0.453125
vt 0.2734375 0.453125
vt 0.1367188 0.7265625
vt 0.1367188 0.8632813
vt 0.546875 0.5898438
vt 0.6835938 0.5898438
vt 0.546875 0.453125
vt 0.6835938 0.453125
vt 0.8203125 0.8632813
vt 0.8203125 1
vt 0.6835938 1
vt 0.2734375 0.1796875
vt 0.2734375 0.04296875
vt 0.4101563 0.04296875

# Normal
vn 0 0 -1

# Mesh description
g Level02_mesh_0001

# Faces
f 1/1/1 2/2/1 3/3/1 4/4/1
f 5/5/1 6/6/1 7/7/1 8/8/1
f 9/5/1 10/6/1 11/7/1 12/8/1
f 13/5/1 14/6/1 15/7/1 16/8/1
f 17/5/1 18/6/1 19/7/1 20/8/1
f 21/9/1 22/10/1 23/11/1 24/12/1
f 25/12/1 26/11/1 27/13/1 28/14/1
f 29/12/1 30/11/1 31/13/1 32/14/1
f 33/12/1 34/11/1 35/13/1 36/14/1
f 37/9/1 38/10/1 39/11/1 40/12/1
f 41/15/1 42/16/1 43/17/1 44/18/1
f 45/15/1 46/16/1 47/17/1 48/18/1
f 49/5/1 50/6/1 51/7/1 52/8/1
f 53/5/1 54/6/1 55/7/1 56/8/1
f 57/19/1 58/8/1 59/20/1 60/21/1
f 61/10/1 62/1/1 63/4/1 64/11/1
f 65/5/1 66/6/1 67/7/1 68/8/1
f 69/22/1 70/21/1 71/23/1 72/24/1
f 73/25/1 74/9/1 75/12/1 76/26/1
f 77/22/1 78/21/1 79/23/1 80/24/1
f 81/25/1 82/9/1 83/12/1 84/26/1
f 85/27/1 86/28/1 87/2/1 88/1/1
f 89/5/1 90/6/1 91/7/1 92/8/1
f 93/5/1 94/6/1 95/7/1 96/8/1
f 97/5/1 98/6/1 99/7/1 100/8/1
f 101/5/1 102/6/1 103/7/1 104/8/1
f 105/29/1 106/30/1 107/28/1 108/27/1
f 109/22/1 110/21/1 111/23/1 112/24/1
f 113/25/1 114/9/1 115/12/1 116/26/1
f 117/25/1 118/9/1 119/12/1 120/26/1
f 121/25/1 122/9/1 123/12/1 124/26/1
f 125/25/1 126/9/1 127/12/1 128/26/1
f 129/25/1 130/9/1 131/12/1 132/26/1
f 133/25/1 134/9/1 135/12/1 136/26/1
f 137/3/1 138/31/1 139/32/1 140/33/1
f 141/22/1 142/21/1 143/23/1 144/24/1
f 145/25/1 146/9/1 147/12/1 148/26/1
f 149/25/1 150/9/1 151/12/1 152/26/1
f 153/25/1 154/9/1 155/12/1 156/26/1
f 157/25/1 158/9/1 159/12/1 160/26/1
f 161/25/1 162/9/1 163/12/1 164/26/1
f 165/25/1 166/9/1 167/12/1 168/26/1
f 169/3/1 170/31/1 171/32/1 172/33/1
f 173/22/1 174/21/1 175/23/1 176/24/1
f 177/25/1 178/9/1 179/12/1 180/26/1
f 181/25/1 182/9/1 183/12/1 184/26/1
f 185/25/1 186/9/1 187/12/1 188/26/1
f 189/25/1 190/9/1 191/12/1 192/26/1
f 193/25/1 194/9/1 195/12/1 196/26/1
f 197/25/1 198/9/1 199/12/1 200/26/1
f 201/34/1 202/19/1 203/21/1 204/22/1
f 205/5/1 206/6/1 207/7/1 208/8/1
f 209/5/1 210/6/1 211/7/1 212/8/1
f 213/5/1 214/6/1 215/7/1 216/8/1
f 217/5/1 218/6/1 219/7/1 220/8/1
f 221/5/1 222/6/1 223/7/1 224/8/1
f 225/5/1 226/6/1 227/7/1 228/8/1
f 229/5/1 230/6/1 231/7/1 232/8/1
f 233/5/1 234/6/1 235/7/1 236/8/1
f 237/5/1 238/6/1 239/7/1 240/8/1
f 241/5/1 242/6/1 243/7/1 244/8/1
f 245/5/1 246/6/1 247/7/1 248/8/1
f 249/5/1 250/6/1 251/7/1 252/8/1
f 253/5/1 254/6/1 255/7/1 256/8/1
f 257/5/1 258/6/1 259/7/1 260/8/1
f 261/5/1 262/6/1 263/7/1 264/8/1
f 265/5/1 266/6/1 267/7/1 268/8/1
f 269/5/1 270/6/1 271/7/1 272/8/1
f 273/5/1 274/6/1 275/7/1 276/8/1
f 277/5/1 278/6/1 279/7/1 280/8/1
f 281/5/1 282/6/1 283/7/1 284/8/1
f 285/5/1 286/6/1 287/7/1 288/8/1
f 289/5/1 290/6/1 291/7/1 292/8/1
f 293/35/1 294/36/1 295/19/1 296/34/1
f 297/25/1 298/9/1 299/12/1 300/26/1
f 301/25/1 302/9/1 303/12/1 304/26/1
f 305/25/1 306/9/1 307/12/1 308/26/1
f 309/25/1 310/9/1 311/12/1 312/26/1
f 313/25/1 314/9/1 315/12/1 316/26/1
f 317/25/1 318/9/1 319/12/1 320/26/1
f 321/25/1 322/9/1 323/12/1 324/26/1
f 325/25/1 326/9/1 327/12/1 328/26/1
f 329/25/1 330/9/1 331/12/1 332/26/1
f 333/25/1 334/9/1 335/12/1 336/26/1
f 337/25/1 338/9/1 339/12/1 340/26/1
f 341/25/1 342/9/1 343/12/1 344/26/1
f 345/25/1 346/9/1 347/12/1 348/26/1
f 349/25/1 350/9/1 351/12/1 352/26/1
f 353/25/1 354/9/1 355/12/1 356/26/1
f 357/25/1 358/9/1 359/12/1 360/26/1
f 361/25/1 362/9/1 363/12/1 364/26/1
f 365/25/1 366/9/1 367/12/1 368/26/1
f 369/25/1 370/9/1 371/12/1 372/26/1
f 373/25/1 374/9/1 375/12/1 376/26/1
f 377/25/1 378/9/1 379/12/1 380/26/1
f 381/25/1 382/9/1 383/12/1 384/26/1
f 385/25/1 386/9/1 387/12/1 388/26/1
f 389/25/1 390/9/1 391/12/1 392/26/1
f 393/25/1 394/9/1 395/12/1 396/26/1
f 397/25/1 398/9/1 399/12/1 400/26/1
f 401/25/1 402/9/1 403/12/1 404/26/1
f 405/25/1 406/9/1 407/12/1 408/26/1
f 409/25/1 410/9/1 411/12/1 412/26/1
f 413/25/1 414/9/1 415/12/1 416/26/1
f 417/25/1 418/9/1 419/12/1 420/26/1
f 421/25/1 422/9/1 423/12/1 424/26/1
f 425/25/1 426/9/1 427/12/1 428/26/1
f 429/25/1 430/9/1 431/12/1 432/26/1
f 433/25/1 434/9/1 435/12/1 436/26/1
f 437/25/1 438/9/1 439/12/1 440/26/1
f 441/25/1 442/9/1 443/12/1 444/26/1
f 445/25/1 446/9/1 447/12/1 448/26/1
f 449/25/1 450/9/1 451/12/1 452/26/1
f 453/25/1 454/9/1 455/12/1 456/26/1
f 457/25/1 458/9/1 459/12/1 460/26/1
f 461/25/1 462/9/1 463/12/1 464/26/1
f 465/25/1 466/9/1 467/12/1 468/26/1
f 469/25/1 470/9/1 471/12/1 472/26/1
f 473/25/1 474/9/1 475/12/1 476/26/1
f 477/25/1 478/9/1 479/12/1 480/26/1
f 481/25/1 482/9/1 483/12/1 484/26/1
f 485/25/1 486/9/1 487/12/1 488/26/1
f 489/25/1 490/9/1 491/12/1 492/26/1
f 493/25/1 494/9/1 495/12/1 496/26/1
f 497/25/1 498/9/1 499/12/1 500/26/1
f 501/25/1 502/9/1 503/12/1 504/26/1
f 505/25/1 506/9/1 507/12/1 508/26/1
f 509/25/1 510/9/1 511/12/1 512/26/1
f 513/25/1 514/9/1 515/12/1 516/26/1
f 517/25/1 518/9/1 519/12/1 520/26/1
f 521/25/1 522/9/1 523/12/1 524/26/1
f 525/25/1 526/9/1 527/12/1 528/26/1
f 529/25/1 530/9/1 531/12/1 532/26/1
f 533/25/1 534/9/1 535/12/1 536/26/1
f 537/25/1 538/9/1 539/12/1 540/26/1
f 541/25/1 542/9/1 543/12/1 544/26/1
f 545/25/1 546/9/1 547/12/1 548/26/1
f 549/25/1 550/9/1 551/12/1 552/26/1
f 553/25/1 554/9/1 555/12/1 556/26/1
f 557/25/1 558/9/1 559/12/1 560/26/1
f 561/25/1 562/9/1 563/12/1 564/26/1
f 565/25/1 566/9/1 567/12/1 568/26/1
f 569/25/1 570/9/1 571/12/1 572/26/1
f 573/25/1 574/9/1 575/12/1 576/26/1
f 577/25/1 578/9/1 579/12/1 580/26/1
f 581/25/1 582/9/1 583/12/1 584/26/1
f 585/25/1 586/9/1 587/12/1 588/26/1
f 589/25/1 590/9/1 591/12/1 592/26/1
f 593/25/1 594/9/1 595/12/1 596/26/1
f 597/25/1 598/9/1 599/12/1 600/26/1
f 601/25/1 602/9/1 603/12/1 604/26/1
f 605/25/1 606/9/1 607/12/1 608/26/1
f 609/25/1 610/9/1 611/12/1 612/26/1
f 613/25/1 614/9/1 615/12/1 616/26/1
f 617/25/1 618/9/1 619/12/1 620/26/1
f 621/25/1 622/9/1 623/12/1 624/26/1
f 625/25/1 626/9/1 627/12/1 628/26/1
f 629/25/1 630/9/1 631/12/1 632/26/1
f 633/25/1 634/9/1 635/12/1 636/26/1
f 637/25/1 638/9/1 639/12/1 640/26/1
f 641/25/1 642/9/1 643/12/1 644/26/1
f 645/25/1 646/9/1 647/12/1 648/26/1
f 649/25/1 650/9/1 651/12/1 652/26/1
f 653/25/1 654/9/1 655/12/1 656/26/1
f 657/25/1 658/9/1 659/12/1 660/26/1
f 661/25/1 662/9/1 663/12/1 664/26/1
f 665/25/1 666/9/1 667/12/1 668/26/1
f 669/25/1 670/9/1 671/12/1 672/26/1
f 673/25/1 674/9/1 675/12/1 676/26/1
f 677/25/1 678/9/1 679/12/1 680/26/1
f 681/25/1 682/9/1 683/12/1 684/26/1
f 685/25/1 686/9/1 687/12/1 688/26/1
f 689/25/1 690/9/1 691/12/1 692/26/1
f 693/25/1 694/9/1 695/12/1 696/26/1
f 697/25/1 698/9/1 699/12/1 700/26/1
f 701/25/1 702/9/1 703/12/1 704/26/1
f 705/25/1 706/9/1 707/12/1 708/26/1
f 709/25/1 710/9/1 711/12/1 712/26/1
f 713/25/1 714/9/1 715/12/1 716/26/1
f 717/25/1 718/9/1 719/12/1 720/26/1
f 721/25/1 722/9/1 723/12/1 724/26/1
f 725/25/1 726/9/1 727/12/1 728/26/1
f 729/25/1 730/9/1 731/12/1 732/26/1
f 733/25/1 734/9/1 735/12/1 736/26/1
f 737/25/1 738/9/1 739/12/1 740/26/1
f 741/25/1 742/9/1 743/12/1 744/26/1
f 745/25/1 746/9/1 747/12/1 748/26/1
f 749/25/1 750/9/1 751/12/1 752/26/1
f 753/25/1 754/9/1 755/12/1 756/26/1
f 757/25/1 758/9/1 759/12/1 760/26/1
f 761/25/1 762/9/1 763/12/1 764/26/1
f 765/25/1 766/9/1 767/12/1 768/26/1
f 769/25/1 770/9/1 771/12/1 772/26/1
f 773/25/1 774/9/1 775/12/1 776/26/1
f 777/25/1 778/9/1 779/12/1 780/26/1

