# Tiled2Unity generated file. Do not modify by hand.
# Wavefront file for 'Dearth3_mesh_0001.obj'

# Vertices (Count = 648)
v 0 -69 0
v -70 -69 0
v -70 1 0
v 0 1 0
v -69 -69 0
v -139 -69 0
v -139 1 0
v -69 1 0
v -138 -69 0
v -208 -69 0
v -208 1 0
v -138 1 0
v -207 -69 0
v -277 -69 0
v -277 1 0
v -207 1 0
v -276 -69 0
v -346 -69 0
v -346 1 0
v -276 1 0
v -345 -69 0
v -415 -69 0
v -415 1 0
v -345 1 0
v -414 -69 0
v -484 -69 0
v -484 1 0
v -414 1 0
v -483 -69 0
v -553 -69 0
v -553 1 0
v -483 1 0
v -552 -69 0
v -622 -69 0
v -622 1 0
v -552 1 0
v -621 -69 0
v -691 -69 0
v -691 1 0
v -621 1 0
v -690 -69 0
v -760 -69 0
v -760 1 0
v -690 1 0
v -759 -69 0
v -829 -69 0
v -829 1 0
v -759 1 0
v -828 -69 0
v -898 -69 0
v -898 1 0
v -828 1 0
v -897 -69 0
v -967 -69 0
v -967 1 0
v -897 1 0
v -966 -69 0
v -1036 -69 0
v -1036 1 0
v -966 1 0
v -1035 -69 0
v -1105 -69 0
v -1105 1 0
v -1035 1 0
v -1104 -69 0
v -1174 -69 0
v -1174 1 0
v -1104 1 0
v -1173 -69 0
v -1243 -69 0
v -1243 1 0
v -1173 1 0
v -1242 -69 0
v -1312 -69 0
v -1312 1 0
v -1242 1 0
v -1311 -69 0
v -1381 -69 0
v -1381 1 0
v -1311 1 0
v -1380 -69 0
v -1450 -69 0
v -1450 1 0
v -1380 1 0
v -1449 -69 0
v -1519 -69 0
v -1519 1 0
v -1449 1 0
v -1518 -69 0
v -1588 -69 0
v -1588 1 0
v -1518 1 0
v -1587 -69 0
v -1657 -69 0
v -1657 1 0
v -1587 1 0
v -1656 -69 0
v -1726 -69 0
v -1726 1 0
v -1656 1 0
v -1725 -69 0
v -1795 -69 0
v -1795 1 0
v -1725 1 0
v -1794 -69 0
v -1864 -69 0
v -1864 1 0
v -1794 1 0
v -1863 -69 0
v -1933 -69 0
v -1933 1 0
v -1863 1 0
v -1932 -69 0
v -2002 -69 0
v -2002 1 0
v -1932 1 0
v -2001 -69 0
v -2071 -69 0
v -2071 1 0
v -2001 1 0
v 0 -138 0
v -70 -138 0
v -70 -68 0
v 0 -68 0
v -2001 -138 0
v -2071 -138 0
v -2071 -68 0
v -2001 -68 0
v 0 -207 0
v -70 -207 0
v -70 -137 0
v 0 -137 0
v -2001 -207 0
v -2071 -207 0
v -2071 -137 0
v -2001 -137 0
v 0 -276 0
v -70 -276 0
v -70 -206 0
v 0 -206 0
v -2001 -276 0
v -2071 -276 0
v -2071 -206 0
v -2001 -206 0
v 0 -345 0
v -70 -345 0
v -70 -275 0
v 0 -275 0
v -2001 -345 0
v -2071 -345 0
v -2071 -275 0
v -2001 -275 0
v 0 -414 0
v -70 -414 0
v -70 -344 0
v 0 -344 0
v -2001 -414 0
v -2071 -414 0
v -2071 -344 0
v -2001 -344 0
v 0 -483 0
v -70 -483 0
v -70 -413 0
v 0 -413 0
v -2001 -483 0
v -2071 -483 0
v -2071 -413 0
v -2001 -413 0
v 0 -552 0
v -70 -552 0
v -70 -482 0
v 0 -482 0
v -69 -552 0
v -139 -552 0
v -139 -482 0
v -69 -482 0
v -2001 -552 0
v -2071 -552 0
v -2071 -482 0
v -2001 -482 0
v 0 -621 0
v -70 -621 0
v -70 -551 0
v 0 -551 0
v -2001 -621 0
v -2071 -621 0
v -2071 -551 0
v -2001 -551 0
v 0 -690 0
v -70 -690 0
v -70 -620 0
v 0 -620 0
v -2001 -690 0
v -2071 -690 0
v -2071 -620 0
v -2001 -620 0
v 0 -759 0
v -70 -759 0
v -70 -689 0
v 0 -689 0
v -414 -759 0
v -484 -759 0
v -484 -689 0
v -414 -689 0
v -483 -759 0
v -553 -759 0
v -553 -689 0
v -483 -689 0
v -552 -759 0
v -622 -759 0
v -622 -689 0
v -552 -689 0
v -621 -759 0
v -691 -759 0
v -691 -689 0
v -621 -689 0
v -690 -759 0
v -760 -759 0
v -760 -689 0
v -690 -689 0
v -759 -759 0
v -829 -759 0
v -829 -689 0
v -759 -689 0
v -828 -759 0
v -898 -759 0
v -898 -689 0
v -828 -689 0
v -897 -759 0
v -967 -759 0
v -967 -689 0
v -897 -689 0
v -966 -759 0
v -1036 -759 0
v -1036 -689 0
v -966 -689 0
v -1035 -759 0
v -1105 -759 0
v -1105 -689 0
v -1035 -689 0
v -1104 -759 0
v -1174 -759 0
v -1174 -689 0
v -1104 -689 0
v -1173 -759 0
v -1243 -759 0
v -1243 -689 0
v -1173 -689 0
v -1242 -759 0
v -1312 -759 0
v -1312 -689 0
v -1242 -689 0
v -1311 -759 0
v -1381 -759 0
v -1381 -689 0
v -1311 -689 0
v -1380 -759 0
v -1450 -759 0
v -1450 -689 0
v -1380 -689 0
v -1449 -759 0
v -1519 -759 0
v -1519 -689 0
v -1449 -689 0
v -1518 -759 0
v -1588 -759 0
v -1588 -689 0
v -1518 -689 0
v -1587 -759 0
v -1657 -759 0
v -1657 -689 0
v -1587 -689 0
v -1656 -759 0
v -1726 -759 0
v -1726 -689 0
v -1656 -689 0
v -1725 -759 0
v -1795 -759 0
v -1795 -689 0
v -1725 -689 0
v -1794 -759 0
v -1864 -759 0
v -1864 -689 0
v -1794 -689 0
v -1863 -759 0
v -1933 -759 0
v -1933 -689 0
v -1863 -689 0
v -1932 -759 0
v -2002 -759 0
v -2002 -689 0
v -1932 -689 0
v -2001 -759 0
v -2071 -759 0
v -2071 -689 0
v -2001 -689 0
v 0 -828 0
v -70 -828 0
v -70 -758 0
v 0 -758 0
v -2001 -828 0
v -2071 -828 0
v -2071 -758 0
v -2001 -758 0
v 0 -897 0
v -70 -897 0
v -70 -827 0
v 0 -827 0
v -69 -897 0
v -139 -897 0
v -139 -827 0
v -69 -827 0
v -138 -897 0
v -208 -897 0
v -208 -827 0
v -138 -827 0
v -2001 -897 0
v -2071 -897 0
v -2071 -827 0
v -2001 -827 0
v 0 -966 0
v -70 -966 0
v -70 -896 0
v 0 -896 0
v -2001 -966 0
v -2071 -966 0
v -2071 -896 0
v -2001 -896 0
v 0 -1035 0
v -70 -1035 0
v -70 -965 0
v 0 -965 0
v -2001 -1035 0
v -2071 -1035 0
v -2071 -965 0
v -2001 -965 0
v 0 -1104 0
v -70 -1104 0
v -70 -1034 0
v 0 -1034 0
v -2001 -1104 0
v -2071 -1104 0
v -2071 -1034 0
v -2001 -1034 0
v 0 -1173 0
v -70 -1173 0
v -70 -1103 0
v 0 -1103 0
v -2001 -1173 0
v -2071 -1173 0
v -2071 -1103 0
v -2001 -1103 0
v 0 -1242 0
v -70 -1242 0
v -70 -1172 0
v 0 -1172 0
v -2001 -1242 0
v -2071 -1242 0
v -2071 -1172 0
v -2001 -1172 0
v 0 -1311 0
v -70 -1311 0
v -70 -1241 0
v 0 -1241 0
v -2001 -1311 0
v -2071 -1311 0
v -2071 -1241 0
v -2001 -1241 0
v 0 -1380 0
v -70 -1380 0
v -70 -1310 0
v 0 -1310 0
v -69 -1380 0
v -139 -1380 0
v -139 -1310 0
v -69 -1310 0
v -138 -1380 0
v -208 -1380 0
v -208 -1310 0
v -138 -1310 0
v -207 -1380 0
v -277 -1380 0
v -277 -1310 0
v -207 -1310 0
v -276 -1380 0
v -346 -1380 0
v -346 -1310 0
v -276 -1310 0
v -345 -1380 0
v -415 -1380 0
v -415 -1310 0
v -345 -1310 0
v -414 -1380 0
v -484 -1380 0
v -484 -1310 0
v -414 -1310 0
v -483 -1380 0
v -553 -1380 0
v -553 -1310 0
v -483 -1310 0
v -552 -1380 0
v -622 -1380 0
v -622 -1310 0
v -552 -1310 0
v -621 -1380 0
v -691 -1380 0
v -691 -1310 0
v -621 -1310 0
v -690 -1380 0
v -760 -1380 0
v -760 -1310 0
v -690 -1310 0
v -759 -1380 0
v -829 -1380 0
v -829 -1310 0
v -759 -1310 0
v -828 -1380 0
v -898 -1380 0
v -898 -1310 0
v -828 -1310 0
v -897 -1380 0
v -967 -1380 0
v -967 -1310 0
v -897 -1310 0
v -966 -1380 0
v -1036 -1380 0
v -1036 -1310 0
v -966 -1310 0
v -1035 -1380 0
v -1105 -1380 0
v -1105 -1310 0
v -1035 -1310 0
v -1104 -1380 0
v -1174 -1380 0
v -1174 -1310 0
v -1104 -1310 0
v -1173 -1380 0
v -1243 -1380 0
v -1243 -1310 0
v -1173 -1310 0
v -1242 -1380 0
v -1312 -1380 0
v -1312 -1310 0
v -1242 -1310 0
v -1311 -1380 0
v -1381 -1380 0
v -1381 -1310 0
v -1311 -1310 0
v -1380 -1380 0
v -1450 -1380 0
v -1450 -1310 0
v -1380 -1310 0
v -2001 -1380 0
v -2071 -1380 0
v -2071 -1310 0
v -2001 -1310 0
v 0 -1449 0
v -70 -1449 0
v -70 -1379 0
v 0 -1379 0
v -2001 -1449 0
v -2071 -1449 0
v -2071 -1379 0
v -2001 -1379 0
v 0 -1518 0
v -70 -1518 0
v -70 -1448 0
v 0 -1448 0
v -2001 -1518 0
v -2071 -1518 0
v -2071 -1448 0
v -2001 -1448 0
v 0 -1587 0
v -70 -1587 0
v -70 -1517 0
v 0 -1517 0
v -2001 -1587 0
v -2071 -1587 0
v -2071 -1517 0
v -2001 -1517 0
v 0 -1656 0
v -70 -1656 0
v -70 -1586 0
v 0 -1586 0
v -2001 -1656 0
v -2071 -1656 0
v -2071 -1586 0
v -2001 -1586 0
v 0 -1725 0
v -70 -1725 0
v -70 -1655 0
v 0 -1655 0
v -2001 -1725 0
v -2071 -1725 0
v -2071 -1655 0
v -2001 -1655 0
v 0 -1794 0
v -70 -1794 0
v -70 -1724 0
v 0 -1724 0
v -2001 -1794 0
v -2071 -1794 0
v -2071 -1724 0
v -2001 -1724 0
v 0 -1863 0
v -70 -1863 0
v -70 -1793 0
v 0 -1793 0
v -2001 -1863 0
v -2071 -1863 0
v -2071 -1793 0
v -2001 -1793 0
v 0 -1932 0
v -70 -1932 0
v -70 -1862 0
v 0 -1862 0
v -2001 -1932 0
v -2071 -1932 0
v -2071 -1862 0
v -2001 -1862 0
v 0 -2001 0
v -70 -2001 0
v -70 -1931 0
v 0 -1931 0
v -2001 -2001 0
v -2071 -2001 0
v -2071 -1931 0
v -2001 -1931 0
v 0 -2070 0
v -70 -2070 0
v -70 -2000 0
v 0 -2000 0
v -69 -2070 0
v -139 -2070 0
v -139 -2000 0
v -69 -2000 0
v -138 -2070 0
v -208 -2070 0
v -208 -2000 0
v -138 -2000 0
v -207 -2070 0
v -277 -2070 0
v -277 -2000 0
v -207 -2000 0
v -276 -2070 0
v -346 -2070 0
v -346 -2000 0
v -276 -2000 0
v -345 -2070 0
v -415 -2070 0
v -415 -2000 0
v -345 -2000 0
v -414 -2070 0
v -484 -2070 0
v -484 -2000 0
v -414 -2000 0
v -483 -2070 0
v -553 -2070 0
v -553 -2000 0
v -483 -2000 0
v -552 -2070 0
v -622 -2070 0
v -622 -2000 0
v -552 -2000 0
v -621 -2070 0
v -691 -2070 0
v -691 -2000 0
v -621 -2000 0
v -690 -2070 0
v -760 -2070 0
v -760 -2000 0
v -690 -2000 0
v -759 -2070 0
v -829 -2070 0
v -829 -2000 0
v -759 -2000 0
v -828 -2070 0
v -898 -2070 0
v -898 -2000 0
v -828 -2000 0
v -897 -2070 0
v -967 -2070 0
v -967 -2000 0
v -897 -2000 0
v -966 -2070 0
v -1036 -2070 0
v -1036 -2000 0
v -966 -2000 0
v -1035 -2070 0
v -1105 -2070 0
v -1105 -2000 0
v -1035 -2000 0
v -1104 -2070 0
v -1174 -2070 0
v -1174 -2000 0
v -1104 -2000 0
v -1173 -2070 0
v -1243 -2070 0
v -1243 -2000 0
v -1173 -2000 0
v -1242 -2070 0
v -1312 -2070 0
v -1312 -2000 0
v -1242 -2000 0
v -1311 -2070 0
v -1381 -2070 0
v -1381 -2000 0
v -1311 -2000 0
v -1380 -2070 0
v -1450 -2070 0
v -1450 -2000 0
v -1380 -2000 0
v -1449 -2070 0
v -1519 -2070 0
v -1519 -2000 0
v -1449 -2000 0
v -1518 -2070 0
v -1588 -2070 0
v -1588 -2000 0
v -1518 -2000 0
v -1587 -2070 0
v -1657 -2070 0
v -1657 -2000 0
v -1587 -2000 0
v -1656 -2070 0
v -1726 -2070 0
v -1726 -2000 0
v -1656 -2000 0
v -1725 -2070 0
v -1795 -2070 0
v -1795 -2000 0
v -1725 -2000 0
v -1794 -2070 0
v -1864 -2070 0
v -1864 -2000 0
v -1794 -2000 0
v -1863 -2070 0
v -1933 -2070 0
v -1933 -2000 0
v -1863 -2000 0
v -1932 -2070 0
v -2002 -2070 0
v -2002 -2000 0
v -1932 -2000 0
v -2001 -2070 0
v -2071 -2070 0
v -2071 -2000 0
v -2001 -2000 0

# Texture cooridinates (Count = 31)
vt 0.1367188 0.8632813
vt 0.2734375 0.8632813
vt 0.2734375 1
vt 0.1367188 1
vt 0 0.04296875
vt 0.1367188 0.04296875
vt 0.1367188 0.1796875
vt 0 0.1796875
vt 0.1367188 0.7265625
vt 0.2734375 0.7265625
vt 0.4101563 0.8632813
vt 0.4101563 1
vt 0.4101563 0.7265625
vt 0.546875 0.04296875
vt 0.6835938 0.04296875
vt 0.6835938 0.1796875
vt 0.546875 0.1796875
vt 0 0.8632813
vt 0 1
vt 0.2734375 0.453125
vt 0.4101563 0.453125
vt 0.4101563 0.5898438
vt 0.2734375 0.5898438
vt 0.546875 0.453125
vt 0.6835938 0.453125
vt 0.6835938 0.5898438
vt 0.546875 0.5898438
vt 0.2734375 0.04296875
vt 0.4101563 0.04296875
vt 0.4101563 0.1796875
vt 0.2734375 0.1796875

# Normal
vn 0 0 -1

# Mesh description
g Dearth3_mesh_0001

# Faces
f 1/1/1 2/2/1 3/3/1 4/4/1
f 5/5/1 6/6/1 7/7/1 8/8/1
f 9/5/1 10/6/1 11/7/1 12/8/1
f 13/5/1 14/6/1 15/7/1 16/8/1
f 17/5/1 18/6/1 19/7/1 20/8/1
f 21/5/1 22/6/1 23/7/1 24/8/1
f 25/5/1 26/6/1 27/7/1 28/8/1
f 29/5/1 30/6/1 31/7/1 32/8/1
f 33/5/1 34/6/1 35/7/1 36/8/1
f 37/5/1 38/6/1 39/7/1 40/8/1
f 41/5/1 42/6/1 43/7/1 44/8/1
f 45/5/1 46/6/1 47/7/1 48/8/1
f 49/5/1 50/6/1 51/7/1 52/8/1
f 53/5/1 54/6/1 55/7/1 56/8/1
f 57/5/1 58/6/1 59/7/1 60/8/1
f 61/5/1 62/6/1 63/7/1 64/8/1
f 65/5/1 66/6/1 67/7/1 68/8/1
f 69/5/1 70/6/1 71/7/1 72/8/1
f 73/5/1 74/6/1 75/7/1 76/8/1
f 77/5/1 78/6/1 79/7/1 80/8/1
f 81/5/1 82/6/1 83/7/1 84/8/1
f 85/5/1 86/6/1 87/7/1 88/8/1
f 89/5/1 90/6/1 91/7/1 92/8/1
f 93/5/1 94/6/1 95/7/1 96/8/1
f 97/5/1 98/6/1 99/7/1 100/8/1
f 101/5/1 102/6/1 103/7/1 104/8/1
f 105/5/1 106/6/1 107/7/1 108/8/1
f 109/5/1 110/6/1 111/7/1 112/8/1
f 113/5/1 114/6/1 115/7/1 116/8/1
f 117/9/1 118/10/1 119/2/1 120/1/1
f 121/2/1 122/11/1 123/12/1 124/3/1
f 125/10/1 126/13/1 127/11/1 128/2/1
f 129/2/1 130/11/1 131/12/1 132/3/1
f 133/10/1 134/13/1 135/11/1 136/2/1
f 137/2/1 138/11/1 139/12/1 140/3/1
f 141/10/1 142/13/1 143/11/1 144/2/1
f 145/2/1 146/11/1 147/12/1 148/3/1
f 149/10/1 150/13/1 151/11/1 152/2/1
f 153/2/1 154/11/1 155/12/1 156/3/1
f 157/10/1 158/13/1 159/11/1 160/2/1
f 161/2/1 162/11/1 163/12/1 164/3/1
f 165/10/1 166/13/1 167/11/1 168/2/1
f 169/2/1 170/11/1 171/12/1 172/3/1
f 173/14/1 174/15/1 175/16/1 176/17/1
f 177/10/1 178/13/1 179/11/1 180/2/1
f 181/2/1 182/11/1 183/12/1 184/3/1
f 185/10/1 186/13/1 187/11/1 188/2/1
f 189/2/1 190/11/1 191/12/1 192/3/1
f 193/10/1 194/13/1 195/11/1 196/2/1
f 197/2/1 198/11/1 199/12/1 200/3/1
f 201/18/1 202/1/1 203/4/1 204/19/1
f 205/20/1 206/21/1 207/22/1 208/23/1
f 209/20/1 210/21/1 211/22/1 212/23/1
f 213/20/1 214/21/1 215/22/1 216/23/1
f 217/20/1 218/21/1 219/22/1 220/23/1
f 221/20/1 222/21/1 223/22/1 224/23/1
f 225/20/1 226/21/1 227/22/1 228/23/1
f 229/20/1 230/21/1 231/22/1 232/23/1
f 233/20/1 234/21/1 235/22/1 236/23/1
f 237/20/1 238/21/1 239/22/1 240/23/1
f 241/20/1 242/21/1 243/22/1 244/23/1
f 245/20/1 246/21/1 247/22/1 248/23/1
f 249/20/1 250/21/1 251/22/1 252/23/1
f 253/20/1 254/21/1 255/22/1 256/23/1
f 257/20/1 258/21/1 259/22/1 260/23/1
f 261/20/1 262/21/1 263/22/1 264/23/1
f 265/20/1 266/21/1 267/22/1 268/23/1
f 269/20/1 270/21/1 271/22/1 272/23/1
f 273/20/1 274/21/1 275/22/1 276/23/1
f 277/20/1 278/21/1 279/22/1 280/23/1
f 281/20/1 282/21/1 283/22/1 284/23/1
f 285/20/1 286/21/1 287/22/1 288/23/1
f 289/20/1 290/21/1 291/22/1 292/23/1
f 293/10/1 294/13/1 295/11/1 296/2/1
f 297/2/1 298/11/1 299/12/1 300/3/1
f 301/10/1 302/13/1 303/11/1 304/2/1
f 305/2/1 306/11/1 307/12/1 308/3/1
f 309/20/1 310/21/1 311/22/1 312/23/1
f 313/14/1 314/15/1 315/16/1 316/17/1
f 317/10/1 318/13/1 319/11/1 320/2/1
f 321/2/1 322/11/1 323/12/1 324/3/1
f 325/10/1 326/13/1 327/11/1 328/2/1
f 329/2/1 330/11/1 331/12/1 332/3/1
f 333/10/1 334/13/1 335/11/1 336/2/1
f 337/2/1 338/11/1 339/12/1 340/3/1
f 341/10/1 342/13/1 343/11/1 344/2/1
f 345/2/1 346/11/1 347/12/1 348/3/1
f 349/10/1 350/13/1 351/11/1 352/2/1
f 353/2/1 354/11/1 355/12/1 356/3/1
f 357/10/1 358/13/1 359/11/1 360/2/1
f 361/2/1 362/11/1 363/12/1 364/3/1
f 365/10/1 366/13/1 367/11/1 368/2/1
f 369/2/1 370/11/1 371/12/1 372/3/1
f 373/20/1 374/21/1 375/22/1 376/23/1
f 377/20/1 378/21/1 379/22/1 380/23/1
f 381/20/1 382/21/1 383/22/1 384/23/1
f 385/20/1 386/21/1 387/22/1 388/23/1
f 389/20/1 390/21/1 391/22/1 392/23/1
f 393/20/1 394/21/1 395/22/1 396/23/1
f 397/20/1 398/21/1 399/22/1 400/23/1
f 401/20/1 402/21/1 403/22/1 404/23/1
f 405/20/1 406/21/1 407/22/1 408/23/1
f 409/20/1 410/21/1 411/22/1 412/23/1
f 413/20/1 414/21/1 415/22/1 416/23/1
f 417/20/1 418/21/1 419/22/1 420/23/1
f 421/20/1 422/21/1 423/22/1 424/23/1
f 425/20/1 426/21/1 427/22/1 428/23/1
f 429/20/1 430/21/1 431/22/1 432/23/1
f 433/20/1 434/21/1 435/22/1 436/23/1
f 437/20/1 438/21/1 439/22/1 440/23/1
f 441/20/1 442/21/1 443/22/1 444/23/1
f 445/20/1 446/21/1 447/22/1 448/23/1
f 449/14/1 450/15/1 451/16/1 452/17/1
f 453/10/1 454/13/1 455/11/1 456/2/1
f 457/2/1 458/11/1 459/12/1 460/3/1
f 461/10/1 462/13/1 463/11/1 464/2/1
f 465/2/1 466/11/1 467/12/1 468/3/1
f 469/10/1 470/13/1 471/11/1 472/2/1
f 473/2/1 474/11/1 475/12/1 476/3/1
f 477/10/1 478/13/1 479/11/1 480/2/1
f 481/2/1 482/11/1 483/12/1 484/3/1
f 485/10/1 486/13/1 487/11/1 488/2/1
f 489/2/1 490/11/1 491/12/1 492/3/1
f 493/10/1 494/13/1 495/11/1 496/2/1
f 497/2/1 498/11/1 499/12/1 500/3/1
f 501/10/1 502/13/1 503/11/1 504/2/1
f 505/2/1 506/11/1 507/12/1 508/3/1
f 509/10/1 510/13/1 511/11/1 512/2/1
f 513/2/1 514/11/1 515/12/1 516/3/1
f 517/10/1 518/13/1 519/11/1 520/2/1
f 521/2/1 522/11/1 523/12/1 524/3/1
f 525/10/1 526/13/1 527/11/1 528/2/1
f 529/23/1 530/22/1 531/13/1 532/10/1
f 533/24/1 534/25/1 535/26/1 536/27/1
f 537/24/1 538/25/1 539/26/1 540/27/1
f 541/24/1 542/25/1 543/26/1 544/27/1
f 545/24/1 546/25/1 547/26/1 548/27/1
f 549/24/1 550/25/1 551/26/1 552/27/1
f 553/24/1 554/25/1 555/26/1 556/27/1
f 557/24/1 558/25/1 559/26/1 560/27/1
f 561/24/1 562/25/1 563/26/1 564/27/1
f 565/24/1 566/25/1 567/26/1 568/27/1
f 569/24/1 570/25/1 571/26/1 572/27/1
f 573/24/1 574/25/1 575/26/1 576/27/1
f 577/24/1 578/25/1 579/26/1 580/27/1
f 581/24/1 582/25/1 583/26/1 584/27/1
f 585/24/1 586/25/1 587/26/1 588/27/1
f 589/24/1 590/25/1 591/26/1 592/27/1
f 593/24/1 594/25/1 595/26/1 596/27/1
f 597/24/1 598/25/1 599/26/1 600/27/1
f 601/24/1 602/25/1 603/26/1 604/27/1
f 605/24/1 606/25/1 607/26/1 608/27/1
f 609/24/1 610/25/1 611/26/1 612/27/1
f 613/24/1 614/25/1 615/26/1 616/27/1
f 617/24/1 618/25/1 619/26/1 620/27/1
f 621/24/1 622/25/1 623/26/1 624/27/1
f 625/24/1 626/25/1 627/26/1 628/27/1
f 629/24/1 630/25/1 631/26/1 632/27/1
f 633/24/1 634/25/1 635/26/1 636/27/1
f 637/24/1 638/25/1 639/26/1 640/27/1
f 641/24/1 642/25/1 643/26/1 644/27/1
f 645/28/1 646/29/1 647/30/1 648/31/1

